# CP05 - 01_gabarito_base (metros, Z para cima)
mtllib 01_gabarito_base.mtl
o Gabarito_Base
usemtl cor0
v 0.85000 -0.30000 0.00000
v -0.85000 -0.30000 0.00000
v 0.85000 0.30000 0.00000
v -0.85000 0.30000 0.00000
v 0.85000 -0.30000 0.08000
v -0.85000 -0.30000 0.08000
v 0.85000 0.30000 0.08000
v -0.85000 0.30000 0.08000
f 1 2 3
f 3 2 4
f 2 1 5
f 2 5 6
f 3 4 7
f 7 4 8
f 7 8 5
f 5 8 6
f 4 2 8
f 8 2 6
f 1 3 7
f 1 7 5
o Gabarito_Coluna_Motor
usemtl cor1
v -0.71000 -0.15000 0.06000
v -0.85000 -0.15000 0.06000
v -0.71000 0.15000 0.06000
v -0.85000 0.15000 0.06000
v -0.71000 -0.15000 1.02000
v -0.85000 -0.15000 1.02000
v -0.71000 0.15000 1.02000
v -0.85000 0.15000 1.02000
f 9 10 11
f 11 10 12
f 10 9 13
f 10 13 14
f 11 12 15
f 15 12 16
f 15 16 13
f 13 16 14
f 12 10 16
f 16 10 14
f 9 11 15
f 9 15 13
o Gabarito_Coluna_Mancal
usemtl cor1
v 0.85000 -0.15000 0.06000
v 0.71000 -0.15000 0.06000
v 0.85000 0.15000 0.06000
v 0.71000 0.15000 0.06000
v 0.85000 -0.15000 1.02000
v 0.71000 -0.15000 1.02000
v 0.85000 0.15000 1.02000
v 0.71000 0.15000 1.02000
f 17 18 19
f 19 18 20
f 18 17 21
f 18 21 22
f 19 20 23
f 23 20 24
f 23 24 21
f 21 24 22
f 20 18 24
f 24 18 22
f 17 19 23
f 17 23 21
o Servomotor_Giro
usemtl cor2
v -0.85000 -0.10000 0.89000
v -1.05000 -0.10000 0.89000
v -0.85000 0.10000 0.89000
v -1.05000 0.10000 0.89000
v -0.85000 -0.10000 1.11000
v -1.05000 -0.10000 1.11000
v -0.85000 0.10000 1.11000
v -1.05000 0.10000 1.11000
f 25 26 27
f 27 26 28
f 26 25 29
f 26 29 30
f 27 28 31
f 31 28 32
f 31 32 29
f 29 32 30
f 28 26 32
f 32 26 30
f 25 27 31
f 25 31 29
o Redutor_Giro
usemtl cor3
v -0.74000 0.00000 1.00000
v -0.74000 0.00000 0.93000
v -0.74000 0.01366 0.93135
v -0.86000 0.00000 0.93000
v -0.86000 0.00000 1.00000
v -0.86000 0.01366 0.93135
v -0.74000 0.02679 0.93533
v -0.86000 0.02679 0.93533
v -0.74000 0.03889 0.94180
v -0.86000 0.03889 0.94180
v -0.74000 0.04950 0.95050
v -0.86000 0.04950 0.95050
v -0.74000 0.05820 0.96111
v -0.86000 0.05820 0.96111
v -0.74000 0.06467 0.97321
v -0.86000 0.06467 0.97321
v -0.74000 0.06865 0.98634
v -0.86000 0.06865 0.98634
v -0.74000 0.07000 1.00000
v -0.86000 0.07000 1.00000
v -0.74000 0.06865 1.01366
v -0.86000 0.06865 1.01366
v -0.74000 0.06467 1.02679
v -0.86000 0.06467 1.02679
v -0.74000 0.05820 1.03889
v -0.86000 0.05820 1.03889
v -0.74000 0.04950 1.04950
v -0.86000 0.04950 1.04950
v -0.74000 0.03889 1.05820
v -0.86000 0.03889 1.05820
v -0.74000 0.02679 1.06467
v -0.86000 0.02679 1.06467
v -0.74000 0.01366 1.06865
v -0.86000 0.01366 1.06865
v -0.74000 -0.00000 1.07000
v -0.86000 -0.00000 1.07000
v -0.74000 -0.01366 1.06865
v -0.86000 -0.01366 1.06865
v -0.74000 -0.02679 1.06467
v -0.86000 -0.02679 1.06467
v -0.74000 -0.03889 1.05820
v -0.86000 -0.03889 1.05820
v -0.74000 -0.04950 1.04950
v -0.86000 -0.04950 1.04950
v -0.74000 -0.05820 1.03889
v -0.86000 -0.05820 1.03889
v -0.74000 -0.06467 1.02679
v -0.86000 -0.06467 1.02679
v -0.74000 -0.06865 1.01366
v -0.86000 -0.06865 1.01366
v -0.74000 -0.07000 1.00000
v -0.86000 -0.07000 1.00000
v -0.74000 -0.06865 0.98634
v -0.86000 -0.06865 0.98634
v -0.74000 -0.06467 0.97321
v -0.86000 -0.06467 0.97321
v -0.74000 -0.05820 0.96111
v -0.86000 -0.05820 0.96111
v -0.74000 -0.04950 0.95050
v -0.86000 -0.04950 0.95050
v -0.74000 -0.03889 0.94180
v -0.86000 -0.03889 0.94180
v -0.74000 -0.02679 0.93533
v -0.86000 -0.02679 0.93533
v -0.74000 -0.01366 0.93135
v -0.86000 -0.01366 0.93135
f 33 34 35
f 36 37 38
f 34 36 35
f 36 38 35
f 33 35 39
f 38 37 40
f 35 38 39
f 38 40 39
f 33 39 41
f 40 37 42
f 39 40 41
f 40 42 41
f 33 41 43
f 42 37 44
f 41 42 43
f 42 44 43
f 33 43 45
f 44 37 46
f 43 44 45
f 44 46 45
f 33 45 47
f 46 37 48
f 45 46 47
f 46 48 47
f 33 47 49
f 48 37 50
f 47 48 49
f 48 50 49
f 33 49 51
f 50 37 52
f 49 50 51
f 50 52 51
f 33 51 53
f 52 37 54
f 51 52 53
f 52 54 53
f 33 53 55
f 54 37 56
f 53 54 55
f 54 56 55
f 33 55 57
f 56 37 58
f 55 56 57
f 56 58 57
f 33 57 59
f 58 37 60
f 57 58 59
f 58 60 59
f 33 59 61
f 60 37 62
f 59 60 61
f 60 62 61
f 33 61 63
f 62 37 64
f 61 62 63
f 62 64 63
f 33 63 65
f 64 37 66
f 63 64 65
f 64 66 65
f 33 65 67
f 66 37 68
f 65 66 67
f 66 68 67
f 33 67 69
f 68 37 70
f 67 68 69
f 68 70 69
f 33 69 71
f 70 37 72
f 69 70 71
f 70 72 71
f 33 71 73
f 72 37 74
f 71 72 73
f 72 74 73
f 33 73 75
f 74 37 76
f 73 74 75
f 74 76 75
f 33 75 77
f 76 37 78
f 75 76 77
f 76 78 77
f 33 77 79
f 78 37 80
f 77 78 79
f 78 80 79
f 33 79 81
f 80 37 82
f 79 80 81
f 80 82 81
f 33 81 83
f 82 37 84
f 81 82 83
f 82 84 83
f 33 83 85
f 84 37 86
f 83 84 85
f 84 86 85
f 33 85 87
f 86 37 88
f 85 86 87
f 86 88 87
f 33 87 89
f 88 37 90
f 87 88 89
f 88 90 89
f 33 89 91
f 90 37 92
f 89 90 91
f 90 92 91
f 33 91 93
f 92 37 94
f 91 92 93
f 92 94 93
f 33 93 95
f 94 37 96
f 93 94 95
f 94 96 95
f 33 95 97
f 96 37 98
f 95 96 97
f 96 98 97
f 33 97 34
f 98 37 36
f 97 98 34
f 98 36 34
o Mancal_Giro
usemtl cor3
v 0.83000 0.00000 1.00000
v 0.83000 0.00000 0.94000
v 0.83000 0.01171 0.94115
v 0.73000 0.00000 0.94000
v 0.73000 0.00000 1.00000
v 0.73000 0.01171 0.94115
v 0.83000 0.02296 0.94457
v 0.73000 0.02296 0.94457
v 0.83000 0.03333 0.95011
v 0.73000 0.03333 0.95011
v 0.83000 0.04243 0.95757
v 0.73000 0.04243 0.95757
v 0.83000 0.04989 0.96667
v 0.73000 0.04989 0.96667
v 0.83000 0.05543 0.97704
v 0.73000 0.05543 0.97704
v 0.83000 0.05885 0.98829
v 0.73000 0.05885 0.98829
v 0.83000 0.06000 1.00000
v 0.73000 0.06000 1.00000
v 0.83000 0.05885 1.01171
v 0.73000 0.05885 1.01171
v 0.83000 0.05543 1.02296
v 0.73000 0.05543 1.02296
v 0.83000 0.04989 1.03333
v 0.73000 0.04989 1.03333
v 0.83000 0.04243 1.04243
v 0.73000 0.04243 1.04243
v 0.83000 0.03333 1.04989
v 0.73000 0.03333 1.04989
v 0.83000 0.02296 1.05543
v 0.73000 0.02296 1.05543
v 0.83000 0.01171 1.05885
v 0.73000 0.01171 1.05885
v 0.83000 -0.00000 1.06000
v 0.73000 -0.00000 1.06000
v 0.83000 -0.01171 1.05885
v 0.73000 -0.01171 1.05885
v 0.83000 -0.02296 1.05543
v 0.73000 -0.02296 1.05543
v 0.83000 -0.03333 1.04989
v 0.73000 -0.03333 1.04989
v 0.83000 -0.04243 1.04243
v 0.73000 -0.04243 1.04243
v 0.83000 -0.04989 1.03333
v 0.73000 -0.04989 1.03333
v 0.83000 -0.05543 1.02296
v 0.73000 -0.05543 1.02296
v 0.83000 -0.05885 1.01171
v 0.73000 -0.05885 1.01171
v 0.83000 -0.06000 1.00000
v 0.73000 -0.06000 1.00000
v 0.83000 -0.05885 0.98829
v 0.73000 -0.05885 0.98829
v 0.83000 -0.05543 0.97704
v 0.73000 -0.05543 0.97704
v 0.83000 -0.04989 0.96667
v 0.73000 -0.04989 0.96667
v 0.83000 -0.04243 0.95757
v 0.73000 -0.04243 0.95757
v 0.83000 -0.03333 0.95011
v 0.73000 -0.03333 0.95011
v 0.83000 -0.02296 0.94457
v 0.73000 -0.02296 0.94457
v 0.83000 -0.01171 0.94115
v 0.73000 -0.01171 0.94115
f 99 100 101
f 102 103 104
f 100 102 101
f 102 104 101
f 99 101 105
f 104 103 106
f 101 104 105
f 104 106 105
f 99 105 107
f 106 103 108
f 105 106 107
f 106 108 107
f 99 107 109
f 108 103 110
f 107 108 109
f 108 110 109
f 99 109 111
f 110 103 112
f 109 110 111
f 110 112 111
f 99 111 113
f 112 103 114
f 111 112 113
f 112 114 113
f 99 113 115
f 114 103 116
f 113 114 115
f 114 116 115
f 99 115 117
f 116 103 118
f 115 116 117
f 116 118 117
f 99 117 119
f 118 103 120
f 117 118 119
f 118 120 119
f 99 119 121
f 120 103 122
f 119 120 121
f 120 122 121
f 99 121 123
f 122 103 124
f 121 122 123
f 122 124 123
f 99 123 125
f 124 103 126
f 123 124 125
f 124 126 125
f 99 125 127
f 126 103 128
f 125 126 127
f 126 128 127
f 99 127 129
f 128 103 130
f 127 128 129
f 128 130 129
f 99 129 131
f 130 103 132
f 129 130 131
f 130 132 131
f 99 131 133
f 132 103 134
f 131 132 133
f 132 134 133
f 99 133 135
f 134 103 136
f 133 134 135
f 134 136 135
f 99 135 137
f 136 103 138
f 135 136 137
f 136 138 137
f 99 137 139
f 138 103 140
f 137 138 139
f 138 140 139
f 99 139 141
f 140 103 142
f 139 140 141
f 140 142 141
f 99 141 143
f 142 103 144
f 141 142 143
f 142 144 143
f 99 143 145
f 144 103 146
f 143 144 145
f 144 146 145
f 99 145 147
f 146 103 148
f 145 146 147
f 146 148 147
f 99 147 149
f 148 103 150
f 147 148 149
f 148 150 149
f 99 149 151
f 150 103 152
f 149 150 151
f 150 152 151
f 99 151 153
f 152 103 154
f 151 152 153
f 152 154 153
f 99 153 155
f 154 103 156
f 153 154 155
f 154 156 155
f 99 155 157
f 156 103 158
f 155 156 157
f 156 158 157
f 99 157 159
f 158 103 160
f 157 158 159
f 158 160 159
f 99 159 161
f 160 103 162
f 159 160 161
f 160 162 161
f 99 161 163
f 162 103 164
f 161 162 163
f 162 164 163
f 99 163 100
f 164 103 102
f 163 164 100
f 164 102 100
o Sensor_Peca_Gabarito_corpo
usemtl cor4
v 0.00000 -0.30500 1.00000
v 0.01200 -0.30500 1.00000
v 0.01177 -0.30500 0.99766
v 0.01200 -0.35500 1.00000
v 0.00000 -0.35500 1.00000
v 0.01177 -0.35500 0.99766
v 0.01109 -0.30500 0.99541
v 0.01109 -0.35500 0.99541
v 0.00998 -0.30500 0.99333
v 0.00998 -0.35500 0.99333
v 0.00849 -0.30500 0.99151
v 0.00849 -0.35500 0.99151
v 0.00667 -0.30500 0.99002
v 0.00667 -0.35500 0.99002
v 0.00459 -0.30500 0.98891
v 0.00459 -0.35500 0.98891
v 0.00234 -0.30500 0.98823
v 0.00234 -0.35500 0.98823
v -0.00000 -0.30500 0.98800
v -0.00000 -0.35500 0.98800
v -0.00234 -0.30500 0.98823
v -0.00234 -0.35500 0.98823
v -0.00459 -0.30500 0.98891
v -0.00459 -0.35500 0.98891
v -0.00667 -0.30500 0.99002
v -0.00667 -0.35500 0.99002
v -0.00849 -0.30500 0.99151
v -0.00849 -0.35500 0.99151
v -0.00998 -0.30500 0.99333
v -0.00998 -0.35500 0.99333
v -0.01109 -0.30500 0.99541
v -0.01109 -0.35500 0.99541
v -0.01177 -0.30500 0.99766
v -0.01177 -0.35500 0.99766
v -0.01200 -0.30500 1.00000
v -0.01200 -0.35500 1.00000
v -0.01177 -0.30500 1.00234
v -0.01177 -0.35500 1.00234
v -0.01109 -0.30500 1.00459
v -0.01109 -0.35500 1.00459
v -0.00998 -0.30500 1.00667
v -0.00998 -0.35500 1.00667
v -0.00849 -0.30500 1.00849
v -0.00849 -0.35500 1.00849
v -0.00667 -0.30500 1.00998
v -0.00667 -0.35500 1.00998
v -0.00459 -0.30500 1.01109
v -0.00459 -0.35500 1.01109
v -0.00234 -0.30500 1.01177
v -0.00234 -0.35500 1.01177
v 0.00000 -0.30500 1.01200
v 0.00000 -0.35500 1.01200
v 0.00234 -0.30500 1.01177
v 0.00234 -0.35500 1.01177
v 0.00459 -0.30500 1.01109
v 0.00459 -0.35500 1.01109
v 0.00667 -0.30500 1.00998
v 0.00667 -0.35500 1.00998
v 0.00849 -0.30500 1.00849
v 0.00849 -0.35500 1.00849
v 0.00998 -0.30500 1.00667
v 0.00998 -0.35500 1.00667
v 0.01109 -0.30500 1.00459
v 0.01109 -0.35500 1.00459
v 0.01177 -0.30500 1.00234
v 0.01177 -0.35500 1.00234
f 165 166 167
f 168 169 170
f 166 168 167
f 168 170 167
f 165 167 171
f 170 169 172
f 167 170 171
f 170 172 171
f 165 171 173
f 172 169 174
f 171 172 173
f 172 174 173
f 165 173 175
f 174 169 176
f 173 174 175
f 174 176 175
f 165 175 177
f 176 169 178
f 175 176 177
f 176 178 177
f 165 177 179
f 178 169 180
f 177 178 179
f 178 180 179
f 165 179 181
f 180 169 182
f 179 180 181
f 180 182 181
f 165 181 183
f 182 169 184
f 181 182 183
f 182 184 183
f 165 183 185
f 184 169 186
f 183 184 185
f 184 186 185
f 165 185 187
f 186 169 188
f 185 186 187
f 186 188 187
f 165 187 189
f 188 169 190
f 187 188 189
f 188 190 189
f 165 189 191
f 190 169 192
f 189 190 191
f 190 192 191
f 165 191 193
f 192 169 194
f 191 192 193
f 192 194 193
f 165 193 195
f 194 169 196
f 193 194 195
f 194 196 195
f 165 195 197
f 196 169 198
f 195 196 197
f 196 198 197
f 165 197 199
f 198 169 200
f 197 198 199
f 198 200 199
f 165 199 201
f 200 169 202
f 199 200 201
f 200 202 201
f 165 201 203
f 202 169 204
f 201 202 203
f 202 204 203
f 165 203 205
f 204 169 206
f 203 204 205
f 204 206 205
f 165 205 207
f 206 169 208
f 205 206 207
f 206 208 207
f 165 207 209
f 208 169 210
f 207 208 209
f 208 210 209
f 165 209 211
f 210 169 212
f 209 210 211
f 210 212 211
f 165 211 213
f 212 169 214
f 211 212 213
f 212 214 213
f 165 213 215
f 214 169 216
f 213 214 215
f 214 216 215
f 165 215 217
f 216 169 218
f 215 216 217
f 216 218 217
f 165 217 219
f 218 169 220
f 217 218 219
f 218 220 219
f 165 219 221
f 220 169 222
f 219 220 221
f 220 222 221
f 165 221 223
f 222 169 224
f 221 222 223
f 222 224 223
f 165 223 225
f 224 169 226
f 223 224 225
f 224 226 225
f 165 225 227
f 226 169 228
f 225 226 227
f 226 228 227
f 165 227 229
f 228 169 230
f 227 228 229
f 228 230 229
f 165 229 166
f 230 169 168
f 229 230 166
f 230 168 166
