# CP05 - 03_peca_painel (metros, Z para cima)
mtllib 03_peca_painel.mtl
o Painel
usemtl cor0
v 0.45000 -0.17500 0.97000
v -0.45000 -0.17500 0.97000
v 0.45000 0.17500 0.97000
v -0.45000 0.17500 0.97000
v 0.45000 -0.17500 1.03000
v -0.45000 -0.17500 1.03000
v 0.45000 0.17500 1.03000
v -0.45000 0.17500 1.03000
f 1 2 3
f 3 2 4
f 2 1 5
f 2 5 6
f 3 4 7
f 7 4 8
f 7 8 5
f 5 8 6
f 4 2 8
f 8 2 6
f 1 3 7
f 1 7 5
o Painel_Cobertura
usemtl cor1
v 0.05000 0.02000 1.03000
v -0.35000 0.02000 1.03000
v 0.05000 0.14000 1.03000
v -0.35000 0.14000 1.03000
v 0.05000 0.02000 1.08000
v -0.35000 0.02000 1.08000
v 0.05000 0.14000 1.08000
v -0.35000 0.14000 1.08000
f 9 10 11
f 11 10 12
f 10 9 13
f 10 13 14
f 11 12 15
f 15 12 16
f 15 16 13
f 13 16 14
f 12 10 16
f 16 10 14
f 9 11 15
f 9 15 13
o Painel_Nervura_1
usemtl cor1
v 0.35000 -0.07500 0.94550
v -0.35000 -0.07500 0.94550
v 0.35000 -0.04500 0.94550
v -0.35000 -0.04500 0.94550
v 0.35000 -0.07500 0.97050
v -0.35000 -0.07500 0.97050
v 0.35000 -0.04500 0.97050
v -0.35000 -0.04500 0.97050
f 17 18 19
f 19 18 20
f 18 17 21
f 18 21 22
f 19 20 23
f 23 20 24
f 23 24 21
f 21 24 22
f 20 18 24
f 24 18 22
f 17 19 23
f 17 23 21
o Painel_Nervura_2
usemtl cor1
v 0.35000 0.04500 0.94550
v -0.35000 0.04500 0.94550
v 0.35000 0.07500 0.94550
v -0.35000 0.07500 0.94550
v 0.35000 0.04500 0.97050
v -0.35000 0.04500 0.97050
v 0.35000 0.07500 0.97050
v -0.35000 0.07500 0.97050
f 25 26 27
f 27 26 28
f 26 25 29
f 26 29 30
f 27 28 31
f 31 28 32
f 31 32 29
f 29 32 30
f 28 26 32
f 32 26 30
f 25 27 31
f 25 31 29
