# CP05 - 04_peca_rebarba (metros, Z para cima)
mtllib 04_peca_rebarba.mtl
o Rebarba_A_1
usemtl cor0
v 0.48000 -0.20500 1.02400
v -0.48000 -0.20500 1.02400
v 0.48000 -0.17500 1.02400
v -0.48000 -0.17500 1.02400
v 0.48000 -0.20500 1.03000
v -0.48000 -0.20500 1.03000
v 0.48000 -0.17500 1.03000
v -0.48000 -0.17500 1.03000
f 1 2 3
f 3 2 4
f 2 1 5
f 2 5 6
f 3 4 7
f 7 4 8
f 7 8 5
f 5 8 6
f 4 2 8
f 8 2 6
f 1 3 7
f 1 7 5
o Rebarba_A_2
usemtl cor0
v 0.48000 -0.20500 1.02400
v 0.45000 -0.20500 1.02400
v 0.48000 0.20500 1.02400
v 0.45000 0.20500 1.02400
v 0.48000 -0.20500 1.03000
v 0.45000 -0.20500 1.03000
v 0.48000 0.20500 1.03000
v 0.45000 0.20500 1.03000
f 9 10 11
f 11 10 12
f 10 9 13
f 10 13 14
f 11 12 15
f 15 12 16
f 15 16 13
f 13 16 14
f 12 10 16
f 16 10 14
f 9 11 15
f 9 15 13
o Rebarba_A_3
usemtl cor0
v 0.48000 0.17500 1.02400
v -0.48000 0.17500 1.02400
v 0.48000 0.20500 1.02400
v -0.48000 0.20500 1.02400
v 0.48000 0.17500 1.03000
v -0.48000 0.17500 1.03000
v 0.48000 0.20500 1.03000
v -0.48000 0.20500 1.03000
f 17 18 19
f 19 18 20
f 18 17 21
f 18 21 22
f 19 20 23
f 23 20 24
f 23 24 21
f 21 24 22
f 20 18 24
f 24 18 22
f 17 19 23
f 17 23 21
o Rebarba_A_4
usemtl cor0
v -0.45000 -0.20500 1.02400
v -0.48000 -0.20500 1.02400
v -0.45000 0.20500 1.02400
v -0.48000 0.20500 1.02400
v -0.45000 -0.20500 1.03000
v -0.48000 -0.20500 1.03000
v -0.45000 0.20500 1.03000
v -0.48000 0.20500 1.03000
f 25 26 27
f 27 26 28
f 26 25 29
f 26 29 30
f 27 28 31
f 31 28 32
f 31 32 29
f 29 32 30
f 28 26 32
f 32 26 30
f 25 27 31
f 25 31 29
o Rebarba_B_1
usemtl cor0
v 0.48000 -0.20500 0.97000
v -0.48000 -0.20500 0.97000
v 0.48000 -0.17500 0.97000
v -0.48000 -0.17500 0.97000
v 0.48000 -0.20500 0.97600
v -0.48000 -0.20500 0.97600
v 0.48000 -0.17500 0.97600
v -0.48000 -0.17500 0.97600
f 33 34 35
f 35 34 36
f 34 33 37
f 34 37 38
f 35 36 39
f 39 36 40
f 39 40 37
f 37 40 38
f 36 34 40
f 40 34 38
f 33 35 39
f 33 39 37
o Rebarba_B_2
usemtl cor0
v 0.48000 -0.20500 0.97000
v 0.45000 -0.20500 0.97000
v 0.48000 0.20500 0.97000
v 0.45000 0.20500 0.97000
v 0.48000 -0.20500 0.97600
v 0.45000 -0.20500 0.97600
v 0.48000 0.20500 0.97600
v 0.45000 0.20500 0.97600
f 41 42 43
f 43 42 44
f 42 41 45
f 42 45 46
f 43 44 47
f 47 44 48
f 47 48 45
f 45 48 46
f 44 42 48
f 48 42 46
f 41 43 47
f 41 47 45
o Rebarba_B_3
usemtl cor0
v 0.48000 0.17500 0.97000
v -0.48000 0.17500 0.97000
v 0.48000 0.20500 0.97000
v -0.48000 0.20500 0.97000
v 0.48000 0.17500 0.97600
v -0.48000 0.17500 0.97600
v 0.48000 0.20500 0.97600
v -0.48000 0.20500 0.97600
f 49 50 51
f 51 50 52
f 50 49 53
f 50 53 54
f 51 52 55
f 55 52 56
f 55 56 53
f 53 56 54
f 52 50 56
f 56 50 54
f 49 51 55
f 49 55 53
o Rebarba_B_4
usemtl cor0
v -0.45000 -0.20500 0.97000
v -0.48000 -0.20500 0.97000
v -0.45000 0.20500 0.97000
v -0.48000 0.20500 0.97000
v -0.45000 -0.20500 0.97600
v -0.48000 -0.20500 0.97600
v -0.45000 0.20500 0.97600
v -0.48000 0.20500 0.97600
f 57 58 59
f 59 58 60
f 58 57 61
f 58 61 62
f 59 60 63
f 63 60 64
f 63 64 61
f 61 64 62
f 60 58 64
f 64 58 62
f 57 59 63
f 57 63 61
