# CP05 - 05_peca_cordao_cola (metros, Z para cima)
mtllib 05_peca_cordao_cola.mtl
o Cola_A_00
usemtl cor0
v -0.38122 -0.15950 1.03000
v -0.43100 -0.15950 1.03000
v -0.38122 -0.15050 1.03000
v -0.43100 -0.15050 1.03000
v -0.38122 -0.15950 1.03400
v -0.43100 -0.15950 1.03400
v -0.38122 -0.15050 1.03400
v -0.43100 -0.15050 1.03400
f 1 2 3
f 3 2 4
f 2 1 5
f 2 5 6
f 3 4 7
f 7 4 8
f 7 8 5
f 5 8 6
f 4 2 8
f 8 2 6
f 1 3 7
f 1 7 5
o Cola_A_01
usemtl cor0
v -0.33344 -0.15950 1.03000
v -0.38322 -0.15950 1.03000
v -0.33344 -0.15050 1.03000
v -0.38322 -0.15050 1.03000
v -0.33344 -0.15950 1.03400
v -0.38322 -0.15950 1.03400
v -0.33344 -0.15050 1.03400
v -0.38322 -0.15050 1.03400
f 9 10 11
f 11 10 12
f 10 9 13
f 10 13 14
f 11 12 15
f 15 12 16
f 15 16 13
f 13 16 14
f 12 10 16
f 16 10 14
f 9 11 15
f 9 15 13
o Cola_A_02
usemtl cor0
v -0.28567 -0.15950 1.03000
v -0.33544 -0.15950 1.03000
v -0.28567 -0.15050 1.03000
v -0.33544 -0.15050 1.03000
v -0.28567 -0.15950 1.03400
v -0.33544 -0.15950 1.03400
v -0.28567 -0.15050 1.03400
v -0.33544 -0.15050 1.03400
f 17 18 19
f 19 18 20
f 18 17 21
f 18 21 22
f 19 20 23
f 23 20 24
f 23 24 21
f 21 24 22
f 20 18 24
f 24 18 22
f 17 19 23
f 17 23 21
o Cola_A_03
usemtl cor0
v -0.23789 -0.15950 1.03000
v -0.28767 -0.15950 1.03000
v -0.23789 -0.15050 1.03000
v -0.28767 -0.15050 1.03000
v -0.23789 -0.15950 1.03400
v -0.28767 -0.15950 1.03400
v -0.23789 -0.15050 1.03400
v -0.28767 -0.15050 1.03400
f 25 26 27
f 27 26 28
f 26 25 29
f 26 29 30
f 27 28 31
f 31 28 32
f 31 32 29
f 29 32 30
f 28 26 32
f 32 26 30
f 25 27 31
f 25 31 29
o Cola_A_04
usemtl cor0
v -0.19011 -0.15950 1.03000
v -0.23989 -0.15950 1.03000
v -0.19011 -0.15050 1.03000
v -0.23989 -0.15050 1.03000
v -0.19011 -0.15950 1.03400
v -0.23989 -0.15950 1.03400
v -0.19011 -0.15050 1.03400
v -0.23989 -0.15050 1.03400
f 33 34 35
f 35 34 36
f 34 33 37
f 34 37 38
f 35 36 39
f 39 36 40
f 39 40 37
f 37 40 38
f 36 34 40
f 40 34 38
f 33 35 39
f 33 39 37
o Cola_A_05
usemtl cor0
v -0.14233 -0.15950 1.03000
v -0.19211 -0.15950 1.03000
v -0.14233 -0.15050 1.03000
v -0.19211 -0.15050 1.03000
v -0.14233 -0.15950 1.03400
v -0.19211 -0.15950 1.03400
v -0.14233 -0.15050 1.03400
v -0.19211 -0.15050 1.03400
f 41 42 43
f 43 42 44
f 42 41 45
f 42 45 46
f 43 44 47
f 47 44 48
f 47 48 45
f 45 48 46
f 44 42 48
f 48 42 46
f 41 43 47
f 41 47 45
o Cola_A_06
usemtl cor0
v -0.09456 -0.15950 1.03000
v -0.14433 -0.15950 1.03000
v -0.09456 -0.15050 1.03000
v -0.14433 -0.15050 1.03000
v -0.09456 -0.15950 1.03400
v -0.14433 -0.15950 1.03400
v -0.09456 -0.15050 1.03400
v -0.14433 -0.15050 1.03400
f 49 50 51
f 51 50 52
f 50 49 53
f 50 53 54
f 51 52 55
f 55 52 56
f 55 56 53
f 53 56 54
f 52 50 56
f 56 50 54
f 49 51 55
f 49 55 53
o Cola_A_07
usemtl cor0
v -0.04678 -0.15950 1.03000
v -0.09656 -0.15950 1.03000
v -0.04678 -0.15050 1.03000
v -0.09656 -0.15050 1.03000
v -0.04678 -0.15950 1.03400
v -0.09656 -0.15950 1.03400
v -0.04678 -0.15050 1.03400
v -0.09656 -0.15050 1.03400
f 57 58 59
f 59 58 60
f 58 57 61
f 58 61 62
f 59 60 63
f 63 60 64
f 63 64 61
f 61 64 62
f 60 58 64
f 64 58 62
f 57 59 63
f 57 63 61
o Cola_A_08
usemtl cor0
v 0.00100 -0.15950 1.03000
v -0.04878 -0.15950 1.03000
v 0.00100 -0.15050 1.03000
v -0.04878 -0.15050 1.03000
v 0.00100 -0.15950 1.03400
v -0.04878 -0.15950 1.03400
v 0.00100 -0.15050 1.03400
v -0.04878 -0.15050 1.03400
f 65 66 67
f 67 66 68
f 66 65 69
f 66 69 70
f 67 68 71
f 71 68 72
f 71 72 69
f 69 72 70
f 68 66 72
f 72 66 70
f 65 67 71
f 65 71 69
o Cola_A_09
usemtl cor0
v 0.04878 -0.15950 1.03000
v -0.00100 -0.15950 1.03000
v 0.04878 -0.15050 1.03000
v -0.00100 -0.15050 1.03000
v 0.04878 -0.15950 1.03400
v -0.00100 -0.15950 1.03400
v 0.04878 -0.15050 1.03400
v -0.00100 -0.15050 1.03400
f 73 74 75
f 75 74 76
f 74 73 77
f 74 77 78
f 75 76 79
f 79 76 80
f 79 80 77
f 77 80 78
f 76 74 80
f 80 74 78
f 73 75 79
f 73 79 77
o Cola_A_10
usemtl cor0
v 0.09656 -0.15950 1.03000
v 0.04678 -0.15950 1.03000
v 0.09656 -0.15050 1.03000
v 0.04678 -0.15050 1.03000
v 0.09656 -0.15950 1.03400
v 0.04678 -0.15950 1.03400
v 0.09656 -0.15050 1.03400
v 0.04678 -0.15050 1.03400
f 81 82 83
f 83 82 84
f 82 81 85
f 82 85 86
f 83 84 87
f 87 84 88
f 87 88 85
f 85 88 86
f 84 82 88
f 88 82 86
f 81 83 87
f 81 87 85
o Cola_A_11
usemtl cor0
v 0.14433 -0.15950 1.03000
v 0.09456 -0.15950 1.03000
v 0.14433 -0.15050 1.03000
v 0.09456 -0.15050 1.03000
v 0.14433 -0.15950 1.03400
v 0.09456 -0.15950 1.03400
v 0.14433 -0.15050 1.03400
v 0.09456 -0.15050 1.03400
f 89 90 91
f 91 90 92
f 90 89 93
f 90 93 94
f 91 92 95
f 95 92 96
f 95 96 93
f 93 96 94
f 92 90 96
f 96 90 94
f 89 91 95
f 89 95 93
o Cola_A_12
usemtl cor0
v 0.19211 -0.15950 1.03000
v 0.14233 -0.15950 1.03000
v 0.19211 -0.15050 1.03000
v 0.14233 -0.15050 1.03000
v 0.19211 -0.15950 1.03400
v 0.14233 -0.15950 1.03400
v 0.19211 -0.15050 1.03400
v 0.14233 -0.15050 1.03400
f 97 98 99
f 99 98 100
f 98 97 101
f 98 101 102
f 99 100 103
f 103 100 104
f 103 104 101
f 101 104 102
f 100 98 104
f 104 98 102
f 97 99 103
f 97 103 101
o Cola_A_13
usemtl cor0
v 0.23989 -0.15950 1.03000
v 0.19011 -0.15950 1.03000
v 0.23989 -0.15050 1.03000
v 0.19011 -0.15050 1.03000
v 0.23989 -0.15950 1.03400
v 0.19011 -0.15950 1.03400
v 0.23989 -0.15050 1.03400
v 0.19011 -0.15050 1.03400
f 105 106 107
f 107 106 108
f 106 105 109
f 106 109 110
f 107 108 111
f 111 108 112
f 111 112 109
f 109 112 110
f 108 106 112
f 112 106 110
f 105 107 111
f 105 111 109
o Cola_A_14
usemtl cor0
v 0.28767 -0.15950 1.03000
v 0.23789 -0.15950 1.03000
v 0.28767 -0.15050 1.03000
v 0.23789 -0.15050 1.03000
v 0.28767 -0.15950 1.03400
v 0.23789 -0.15950 1.03400
v 0.28767 -0.15050 1.03400
v 0.23789 -0.15050 1.03400
f 113 114 115
f 115 114 116
f 114 113 117
f 114 117 118
f 115 116 119
f 119 116 120
f 119 120 117
f 117 120 118
f 116 114 120
f 120 114 118
f 113 115 119
f 113 119 117
o Cola_A_15
usemtl cor0
v 0.33544 -0.15950 1.03000
v 0.28567 -0.15950 1.03000
v 0.33544 -0.15050 1.03000
v 0.28567 -0.15050 1.03000
v 0.33544 -0.15950 1.03400
v 0.28567 -0.15950 1.03400
v 0.33544 -0.15050 1.03400
v 0.28567 -0.15050 1.03400
f 121 122 123
f 123 122 124
f 122 121 125
f 122 125 126
f 123 124 127
f 127 124 128
f 127 128 125
f 125 128 126
f 124 122 128
f 128 122 126
f 121 123 127
f 121 127 125
o Cola_A_16
usemtl cor0
v 0.38322 -0.15950 1.03000
v 0.33344 -0.15950 1.03000
v 0.38322 -0.15050 1.03000
v 0.33344 -0.15050 1.03000
v 0.38322 -0.15950 1.03400
v 0.33344 -0.15950 1.03400
v 0.38322 -0.15050 1.03400
v 0.33344 -0.15050 1.03400
f 129 130 131
f 131 130 132
f 130 129 133
f 130 133 134
f 131 132 135
f 135 132 136
f 135 136 133
f 133 136 134
f 132 130 136
f 136 130 134
f 129 131 135
f 129 135 133
o Cola_A_17
usemtl cor0
v 0.44500 -0.15950 1.03000
v 0.38122 -0.15950 1.03000
v 0.44500 -0.15050 1.03000
v 0.38122 -0.15050 1.03000
v 0.44500 -0.15950 1.03400
v 0.38122 -0.15950 1.03400
v 0.44500 -0.15050 1.03400
v 0.38122 -0.15050 1.03400
f 137 138 139
f 139 138 140
f 138 137 141
f 138 141 142
f 139 140 143
f 143 140 144
f 143 144 141
f 141 144 142
f 140 138 144
f 144 138 142
f 137 139 143
f 137 143 141
o Cola_A_18
usemtl cor0
v 0.43450 -0.15600 1.03000
v 0.42550 -0.15600 1.03000
v 0.43450 -0.10233 1.03000
v 0.42550 -0.10233 1.03000
v 0.43450 -0.15600 1.03400
v 0.42550 -0.15600 1.03400
v 0.43450 -0.10233 1.03400
v 0.42550 -0.10233 1.03400
f 145 146 147
f 147 146 148
f 146 145 149
f 146 149 150
f 147 148 151
f 151 148 152
f 151 152 149
f 149 152 150
f 148 146 152
f 152 146 150
f 145 147 151
f 145 151 149
o Cola_A_19
usemtl cor0
v 0.43450 -0.10433 1.03000
v 0.42550 -0.10433 1.03000
v 0.43450 -0.05067 1.03000
v 0.42550 -0.05067 1.03000
v 0.43450 -0.10433 1.03400
v 0.42550 -0.10433 1.03400
v 0.43450 -0.05067 1.03400
v 0.42550 -0.05067 1.03400
f 153 154 155
f 155 154 156
f 154 153 157
f 154 157 158
f 155 156 159
f 159 156 160
f 159 160 157
f 157 160 158
f 156 154 160
f 160 154 158
f 153 155 159
f 153 159 157
o Cola_A_20
usemtl cor0
v 0.43450 -0.05267 1.03000
v 0.42550 -0.05267 1.03000
v 0.43450 0.00100 1.03000
v 0.42550 0.00100 1.03000
v 0.43450 -0.05267 1.03400
v 0.42550 -0.05267 1.03400
v 0.43450 0.00100 1.03400
v 0.42550 0.00100 1.03400
f 161 162 163
f 163 162 164
f 162 161 165
f 162 165 166
f 163 164 167
f 167 164 168
f 167 168 165
f 165 168 166
f 164 162 168
f 168 162 166
f 161 163 167
f 161 167 165
o Cola_A_21
usemtl cor0
v 0.43450 -0.00100 1.03000
v 0.42550 -0.00100 1.03000
v 0.43450 0.05267 1.03000
v 0.42550 0.05267 1.03000
v 0.43450 -0.00100 1.03400
v 0.42550 -0.00100 1.03400
v 0.43450 0.05267 1.03400
v 0.42550 0.05267 1.03400
f 169 170 171
f 171 170 172
f 170 169 173
f 170 173 174
f 171 172 175
f 175 172 176
f 175 176 173
f 173 176 174
f 172 170 176
f 176 170 174
f 169 171 175
f 169 175 173
o Cola_A_22
usemtl cor0
v 0.43450 0.05067 1.03000
v 0.42550 0.05067 1.03000
v 0.43450 0.10433 1.03000
v 0.42550 0.10433 1.03000
v 0.43450 0.05067 1.03400
v 0.42550 0.05067 1.03400
v 0.43450 0.10433 1.03400
v 0.42550 0.10433 1.03400
f 177 178 179
f 179 178 180
f 178 177 181
f 178 181 182
f 179 180 183
f 183 180 184
f 183 184 181
f 181 184 182
f 180 178 184
f 184 178 182
f 177 179 183
f 177 183 181
o Cola_A_23
usemtl cor0
v 0.43450 0.10233 1.03000
v 0.42550 0.10233 1.03000
v 0.43450 0.17000 1.03000
v 0.42550 0.17000 1.03000
v 0.43450 0.10233 1.03400
v 0.42550 0.10233 1.03400
v 0.43450 0.17000 1.03400
v 0.42550 0.17000 1.03400
f 185 186 187
f 187 186 188
f 186 185 189
f 186 189 190
f 187 188 191
f 191 188 192
f 191 192 189
f 189 192 190
f 188 186 192
f 192 186 190
f 185 187 191
f 185 191 189
o Cola_A_24
usemtl cor0
v 0.43100 0.15050 1.03000
v 0.38122 0.15050 1.03000
v 0.43100 0.15950 1.03000
v 0.38122 0.15950 1.03000
v 0.43100 0.15050 1.03400
v 0.38122 0.15050 1.03400
v 0.43100 0.15950 1.03400
v 0.38122 0.15950 1.03400
f 193 194 195
f 195 194 196
f 194 193 197
f 194 197 198
f 195 196 199
f 199 196 200
f 199 200 197
f 197 200 198
f 196 194 200
f 200 194 198
f 193 195 199
f 193 199 197
o Cola_A_25
usemtl cor0
v 0.38322 0.15050 1.03000
v 0.33344 0.15050 1.03000
v 0.38322 0.15950 1.03000
v 0.33344 0.15950 1.03000
v 0.38322 0.15050 1.03400
v 0.33344 0.15050 1.03400
v 0.38322 0.15950 1.03400
v 0.33344 0.15950 1.03400
f 201 202 203
f 203 202 204
f 202 201 205
f 202 205 206
f 203 204 207
f 207 204 208
f 207 208 205
f 205 208 206
f 204 202 208
f 208 202 206
f 201 203 207
f 201 207 205
o Cola_A_26
usemtl cor0
v 0.33544 0.15050 1.03000
v 0.28567 0.15050 1.03000
v 0.33544 0.15950 1.03000
v 0.28567 0.15950 1.03000
v 0.33544 0.15050 1.03400
v 0.28567 0.15050 1.03400
v 0.33544 0.15950 1.03400
v 0.28567 0.15950 1.03400
f 209 210 211
f 211 210 212
f 210 209 213
f 210 213 214
f 211 212 215
f 215 212 216
f 215 216 213
f 213 216 214
f 212 210 216
f 216 210 214
f 209 211 215
f 209 215 213
o Cola_A_27
usemtl cor0
v 0.28767 0.15050 1.03000
v 0.23789 0.15050 1.03000
v 0.28767 0.15950 1.03000
v 0.23789 0.15950 1.03000
v 0.28767 0.15050 1.03400
v 0.23789 0.15050 1.03400
v 0.28767 0.15950 1.03400
v 0.23789 0.15950 1.03400
f 217 218 219
f 219 218 220
f 218 217 221
f 218 221 222
f 219 220 223
f 223 220 224
f 223 224 221
f 221 224 222
f 220 218 224
f 224 218 222
f 217 219 223
f 217 223 221
o Cola_A_28
usemtl cor0
v 0.23989 0.15050 1.03000
v 0.19011 0.15050 1.03000
v 0.23989 0.15950 1.03000
v 0.19011 0.15950 1.03000
v 0.23989 0.15050 1.03400
v 0.19011 0.15050 1.03400
v 0.23989 0.15950 1.03400
v 0.19011 0.15950 1.03400
f 225 226 227
f 227 226 228
f 226 225 229
f 226 229 230
f 227 228 231
f 231 228 232
f 231 232 229
f 229 232 230
f 228 226 232
f 232 226 230
f 225 227 231
f 225 231 229
o Cola_A_29
usemtl cor0
v 0.19211 0.15050 1.03000
v 0.14233 0.15050 1.03000
v 0.19211 0.15950 1.03000
v 0.14233 0.15950 1.03000
v 0.19211 0.15050 1.03400
v 0.14233 0.15050 1.03400
v 0.19211 0.15950 1.03400
v 0.14233 0.15950 1.03400
f 233 234 235
f 235 234 236
f 234 233 237
f 234 237 238
f 235 236 239
f 239 236 240
f 239 240 237
f 237 240 238
f 236 234 240
f 240 234 238
f 233 235 239
f 233 239 237
o Cola_A_30
usemtl cor0
v 0.14433 0.15050 1.03000
v 0.09456 0.15050 1.03000
v 0.14433 0.15950 1.03000
v 0.09456 0.15950 1.03000
v 0.14433 0.15050 1.03400
v 0.09456 0.15050 1.03400
v 0.14433 0.15950 1.03400
v 0.09456 0.15950 1.03400
f 241 242 243
f 243 242 244
f 242 241 245
f 242 245 246
f 243 244 247
f 247 244 248
f 247 248 245
f 245 248 246
f 244 242 248
f 248 242 246
f 241 243 247
f 241 247 245
o Cola_A_31
usemtl cor0
v 0.09656 0.15050 1.03000
v 0.04678 0.15050 1.03000
v 0.09656 0.15950 1.03000
v 0.04678 0.15950 1.03000
v 0.09656 0.15050 1.03400
v 0.04678 0.15050 1.03400
v 0.09656 0.15950 1.03400
v 0.04678 0.15950 1.03400
f 249 250 251
f 251 250 252
f 250 249 253
f 250 253 254
f 251 252 255
f 255 252 256
f 255 256 253
f 253 256 254
f 252 250 256
f 256 250 254
f 249 251 255
f 249 255 253
o Cola_A_32
usemtl cor0
v 0.04878 0.15050 1.03000
v -0.00100 0.15050 1.03000
v 0.04878 0.15950 1.03000
v -0.00100 0.15950 1.03000
v 0.04878 0.15050 1.03400
v -0.00100 0.15050 1.03400
v 0.04878 0.15950 1.03400
v -0.00100 0.15950 1.03400
f 257 258 259
f 259 258 260
f 258 257 261
f 258 261 262
f 259 260 263
f 263 260 264
f 263 264 261
f 261 264 262
f 260 258 264
f 264 258 262
f 257 259 263
f 257 263 261
o Cola_A_33
usemtl cor0
v 0.00100 0.15050 1.03000
v -0.04878 0.15050 1.03000
v 0.00100 0.15950 1.03000
v -0.04878 0.15950 1.03000
v 0.00100 0.15050 1.03400
v -0.04878 0.15050 1.03400
v 0.00100 0.15950 1.03400
v -0.04878 0.15950 1.03400
f 265 266 267
f 267 266 268
f 266 265 269
f 266 269 270
f 267 268 271
f 271 268 272
f 271 272 269
f 269 272 270
f 268 266 272
f 272 266 270
f 265 267 271
f 265 271 269
o Cola_A_34
usemtl cor0
v -0.04678 0.15050 1.03000
v -0.09656 0.15050 1.03000
v -0.04678 0.15950 1.03000
v -0.09656 0.15950 1.03000
v -0.04678 0.15050 1.03400
v -0.09656 0.15050 1.03400
v -0.04678 0.15950 1.03400
v -0.09656 0.15950 1.03400
f 273 274 275
f 275 274 276
f 274 273 277
f 274 277 278
f 275 276 279
f 279 276 280
f 279 280 277
f 277 280 278
f 276 274 280
f 280 274 278
f 273 275 279
f 273 279 277
o Cola_A_35
usemtl cor0
v -0.09456 0.15050 1.03000
v -0.14433 0.15050 1.03000
v -0.09456 0.15950 1.03000
v -0.14433 0.15950 1.03000
v -0.09456 0.15050 1.03400
v -0.14433 0.15050 1.03400
v -0.09456 0.15950 1.03400
v -0.14433 0.15950 1.03400
f 281 282 283
f 283 282 284
f 282 281 285
f 282 285 286
f 283 284 287
f 287 284 288
f 287 288 285
f 285 288 286
f 284 282 288
f 288 282 286
f 281 283 287
f 281 287 285
o Cola_A_36
usemtl cor0
v -0.14233 0.15050 1.03000
v -0.19211 0.15050 1.03000
v -0.14233 0.15950 1.03000
v -0.19211 0.15950 1.03000
v -0.14233 0.15050 1.03400
v -0.19211 0.15050 1.03400
v -0.14233 0.15950 1.03400
v -0.19211 0.15950 1.03400
f 289 290 291
f 291 290 292
f 290 289 293
f 290 293 294
f 291 292 295
f 295 292 296
f 295 296 293
f 293 296 294
f 292 290 296
f 296 290 294
f 289 291 295
f 289 295 293
o Cola_A_37
usemtl cor0
v -0.19011 0.15050 1.03000
v -0.23989 0.15050 1.03000
v -0.19011 0.15950 1.03000
v -0.23989 0.15950 1.03000
v -0.19011 0.15050 1.03400
v -0.23989 0.15050 1.03400
v -0.19011 0.15950 1.03400
v -0.23989 0.15950 1.03400
f 297 298 299
f 299 298 300
f 298 297 301
f 298 301 302
f 299 300 303
f 303 300 304
f 303 304 301
f 301 304 302
f 300 298 304
f 304 298 302
f 297 299 303
f 297 303 301
o Cola_A_38
usemtl cor0
v -0.23789 0.15050 1.03000
v -0.28767 0.15050 1.03000
v -0.23789 0.15950 1.03000
v -0.28767 0.15950 1.03000
v -0.23789 0.15050 1.03400
v -0.28767 0.15050 1.03400
v -0.23789 0.15950 1.03400
v -0.28767 0.15950 1.03400
f 305 306 307
f 307 306 308
f 306 305 309
f 306 309 310
f 307 308 311
f 311 308 312
f 311 312 309
f 309 312 310
f 308 306 312
f 312 306 310
f 305 307 311
f 305 311 309
o Cola_A_39
usemtl cor0
v -0.28567 0.15050 1.03000
v -0.33544 0.15050 1.03000
v -0.28567 0.15950 1.03000
v -0.33544 0.15950 1.03000
v -0.28567 0.15050 1.03400
v -0.33544 0.15050 1.03400
v -0.28567 0.15950 1.03400
v -0.33544 0.15950 1.03400
f 313 314 315
f 315 314 316
f 314 313 317
f 314 317 318
f 315 316 319
f 319 316 320
f 319 320 317
f 317 320 318
f 316 314 320
f 320 314 318
f 313 315 319
f 313 319 317
o Cola_A_40
usemtl cor0
v -0.33344 0.15050 1.03000
v -0.38322 0.15050 1.03000
v -0.33344 0.15950 1.03000
v -0.38322 0.15950 1.03000
v -0.33344 0.15050 1.03400
v -0.38322 0.15050 1.03400
v -0.33344 0.15950 1.03400
v -0.38322 0.15950 1.03400
f 321 322 323
f 323 322 324
f 322 321 325
f 322 325 326
f 323 324 327
f 327 324 328
f 327 328 325
f 325 328 326
f 324 322 328
f 328 322 326
f 321 323 327
f 321 327 325
o Cola_A_41
usemtl cor0
v -0.38122 0.15050 1.03000
v -0.44500 0.15050 1.03000
v -0.38122 0.15950 1.03000
v -0.44500 0.15950 1.03000
v -0.38122 0.15050 1.03400
v -0.44500 0.15050 1.03400
v -0.38122 0.15950 1.03400
v -0.44500 0.15950 1.03400
f 329 330 331
f 331 330 332
f 330 329 333
f 330 333 334
f 331 332 335
f 335 332 336
f 335 336 333
f 333 336 334
f 332 330 336
f 336 330 334
f 329 331 335
f 329 335 333
o Cola_A_42
usemtl cor0
v -0.42550 0.10233 1.03000
v -0.43450 0.10233 1.03000
v -0.42550 0.15600 1.03000
v -0.43450 0.15600 1.03000
v -0.42550 0.10233 1.03400
v -0.43450 0.10233 1.03400
v -0.42550 0.15600 1.03400
v -0.43450 0.15600 1.03400
f 337 338 339
f 339 338 340
f 338 337 341
f 338 341 342
f 339 340 343
f 343 340 344
f 343 344 341
f 341 344 342
f 340 338 344
f 344 338 342
f 337 339 343
f 337 343 341
o Cola_A_43
usemtl cor0
v -0.42550 0.05067 1.03000
v -0.43450 0.05067 1.03000
v -0.42550 0.10433 1.03000
v -0.43450 0.10433 1.03000
v -0.42550 0.05067 1.03400
v -0.43450 0.05067 1.03400
v -0.42550 0.10433 1.03400
v -0.43450 0.10433 1.03400
f 345 346 347
f 347 346 348
f 346 345 349
f 346 349 350
f 347 348 351
f 351 348 352
f 351 352 349
f 349 352 350
f 348 346 352
f 352 346 350
f 345 347 351
f 345 351 349
o Cola_A_44
usemtl cor0
v -0.42550 -0.00100 1.03000
v -0.43450 -0.00100 1.03000
v -0.42550 0.05267 1.03000
v -0.43450 0.05267 1.03000
v -0.42550 -0.00100 1.03400
v -0.43450 -0.00100 1.03400
v -0.42550 0.05267 1.03400
v -0.43450 0.05267 1.03400
f 353 354 355
f 355 354 356
f 354 353 357
f 354 357 358
f 355 356 359
f 359 356 360
f 359 360 357
f 357 360 358
f 356 354 360
f 360 354 358
f 353 355 359
f 353 359 357
o Cola_A_45
usemtl cor0
v -0.42550 -0.05267 1.03000
v -0.43450 -0.05267 1.03000
v -0.42550 0.00100 1.03000
v -0.43450 0.00100 1.03000
v -0.42550 -0.05267 1.03400
v -0.43450 -0.05267 1.03400
v -0.42550 0.00100 1.03400
v -0.43450 0.00100 1.03400
f 361 362 363
f 363 362 364
f 362 361 365
f 362 365 366
f 363 364 367
f 367 364 368
f 367 368 365
f 365 368 366
f 364 362 368
f 368 362 366
f 361 363 367
f 361 367 365
o Cola_A_46
usemtl cor0
v -0.42550 -0.10433 1.03000
v -0.43450 -0.10433 1.03000
v -0.42550 -0.05067 1.03000
v -0.43450 -0.05067 1.03000
v -0.42550 -0.10433 1.03400
v -0.43450 -0.10433 1.03400
v -0.42550 -0.05067 1.03400
v -0.43450 -0.05067 1.03400
f 369 370 371
f 371 370 372
f 370 369 373
f 370 373 374
f 371 372 375
f 375 372 376
f 375 376 373
f 373 376 374
f 372 370 376
f 376 370 374
f 369 371 375
f 369 375 373
o Cola_A_47
usemtl cor0
v -0.42550 -0.17000 1.03000
v -0.43450 -0.17000 1.03000
v -0.42550 -0.10233 1.03000
v -0.43450 -0.10233 1.03000
v -0.42550 -0.17000 1.03400
v -0.43450 -0.17000 1.03400
v -0.42550 -0.10233 1.03400
v -0.43450 -0.10233 1.03400
f 377 378 379
f 379 378 380
f 378 377 381
f 378 381 382
f 379 380 383
f 383 380 384
f 383 384 381
f 381 384 382
f 380 378 384
f 384 378 382
f 377 379 383
f 377 383 381
o Cola_B_00
usemtl cor0
v -0.38122 -0.15950 0.96600
v -0.43100 -0.15950 0.96600
v -0.38122 -0.15050 0.96600
v -0.43100 -0.15050 0.96600
v -0.38122 -0.15950 0.97000
v -0.43100 -0.15950 0.97000
v -0.38122 -0.15050 0.97000
v -0.43100 -0.15050 0.97000
f 385 386 387
f 387 386 388
f 386 385 389
f 386 389 390
f 387 388 391
f 391 388 392
f 391 392 389
f 389 392 390
f 388 386 392
f 392 386 390
f 385 387 391
f 385 391 389
o Cola_B_01
usemtl cor0
v -0.33344 -0.15950 0.96600
v -0.38322 -0.15950 0.96600
v -0.33344 -0.15050 0.96600
v -0.38322 -0.15050 0.96600
v -0.33344 -0.15950 0.97000
v -0.38322 -0.15950 0.97000
v -0.33344 -0.15050 0.97000
v -0.38322 -0.15050 0.97000
f 393 394 395
f 395 394 396
f 394 393 397
f 394 397 398
f 395 396 399
f 399 396 400
f 399 400 397
f 397 400 398
f 396 394 400
f 400 394 398
f 393 395 399
f 393 399 397
o Cola_B_02
usemtl cor0
v -0.28567 -0.15950 0.96600
v -0.33544 -0.15950 0.96600
v -0.28567 -0.15050 0.96600
v -0.33544 -0.15050 0.96600
v -0.28567 -0.15950 0.97000
v -0.33544 -0.15950 0.97000
v -0.28567 -0.15050 0.97000
v -0.33544 -0.15050 0.97000
f 401 402 403
f 403 402 404
f 402 401 405
f 402 405 406
f 403 404 407
f 407 404 408
f 407 408 405
f 405 408 406
f 404 402 408
f 408 402 406
f 401 403 407
f 401 407 405
o Cola_B_03
usemtl cor0
v -0.23789 -0.15950 0.96600
v -0.28767 -0.15950 0.96600
v -0.23789 -0.15050 0.96600
v -0.28767 -0.15050 0.96600
v -0.23789 -0.15950 0.97000
v -0.28767 -0.15950 0.97000
v -0.23789 -0.15050 0.97000
v -0.28767 -0.15050 0.97000
f 409 410 411
f 411 410 412
f 410 409 413
f 410 413 414
f 411 412 415
f 415 412 416
f 415 416 413
f 413 416 414
f 412 410 416
f 416 410 414
f 409 411 415
f 409 415 413
o Cola_B_04
usemtl cor0
v -0.19011 -0.15950 0.96600
v -0.23989 -0.15950 0.96600
v -0.19011 -0.15050 0.96600
v -0.23989 -0.15050 0.96600
v -0.19011 -0.15950 0.97000
v -0.23989 -0.15950 0.97000
v -0.19011 -0.15050 0.97000
v -0.23989 -0.15050 0.97000
f 417 418 419
f 419 418 420
f 418 417 421
f 418 421 422
f 419 420 423
f 423 420 424
f 423 424 421
f 421 424 422
f 420 418 424
f 424 418 422
f 417 419 423
f 417 423 421
o Cola_B_05
usemtl cor0
v -0.14233 -0.15950 0.96600
v -0.19211 -0.15950 0.96600
v -0.14233 -0.15050 0.96600
v -0.19211 -0.15050 0.96600
v -0.14233 -0.15950 0.97000
v -0.19211 -0.15950 0.97000
v -0.14233 -0.15050 0.97000
v -0.19211 -0.15050 0.97000
f 425 426 427
f 427 426 428
f 426 425 429
f 426 429 430
f 427 428 431
f 431 428 432
f 431 432 429
f 429 432 430
f 428 426 432
f 432 426 430
f 425 427 431
f 425 431 429
o Cola_B_06
usemtl cor0
v -0.09456 -0.15950 0.96600
v -0.14433 -0.15950 0.96600
v -0.09456 -0.15050 0.96600
v -0.14433 -0.15050 0.96600
v -0.09456 -0.15950 0.97000
v -0.14433 -0.15950 0.97000
v -0.09456 -0.15050 0.97000
v -0.14433 -0.15050 0.97000
f 433 434 435
f 435 434 436
f 434 433 437
f 434 437 438
f 435 436 439
f 439 436 440
f 439 440 437
f 437 440 438
f 436 434 440
f 440 434 438
f 433 435 439
f 433 439 437
o Cola_B_07
usemtl cor0
v -0.04678 -0.15950 0.96600
v -0.09656 -0.15950 0.96600
v -0.04678 -0.15050 0.96600
v -0.09656 -0.15050 0.96600
v -0.04678 -0.15950 0.97000
v -0.09656 -0.15950 0.97000
v -0.04678 -0.15050 0.97000
v -0.09656 -0.15050 0.97000
f 441 442 443
f 443 442 444
f 442 441 445
f 442 445 446
f 443 444 447
f 447 444 448
f 447 448 445
f 445 448 446
f 444 442 448
f 448 442 446
f 441 443 447
f 441 447 445
o Cola_B_08
usemtl cor0
v 0.00100 -0.15950 0.96600
v -0.04878 -0.15950 0.96600
v 0.00100 -0.15050 0.96600
v -0.04878 -0.15050 0.96600
v 0.00100 -0.15950 0.97000
v -0.04878 -0.15950 0.97000
v 0.00100 -0.15050 0.97000
v -0.04878 -0.15050 0.97000
f 449 450 451
f 451 450 452
f 450 449 453
f 450 453 454
f 451 452 455
f 455 452 456
f 455 456 453
f 453 456 454
f 452 450 456
f 456 450 454
f 449 451 455
f 449 455 453
o Cola_B_09
usemtl cor0
v 0.04878 -0.15950 0.96600
v -0.00100 -0.15950 0.96600
v 0.04878 -0.15050 0.96600
v -0.00100 -0.15050 0.96600
v 0.04878 -0.15950 0.97000
v -0.00100 -0.15950 0.97000
v 0.04878 -0.15050 0.97000
v -0.00100 -0.15050 0.97000
f 457 458 459
f 459 458 460
f 458 457 461
f 458 461 462
f 459 460 463
f 463 460 464
f 463 464 461
f 461 464 462
f 460 458 464
f 464 458 462
f 457 459 463
f 457 463 461
o Cola_B_10
usemtl cor0
v 0.09656 -0.15950 0.96600
v 0.04678 -0.15950 0.96600
v 0.09656 -0.15050 0.96600
v 0.04678 -0.15050 0.96600
v 0.09656 -0.15950 0.97000
v 0.04678 -0.15950 0.97000
v 0.09656 -0.15050 0.97000
v 0.04678 -0.15050 0.97000
f 465 466 467
f 467 466 468
f 466 465 469
f 466 469 470
f 467 468 471
f 471 468 472
f 471 472 469
f 469 472 470
f 468 466 472
f 472 466 470
f 465 467 471
f 465 471 469
o Cola_B_11
usemtl cor0
v 0.14433 -0.15950 0.96600
v 0.09456 -0.15950 0.96600
v 0.14433 -0.15050 0.96600
v 0.09456 -0.15050 0.96600
v 0.14433 -0.15950 0.97000
v 0.09456 -0.15950 0.97000
v 0.14433 -0.15050 0.97000
v 0.09456 -0.15050 0.97000
f 473 474 475
f 475 474 476
f 474 473 477
f 474 477 478
f 475 476 479
f 479 476 480
f 479 480 477
f 477 480 478
f 476 474 480
f 480 474 478
f 473 475 479
f 473 479 477
o Cola_B_12
usemtl cor0
v 0.19211 -0.15950 0.96600
v 0.14233 -0.15950 0.96600
v 0.19211 -0.15050 0.96600
v 0.14233 -0.15050 0.96600
v 0.19211 -0.15950 0.97000
v 0.14233 -0.15950 0.97000
v 0.19211 -0.15050 0.97000
v 0.14233 -0.15050 0.97000
f 481 482 483
f 483 482 484
f 482 481 485
f 482 485 486
f 483 484 487
f 487 484 488
f 487 488 485
f 485 488 486
f 484 482 488
f 488 482 486
f 481 483 487
f 481 487 485
o Cola_B_13
usemtl cor0
v 0.23989 -0.15950 0.96600
v 0.19011 -0.15950 0.96600
v 0.23989 -0.15050 0.96600
v 0.19011 -0.15050 0.96600
v 0.23989 -0.15950 0.97000
v 0.19011 -0.15950 0.97000
v 0.23989 -0.15050 0.97000
v 0.19011 -0.15050 0.97000
f 489 490 491
f 491 490 492
f 490 489 493
f 490 493 494
f 491 492 495
f 495 492 496
f 495 496 493
f 493 496 494
f 492 490 496
f 496 490 494
f 489 491 495
f 489 495 493
o Cola_B_14
usemtl cor0
v 0.28767 -0.15950 0.96600
v 0.23789 -0.15950 0.96600
v 0.28767 -0.15050 0.96600
v 0.23789 -0.15050 0.96600
v 0.28767 -0.15950 0.97000
v 0.23789 -0.15950 0.97000
v 0.28767 -0.15050 0.97000
v 0.23789 -0.15050 0.97000
f 497 498 499
f 499 498 500
f 498 497 501
f 498 501 502
f 499 500 503
f 503 500 504
f 503 504 501
f 501 504 502
f 500 498 504
f 504 498 502
f 497 499 503
f 497 503 501
o Cola_B_15
usemtl cor0
v 0.33544 -0.15950 0.96600
v 0.28567 -0.15950 0.96600
v 0.33544 -0.15050 0.96600
v 0.28567 -0.15050 0.96600
v 0.33544 -0.15950 0.97000
v 0.28567 -0.15950 0.97000
v 0.33544 -0.15050 0.97000
v 0.28567 -0.15050 0.97000
f 505 506 507
f 507 506 508
f 506 505 509
f 506 509 510
f 507 508 511
f 511 508 512
f 511 512 509
f 509 512 510
f 508 506 512
f 512 506 510
f 505 507 511
f 505 511 509
o Cola_B_16
usemtl cor0
v 0.38322 -0.15950 0.96600
v 0.33344 -0.15950 0.96600
v 0.38322 -0.15050 0.96600
v 0.33344 -0.15050 0.96600
v 0.38322 -0.15950 0.97000
v 0.33344 -0.15950 0.97000
v 0.38322 -0.15050 0.97000
v 0.33344 -0.15050 0.97000
f 513 514 515
f 515 514 516
f 514 513 517
f 514 517 518
f 515 516 519
f 519 516 520
f 519 520 517
f 517 520 518
f 516 514 520
f 520 514 518
f 513 515 519
f 513 519 517
o Cola_B_17
usemtl cor0
v 0.44500 -0.15950 0.96600
v 0.38122 -0.15950 0.96600
v 0.44500 -0.15050 0.96600
v 0.38122 -0.15050 0.96600
v 0.44500 -0.15950 0.97000
v 0.38122 -0.15950 0.97000
v 0.44500 -0.15050 0.97000
v 0.38122 -0.15050 0.97000
f 521 522 523
f 523 522 524
f 522 521 525
f 522 525 526
f 523 524 527
f 527 524 528
f 527 528 525
f 525 528 526
f 524 522 528
f 528 522 526
f 521 523 527
f 521 527 525
o Cola_B_18
usemtl cor0
v 0.43450 -0.15600 0.96600
v 0.42550 -0.15600 0.96600
v 0.43450 -0.10233 0.96600
v 0.42550 -0.10233 0.96600
v 0.43450 -0.15600 0.97000
v 0.42550 -0.15600 0.97000
v 0.43450 -0.10233 0.97000
v 0.42550 -0.10233 0.97000
f 529 530 531
f 531 530 532
f 530 529 533
f 530 533 534
f 531 532 535
f 535 532 536
f 535 536 533
f 533 536 534
f 532 530 536
f 536 530 534
f 529 531 535
f 529 535 533
o Cola_B_19
usemtl cor0
v 0.43450 -0.10433 0.96600
v 0.42550 -0.10433 0.96600
v 0.43450 -0.05067 0.96600
v 0.42550 -0.05067 0.96600
v 0.43450 -0.10433 0.97000
v 0.42550 -0.10433 0.97000
v 0.43450 -0.05067 0.97000
v 0.42550 -0.05067 0.97000
f 537 538 539
f 539 538 540
f 538 537 541
f 538 541 542
f 539 540 543
f 543 540 544
f 543 544 541
f 541 544 542
f 540 538 544
f 544 538 542
f 537 539 543
f 537 543 541
o Cola_B_20
usemtl cor0
v 0.43450 -0.05267 0.96600
v 0.42550 -0.05267 0.96600
v 0.43450 0.00100 0.96600
v 0.42550 0.00100 0.96600
v 0.43450 -0.05267 0.97000
v 0.42550 -0.05267 0.97000
v 0.43450 0.00100 0.97000
v 0.42550 0.00100 0.97000
f 545 546 547
f 547 546 548
f 546 545 549
f 546 549 550
f 547 548 551
f 551 548 552
f 551 552 549
f 549 552 550
f 548 546 552
f 552 546 550
f 545 547 551
f 545 551 549
o Cola_B_21
usemtl cor0
v 0.43450 -0.00100 0.96600
v 0.42550 -0.00100 0.96600
v 0.43450 0.05267 0.96600
v 0.42550 0.05267 0.96600
v 0.43450 -0.00100 0.97000
v 0.42550 -0.00100 0.97000
v 0.43450 0.05267 0.97000
v 0.42550 0.05267 0.97000
f 553 554 555
f 555 554 556
f 554 553 557
f 554 557 558
f 555 556 559
f 559 556 560
f 559 560 557
f 557 560 558
f 556 554 560
f 560 554 558
f 553 555 559
f 553 559 557
o Cola_B_22
usemtl cor0
v 0.43450 0.05067 0.96600
v 0.42550 0.05067 0.96600
v 0.43450 0.10433 0.96600
v 0.42550 0.10433 0.96600
v 0.43450 0.05067 0.97000
v 0.42550 0.05067 0.97000
v 0.43450 0.10433 0.97000
v 0.42550 0.10433 0.97000
f 561 562 563
f 563 562 564
f 562 561 565
f 562 565 566
f 563 564 567
f 567 564 568
f 567 568 565
f 565 568 566
f 564 562 568
f 568 562 566
f 561 563 567
f 561 567 565
o Cola_B_23
usemtl cor0
v 0.43450 0.10233 0.96600
v 0.42550 0.10233 0.96600
v 0.43450 0.17000 0.96600
v 0.42550 0.17000 0.96600
v 0.43450 0.10233 0.97000
v 0.42550 0.10233 0.97000
v 0.43450 0.17000 0.97000
v 0.42550 0.17000 0.97000
f 569 570 571
f 571 570 572
f 570 569 573
f 570 573 574
f 571 572 575
f 575 572 576
f 575 576 573
f 573 576 574
f 572 570 576
f 576 570 574
f 569 571 575
f 569 575 573
o Cola_B_24
usemtl cor0
v 0.43100 0.15050 0.96600
v 0.38122 0.15050 0.96600
v 0.43100 0.15950 0.96600
v 0.38122 0.15950 0.96600
v 0.43100 0.15050 0.97000
v 0.38122 0.15050 0.97000
v 0.43100 0.15950 0.97000
v 0.38122 0.15950 0.97000
f 577 578 579
f 579 578 580
f 578 577 581
f 578 581 582
f 579 580 583
f 583 580 584
f 583 584 581
f 581 584 582
f 580 578 584
f 584 578 582
f 577 579 583
f 577 583 581
o Cola_B_25
usemtl cor0
v 0.38322 0.15050 0.96600
v 0.33344 0.15050 0.96600
v 0.38322 0.15950 0.96600
v 0.33344 0.15950 0.96600
v 0.38322 0.15050 0.97000
v 0.33344 0.15050 0.97000
v 0.38322 0.15950 0.97000
v 0.33344 0.15950 0.97000
f 585 586 587
f 587 586 588
f 586 585 589
f 586 589 590
f 587 588 591
f 591 588 592
f 591 592 589
f 589 592 590
f 588 586 592
f 592 586 590
f 585 587 591
f 585 591 589
o Cola_B_26
usemtl cor0
v 0.33544 0.15050 0.96600
v 0.28567 0.15050 0.96600
v 0.33544 0.15950 0.96600
v 0.28567 0.15950 0.96600
v 0.33544 0.15050 0.97000
v 0.28567 0.15050 0.97000
v 0.33544 0.15950 0.97000
v 0.28567 0.15950 0.97000
f 593 594 595
f 595 594 596
f 594 593 597
f 594 597 598
f 595 596 599
f 599 596 600
f 599 600 597
f 597 600 598
f 596 594 600
f 600 594 598
f 593 595 599
f 593 599 597
o Cola_B_27
usemtl cor0
v 0.28767 0.15050 0.96600
v 0.23789 0.15050 0.96600
v 0.28767 0.15950 0.96600
v 0.23789 0.15950 0.96600
v 0.28767 0.15050 0.97000
v 0.23789 0.15050 0.97000
v 0.28767 0.15950 0.97000
v 0.23789 0.15950 0.97000
f 601 602 603
f 603 602 604
f 602 601 605
f 602 605 606
f 603 604 607
f 607 604 608
f 607 608 605
f 605 608 606
f 604 602 608
f 608 602 606
f 601 603 607
f 601 607 605
o Cola_B_28
usemtl cor0
v 0.23989 0.15050 0.96600
v 0.19011 0.15050 0.96600
v 0.23989 0.15950 0.96600
v 0.19011 0.15950 0.96600
v 0.23989 0.15050 0.97000
v 0.19011 0.15050 0.97000
v 0.23989 0.15950 0.97000
v 0.19011 0.15950 0.97000
f 609 610 611
f 611 610 612
f 610 609 613
f 610 613 614
f 611 612 615
f 615 612 616
f 615 616 613
f 613 616 614
f 612 610 616
f 616 610 614
f 609 611 615
f 609 615 613
o Cola_B_29
usemtl cor0
v 0.19211 0.15050 0.96600
v 0.14233 0.15050 0.96600
v 0.19211 0.15950 0.96600
v 0.14233 0.15950 0.96600
v 0.19211 0.15050 0.97000
v 0.14233 0.15050 0.97000
v 0.19211 0.15950 0.97000
v 0.14233 0.15950 0.97000
f 617 618 619
f 619 618 620
f 618 617 621
f 618 621 622
f 619 620 623
f 623 620 624
f 623 624 621
f 621 624 622
f 620 618 624
f 624 618 622
f 617 619 623
f 617 623 621
o Cola_B_30
usemtl cor0
v 0.14433 0.15050 0.96600
v 0.09456 0.15050 0.96600
v 0.14433 0.15950 0.96600
v 0.09456 0.15950 0.96600
v 0.14433 0.15050 0.97000
v 0.09456 0.15050 0.97000
v 0.14433 0.15950 0.97000
v 0.09456 0.15950 0.97000
f 625 626 627
f 627 626 628
f 626 625 629
f 626 629 630
f 627 628 631
f 631 628 632
f 631 632 629
f 629 632 630
f 628 626 632
f 632 626 630
f 625 627 631
f 625 631 629
o Cola_B_31
usemtl cor0
v 0.09656 0.15050 0.96600
v 0.04678 0.15050 0.96600
v 0.09656 0.15950 0.96600
v 0.04678 0.15950 0.96600
v 0.09656 0.15050 0.97000
v 0.04678 0.15050 0.97000
v 0.09656 0.15950 0.97000
v 0.04678 0.15950 0.97000
f 633 634 635
f 635 634 636
f 634 633 637
f 634 637 638
f 635 636 639
f 639 636 640
f 639 640 637
f 637 640 638
f 636 634 640
f 640 634 638
f 633 635 639
f 633 639 637
o Cola_B_32
usemtl cor0
v 0.04878 0.15050 0.96600
v -0.00100 0.15050 0.96600
v 0.04878 0.15950 0.96600
v -0.00100 0.15950 0.96600
v 0.04878 0.15050 0.97000
v -0.00100 0.15050 0.97000
v 0.04878 0.15950 0.97000
v -0.00100 0.15950 0.97000
f 641 642 643
f 643 642 644
f 642 641 645
f 642 645 646
f 643 644 647
f 647 644 648
f 647 648 645
f 645 648 646
f 644 642 648
f 648 642 646
f 641 643 647
f 641 647 645
o Cola_B_33
usemtl cor0
v 0.00100 0.15050 0.96600
v -0.04878 0.15050 0.96600
v 0.00100 0.15950 0.96600
v -0.04878 0.15950 0.96600
v 0.00100 0.15050 0.97000
v -0.04878 0.15050 0.97000
v 0.00100 0.15950 0.97000
v -0.04878 0.15950 0.97000
f 649 650 651
f 651 650 652
f 650 649 653
f 650 653 654
f 651 652 655
f 655 652 656
f 655 656 653
f 653 656 654
f 652 650 656
f 656 650 654
f 649 651 655
f 649 655 653
o Cola_B_34
usemtl cor0
v -0.04678 0.15050 0.96600
v -0.09656 0.15050 0.96600
v -0.04678 0.15950 0.96600
v -0.09656 0.15950 0.96600
v -0.04678 0.15050 0.97000
v -0.09656 0.15050 0.97000
v -0.04678 0.15950 0.97000
v -0.09656 0.15950 0.97000
f 657 658 659
f 659 658 660
f 658 657 661
f 658 661 662
f 659 660 663
f 663 660 664
f 663 664 661
f 661 664 662
f 660 658 664
f 664 658 662
f 657 659 663
f 657 663 661
o Cola_B_35
usemtl cor0
v -0.09456 0.15050 0.96600
v -0.14433 0.15050 0.96600
v -0.09456 0.15950 0.96600
v -0.14433 0.15950 0.96600
v -0.09456 0.15050 0.97000
v -0.14433 0.15050 0.97000
v -0.09456 0.15950 0.97000
v -0.14433 0.15950 0.97000
f 665 666 667
f 667 666 668
f 666 665 669
f 666 669 670
f 667 668 671
f 671 668 672
f 671 672 669
f 669 672 670
f 668 666 672
f 672 666 670
f 665 667 671
f 665 671 669
o Cola_B_36
usemtl cor0
v -0.14233 0.15050 0.96600
v -0.19211 0.15050 0.96600
v -0.14233 0.15950 0.96600
v -0.19211 0.15950 0.96600
v -0.14233 0.15050 0.97000
v -0.19211 0.15050 0.97000
v -0.14233 0.15950 0.97000
v -0.19211 0.15950 0.97000
f 673 674 675
f 675 674 676
f 674 673 677
f 674 677 678
f 675 676 679
f 679 676 680
f 679 680 677
f 677 680 678
f 676 674 680
f 680 674 678
f 673 675 679
f 673 679 677
o Cola_B_37
usemtl cor0
v -0.19011 0.15050 0.96600
v -0.23989 0.15050 0.96600
v -0.19011 0.15950 0.96600
v -0.23989 0.15950 0.96600
v -0.19011 0.15050 0.97000
v -0.23989 0.15050 0.97000
v -0.19011 0.15950 0.97000
v -0.23989 0.15950 0.97000
f 681 682 683
f 683 682 684
f 682 681 685
f 682 685 686
f 683 684 687
f 687 684 688
f 687 688 685
f 685 688 686
f 684 682 688
f 688 682 686
f 681 683 687
f 681 687 685
o Cola_B_38
usemtl cor0
v -0.23789 0.15050 0.96600
v -0.28767 0.15050 0.96600
v -0.23789 0.15950 0.96600
v -0.28767 0.15950 0.96600
v -0.23789 0.15050 0.97000
v -0.28767 0.15050 0.97000
v -0.23789 0.15950 0.97000
v -0.28767 0.15950 0.97000
f 689 690 691
f 691 690 692
f 690 689 693
f 690 693 694
f 691 692 695
f 695 692 696
f 695 696 693
f 693 696 694
f 692 690 696
f 696 690 694
f 689 691 695
f 689 695 693
o Cola_B_39
usemtl cor0
v -0.28567 0.15050 0.96600
v -0.33544 0.15050 0.96600
v -0.28567 0.15950 0.96600
v -0.33544 0.15950 0.96600
v -0.28567 0.15050 0.97000
v -0.33544 0.15050 0.97000
v -0.28567 0.15950 0.97000
v -0.33544 0.15950 0.97000
f 697 698 699
f 699 698 700
f 698 697 701
f 698 701 702
f 699 700 703
f 703 700 704
f 703 704 701
f 701 704 702
f 700 698 704
f 704 698 702
f 697 699 703
f 697 703 701
o Cola_B_40
usemtl cor0
v -0.33344 0.15050 0.96600
v -0.38322 0.15050 0.96600
v -0.33344 0.15950 0.96600
v -0.38322 0.15950 0.96600
v -0.33344 0.15050 0.97000
v -0.38322 0.15050 0.97000
v -0.33344 0.15950 0.97000
v -0.38322 0.15950 0.97000
f 705 706 707
f 707 706 708
f 706 705 709
f 706 709 710
f 707 708 711
f 711 708 712
f 711 712 709
f 709 712 710
f 708 706 712
f 712 706 710
f 705 707 711
f 705 711 709
o Cola_B_41
usemtl cor0
v -0.38122 0.15050 0.96600
v -0.44500 0.15050 0.96600
v -0.38122 0.15950 0.96600
v -0.44500 0.15950 0.96600
v -0.38122 0.15050 0.97000
v -0.44500 0.15050 0.97000
v -0.38122 0.15950 0.97000
v -0.44500 0.15950 0.97000
f 713 714 715
f 715 714 716
f 714 713 717
f 714 717 718
f 715 716 719
f 719 716 720
f 719 720 717
f 717 720 718
f 716 714 720
f 720 714 718
f 713 715 719
f 713 719 717
o Cola_B_42
usemtl cor0
v -0.42550 0.10233 0.96600
v -0.43450 0.10233 0.96600
v -0.42550 0.15600 0.96600
v -0.43450 0.15600 0.96600
v -0.42550 0.10233 0.97000
v -0.43450 0.10233 0.97000
v -0.42550 0.15600 0.97000
v -0.43450 0.15600 0.97000
f 721 722 723
f 723 722 724
f 722 721 725
f 722 725 726
f 723 724 727
f 727 724 728
f 727 728 725
f 725 728 726
f 724 722 728
f 728 722 726
f 721 723 727
f 721 727 725
o Cola_B_43
usemtl cor0
v -0.42550 0.05067 0.96600
v -0.43450 0.05067 0.96600
v -0.42550 0.10433 0.96600
v -0.43450 0.10433 0.96600
v -0.42550 0.05067 0.97000
v -0.43450 0.05067 0.97000
v -0.42550 0.10433 0.97000
v -0.43450 0.10433 0.97000
f 729 730 731
f 731 730 732
f 730 729 733
f 730 733 734
f 731 732 735
f 735 732 736
f 735 736 733
f 733 736 734
f 732 730 736
f 736 730 734
f 729 731 735
f 729 735 733
o Cola_B_44
usemtl cor0
v -0.42550 -0.00100 0.96600
v -0.43450 -0.00100 0.96600
v -0.42550 0.05267 0.96600
v -0.43450 0.05267 0.96600
v -0.42550 -0.00100 0.97000
v -0.43450 -0.00100 0.97000
v -0.42550 0.05267 0.97000
v -0.43450 0.05267 0.97000
f 737 738 739
f 739 738 740
f 738 737 741
f 738 741 742
f 739 740 743
f 743 740 744
f 743 744 741
f 741 744 742
f 740 738 744
f 744 738 742
f 737 739 743
f 737 743 741
o Cola_B_45
usemtl cor0
v -0.42550 -0.05267 0.96600
v -0.43450 -0.05267 0.96600
v -0.42550 0.00100 0.96600
v -0.43450 0.00100 0.96600
v -0.42550 -0.05267 0.97000
v -0.43450 -0.05267 0.97000
v -0.42550 0.00100 0.97000
v -0.43450 0.00100 0.97000
f 745 746 747
f 747 746 748
f 746 745 749
f 746 749 750
f 747 748 751
f 751 748 752
f 751 752 749
f 749 752 750
f 748 746 752
f 752 746 750
f 745 747 751
f 745 751 749
o Cola_B_46
usemtl cor0
v -0.42550 -0.10433 0.96600
v -0.43450 -0.10433 0.96600
v -0.42550 -0.05067 0.96600
v -0.43450 -0.05067 0.96600
v -0.42550 -0.10433 0.97000
v -0.43450 -0.10433 0.97000
v -0.42550 -0.05067 0.97000
v -0.43450 -0.05067 0.97000
f 753 754 755
f 755 754 756
f 754 753 757
f 754 757 758
f 755 756 759
f 759 756 760
f 759 760 757
f 757 760 758
f 756 754 760
f 760 754 758
f 753 755 759
f 753 759 757
o Cola_B_47
usemtl cor0
v -0.42550 -0.17000 0.96600
v -0.43450 -0.17000 0.96600
v -0.42550 -0.10233 0.96600
v -0.43450 -0.10233 0.96600
v -0.42550 -0.17000 0.97000
v -0.43450 -0.17000 0.97000
v -0.42550 -0.10233 0.97000
v -0.43450 -0.10233 0.97000
f 761 762 763
f 763 762 764
f 762 761 765
f 762 765 766
f 763 764 767
f 767 764 768
f 767 768 765
f 765 768 766
f 764 762 768
f 768 762 766
f 761 763 767
f 761 767 765
