# CP05 - 08_ferramenta_tupia (metros, Z para cima)
mtllib 08_ferramenta_tupia.mtl
o Fresa_Acoplamento
usemtl cor0
v -0.00000 0.00000 0.06000
v 0.04500 0.00000 0.06000
v 0.04414 0.00878 0.06000
v 0.04500 0.00000 0.03000
v -0.00000 0.00000 0.03000
v 0.04414 0.00878 0.03000
v 0.04157 0.01722 0.06000
v 0.04157 0.01722 0.03000
v 0.03742 0.02500 0.06000
v 0.03742 0.02500 0.03000
v 0.03182 0.03182 0.06000
v 0.03182 0.03182 0.03000
v 0.02500 0.03742 0.06000
v 0.02500 0.03742 0.03000
v 0.01722 0.04157 0.06000
v 0.01722 0.04157 0.03000
v 0.00878 0.04414 0.06000
v 0.00878 0.04414 0.03000
v -0.00000 0.04500 0.06000
v -0.00000 0.04500 0.03000
v -0.00878 0.04414 0.06000
v -0.00878 0.04414 0.03000
v -0.01722 0.04157 0.06000
v -0.01722 0.04157 0.03000
v -0.02500 0.03742 0.06000
v -0.02500 0.03742 0.03000
v -0.03182 0.03182 0.06000
v -0.03182 0.03182 0.03000
v -0.03742 0.02500 0.06000
v -0.03742 0.02500 0.03000
v -0.04157 0.01722 0.06000
v -0.04157 0.01722 0.03000
v -0.04414 0.00878 0.06000
v -0.04414 0.00878 0.03000
v -0.04500 -0.00000 0.06000
v -0.04500 -0.00000 0.03000
v -0.04414 -0.00878 0.06000
v -0.04414 -0.00878 0.03000
v -0.04157 -0.01722 0.06000
v -0.04157 -0.01722 0.03000
v -0.03742 -0.02500 0.06000
v -0.03742 -0.02500 0.03000
v -0.03182 -0.03182 0.06000
v -0.03182 -0.03182 0.03000
v -0.02500 -0.03742 0.06000
v -0.02500 -0.03742 0.03000
v -0.01722 -0.04157 0.06000
v -0.01722 -0.04157 0.03000
v -0.00878 -0.04414 0.06000
v -0.00878 -0.04414 0.03000
v 0.00000 -0.04500 0.06000
v 0.00000 -0.04500 0.03000
v 0.00878 -0.04414 0.06000
v 0.00878 -0.04414 0.03000
v 0.01722 -0.04157 0.06000
v 0.01722 -0.04157 0.03000
v 0.02500 -0.03742 0.06000
v 0.02500 -0.03742 0.03000
v 0.03182 -0.03182 0.06000
v 0.03182 -0.03182 0.03000
v 0.03742 -0.02500 0.06000
v 0.03742 -0.02500 0.03000
v 0.04157 -0.01722 0.06000
v 0.04157 -0.01722 0.03000
v 0.04414 -0.00878 0.06000
v 0.04414 -0.00878 0.03000
f 1 2 3
f 4 5 6
f 2 4 3
f 4 6 3
f 1 3 7
f 6 5 8
f 3 6 7
f 6 8 7
f 1 7 9
f 8 5 10
f 7 8 9
f 8 10 9
f 1 9 11
f 10 5 12
f 9 10 11
f 10 12 11
f 1 11 13
f 12 5 14
f 11 12 13
f 12 14 13
f 1 13 15
f 14 5 16
f 13 14 15
f 14 16 15
f 1 15 17
f 16 5 18
f 15 16 17
f 16 18 17
f 1 17 19
f 18 5 20
f 17 18 19
f 18 20 19
f 1 19 21
f 20 5 22
f 19 20 21
f 20 22 21
f 1 21 23
f 22 5 24
f 21 22 23
f 22 24 23
f 1 23 25
f 24 5 26
f 23 24 25
f 24 26 25
f 1 25 27
f 26 5 28
f 25 26 27
f 26 28 27
f 1 27 29
f 28 5 30
f 27 28 29
f 28 30 29
f 1 29 31
f 30 5 32
f 29 30 31
f 30 32 31
f 1 31 33
f 32 5 34
f 31 32 33
f 32 34 33
f 1 33 35
f 34 5 36
f 33 34 35
f 34 36 35
f 1 35 37
f 36 5 38
f 35 36 37
f 36 38 37
f 1 37 39
f 38 5 40
f 37 38 39
f 38 40 39
f 1 39 41
f 40 5 42
f 39 40 41
f 40 42 41
f 1 41 43
f 42 5 44
f 41 42 43
f 42 44 43
f 1 43 45
f 44 5 46
f 43 44 45
f 44 46 45
f 1 45 47
f 46 5 48
f 45 46 47
f 46 48 47
f 1 47 49
f 48 5 50
f 47 48 49
f 48 50 49
f 1 49 51
f 50 5 52
f 49 50 51
f 50 52 51
f 1 51 53
f 52 5 54
f 51 52 53
f 52 54 53
f 1 53 55
f 54 5 56
f 53 54 55
f 54 56 55
f 1 55 57
f 56 5 58
f 55 56 57
f 56 58 57
f 1 57 59
f 58 5 60
f 57 58 59
f 58 60 59
f 1 59 61
f 60 5 62
f 59 60 61
f 60 62 61
f 1 61 63
f 62 5 64
f 61 62 63
f 62 64 63
f 1 63 65
f 64 5 66
f 63 64 65
f 64 66 65
f 1 65 2
f 66 5 4
f 65 66 2
f 66 4 2
o Fresa_Flutuador
usemtl cor1
v -0.00000 -0.00000 0.09500
v 0.05000 -0.00000 0.09500
v 0.04904 0.00975 0.09500
v 0.05000 -0.00000 0.05500
v -0.00000 -0.00000 0.05500
v 0.04904 0.00975 0.05500
v 0.04619 0.01913 0.09500
v 0.04619 0.01913 0.05500
v 0.04157 0.02778 0.09500
v 0.04157 0.02778 0.05500
v 0.03536 0.03536 0.09500
v 0.03536 0.03536 0.05500
v 0.02778 0.04157 0.09500
v 0.02778 0.04157 0.05500
v 0.01913 0.04619 0.09500
v 0.01913 0.04619 0.05500
v 0.00975 0.04904 0.09500
v 0.00975 0.04904 0.05500
v -0.00000 0.05000 0.09500
v -0.00000 0.05000 0.05500
v -0.00975 0.04904 0.09500
v -0.00975 0.04904 0.05500
v -0.01913 0.04619 0.09500
v -0.01913 0.04619 0.05500
v -0.02778 0.04157 0.09500
v -0.02778 0.04157 0.05500
v -0.03536 0.03536 0.09500
v -0.03536 0.03536 0.05500
v -0.04157 0.02778 0.09500
v -0.04157 0.02778 0.05500
v -0.04619 0.01913 0.09500
v -0.04619 0.01913 0.05500
v -0.04904 0.00975 0.09500
v -0.04904 0.00975 0.05500
v -0.05000 -0.00000 0.09500
v -0.05000 -0.00000 0.05500
v -0.04904 -0.00975 0.09500
v -0.04904 -0.00975 0.05500
v -0.04619 -0.01913 0.09500
v -0.04619 -0.01913 0.05500
v -0.04157 -0.02778 0.09500
v -0.04157 -0.02778 0.05500
v -0.03536 -0.03536 0.09500
v -0.03536 -0.03536 0.05500
v -0.02778 -0.04157 0.09500
v -0.02778 -0.04157 0.05500
v -0.01913 -0.04619 0.09500
v -0.01913 -0.04619 0.05500
v -0.00975 -0.04904 0.09500
v -0.00975 -0.04904 0.05500
v 0.00000 -0.05000 0.09500
v 0.00000 -0.05000 0.05500
v 0.00975 -0.04904 0.09500
v 0.00975 -0.04904 0.05500
v 0.01913 -0.04619 0.09500
v 0.01913 -0.04619 0.05500
v 0.02778 -0.04157 0.09500
v 0.02778 -0.04157 0.05500
v 0.03536 -0.03536 0.09500
v 0.03536 -0.03536 0.05500
v 0.04157 -0.02778 0.09500
v 0.04157 -0.02778 0.05500
v 0.04619 -0.01913 0.09500
v 0.04619 -0.01913 0.05500
v 0.04904 -0.00975 0.09500
v 0.04904 -0.00975 0.05500
f 67 68 69
f 70 71 72
f 68 70 69
f 70 72 69
f 67 69 73
f 72 71 74
f 69 72 73
f 72 74 73
f 67 73 75
f 74 71 76
f 73 74 75
f 74 76 75
f 67 75 77
f 76 71 78
f 75 76 77
f 76 78 77
f 67 77 79
f 78 71 80
f 77 78 79
f 78 80 79
f 67 79 81
f 80 71 82
f 79 80 81
f 80 82 81
f 67 81 83
f 82 71 84
f 81 82 83
f 82 84 83
f 67 83 85
f 84 71 86
f 83 84 85
f 84 86 85
f 67 85 87
f 86 71 88
f 85 86 87
f 86 88 87
f 67 87 89
f 88 71 90
f 87 88 89
f 88 90 89
f 67 89 91
f 90 71 92
f 89 90 91
f 90 92 91
f 67 91 93
f 92 71 94
f 91 92 93
f 92 94 93
f 67 93 95
f 94 71 96
f 93 94 95
f 94 96 95
f 67 95 97
f 96 71 98
f 95 96 97
f 96 98 97
f 67 97 99
f 98 71 100
f 97 98 99
f 98 100 99
f 67 99 101
f 100 71 102
f 99 100 101
f 100 102 101
f 67 101 103
f 102 71 104
f 101 102 103
f 102 104 103
f 67 103 105
f 104 71 106
f 103 104 105
f 104 106 105
f 67 105 107
f 106 71 108
f 105 106 107
f 106 108 107
f 67 107 109
f 108 71 110
f 107 108 109
f 108 110 109
f 67 109 111
f 110 71 112
f 109 110 111
f 110 112 111
f 67 111 113
f 112 71 114
f 111 112 113
f 112 114 113
f 67 113 115
f 114 71 116
f 113 114 115
f 114 116 115
f 67 115 117
f 116 71 118
f 115 116 117
f 116 118 117
f 67 117 119
f 118 71 120
f 117 118 119
f 118 120 119
f 67 119 121
f 120 71 122
f 119 120 121
f 120 122 121
f 67 121 123
f 122 71 124
f 121 122 123
f 122 124 123
f 67 123 125
f 124 71 126
f 123 124 125
f 124 126 125
f 67 125 127
f 126 71 128
f 125 126 127
f 126 128 127
f 67 127 129
f 128 71 130
f 127 128 129
f 128 130 129
f 67 129 131
f 130 71 132
f 129 130 131
f 130 132 131
f 67 131 68
f 132 71 70
f 131 132 68
f 132 70 68
o Fresa_Spindle
usemtl cor0
v -0.00000 0.00000 0.19000
v 0.04000 0.00000 0.19000
v 0.03923 0.00780 0.19000
v 0.04000 0.00000 0.09000
v -0.00000 0.00000 0.09000
v 0.03923 0.00780 0.09000
v 0.03696 0.01531 0.19000
v 0.03696 0.01531 0.09000
v 0.03326 0.02222 0.19000
v 0.03326 0.02222 0.09000
v 0.02828 0.02828 0.19000
v 0.02828 0.02828 0.09000
v 0.02222 0.03326 0.19000
v 0.02222 0.03326 0.09000
v 0.01531 0.03696 0.19000
v 0.01531 0.03696 0.09000
v 0.00780 0.03923 0.19000
v 0.00780 0.03923 0.09000
v -0.00000 0.04000 0.19000
v -0.00000 0.04000 0.09000
v -0.00780 0.03923 0.19000
v -0.00780 0.03923 0.09000
v -0.01531 0.03696 0.19000
v -0.01531 0.03696 0.09000
v -0.02222 0.03326 0.19000
v -0.02222 0.03326 0.09000
v -0.02828 0.02828 0.19000
v -0.02828 0.02828 0.09000
v -0.03326 0.02222 0.19000
v -0.03326 0.02222 0.09000
v -0.03696 0.01531 0.19000
v -0.03696 0.01531 0.09000
v -0.03923 0.00780 0.19000
v -0.03923 0.00780 0.09000
v -0.04000 -0.00000 0.19000
v -0.04000 -0.00000 0.09000
v -0.03923 -0.00780 0.19000
v -0.03923 -0.00780 0.09000
v -0.03696 -0.01531 0.19000
v -0.03696 -0.01531 0.09000
v -0.03326 -0.02222 0.19000
v -0.03326 -0.02222 0.09000
v -0.02828 -0.02828 0.19000
v -0.02828 -0.02828 0.09000
v -0.02222 -0.03326 0.19000
v -0.02222 -0.03326 0.09000
v -0.01531 -0.03696 0.19000
v -0.01531 -0.03696 0.09000
v -0.00780 -0.03923 0.19000
v -0.00780 -0.03923 0.09000
v 0.00000 -0.04000 0.19000
v 0.00000 -0.04000 0.09000
v 0.00780 -0.03923 0.19000
v 0.00780 -0.03923 0.09000
v 0.01531 -0.03696 0.19000
v 0.01531 -0.03696 0.09000
v 0.02222 -0.03326 0.19000
v 0.02222 -0.03326 0.09000
v 0.02828 -0.02828 0.19000
v 0.02828 -0.02828 0.09000
v 0.03326 -0.02222 0.19000
v 0.03326 -0.02222 0.09000
v 0.03696 -0.01531 0.19000
v 0.03696 -0.01531 0.09000
v 0.03923 -0.00780 0.19000
v 0.03923 -0.00780 0.09000
f 133 134 135
f 136 137 138
f 134 136 135
f 136 138 135
f 133 135 139
f 138 137 140
f 135 138 139
f 138 140 139
f 133 139 141
f 140 137 142
f 139 140 141
f 140 142 141
f 133 141 143
f 142 137 144
f 141 142 143
f 142 144 143
f 133 143 145
f 144 137 146
f 143 144 145
f 144 146 145
f 133 145 147
f 146 137 148
f 145 146 147
f 146 148 147
f 133 147 149
f 148 137 150
f 147 148 149
f 148 150 149
f 133 149 151
f 150 137 152
f 149 150 151
f 150 152 151
f 133 151 153
f 152 137 154
f 151 152 153
f 152 154 153
f 133 153 155
f 154 137 156
f 153 154 155
f 154 156 155
f 133 155 157
f 156 137 158
f 155 156 157
f 156 158 157
f 133 157 159
f 158 137 160
f 157 158 159
f 158 160 159
f 133 159 161
f 160 137 162
f 159 160 161
f 160 162 161
f 133 161 163
f 162 137 164
f 161 162 163
f 162 164 163
f 133 163 165
f 164 137 166
f 163 164 165
f 164 166 165
f 133 165 167
f 166 137 168
f 165 166 167
f 166 168 167
f 133 167 169
f 168 137 170
f 167 168 169
f 168 170 169
f 133 169 171
f 170 137 172
f 169 170 171
f 170 172 171
f 133 171 173
f 172 137 174
f 171 172 173
f 172 174 173
f 133 173 175
f 174 137 176
f 173 174 175
f 174 176 175
f 133 175 177
f 176 137 178
f 175 176 177
f 176 178 177
f 133 177 179
f 178 137 180
f 177 178 179
f 178 180 179
f 133 179 181
f 180 137 182
f 179 180 181
f 180 182 181
f 133 181 183
f 182 137 184
f 181 182 183
f 182 184 183
f 133 183 185
f 184 137 186
f 183 184 185
f 184 186 185
f 133 185 187
f 186 137 188
f 185 186 187
f 186 188 187
f 133 187 189
f 188 137 190
f 187 188 189
f 188 190 189
f 133 189 191
f 190 137 192
f 189 190 191
f 190 192 191
f 133 191 193
f 192 137 194
f 191 192 193
f 192 194 193
f 133 193 195
f 194 137 196
f 193 194 195
f 194 196 195
f 133 195 197
f 196 137 198
f 195 196 197
f 196 198 197
f 133 197 134
f 198 137 136
f 197 198 134
f 198 136 134
o Fresa_Broca
usemtl cor2
v -0.00000 -0.00000 0.22250
v 0.00800 -0.00000 0.22250
v 0.00785 0.00156 0.22250
v 0.00800 -0.00000 0.18750
v -0.00000 -0.00000 0.18750
v 0.00785 0.00156 0.18750
v 0.00739 0.00306 0.22250
v 0.00739 0.00306 0.18750
v 0.00665 0.00444 0.22250
v 0.00665 0.00444 0.18750
v 0.00566 0.00566 0.22250
v 0.00566 0.00566 0.18750
v 0.00444 0.00665 0.22250
v 0.00444 0.00665 0.18750
v 0.00306 0.00739 0.22250
v 0.00306 0.00739 0.18750
v 0.00156 0.00785 0.22250
v 0.00156 0.00785 0.18750
v -0.00000 0.00800 0.22250
v -0.00000 0.00800 0.18750
v -0.00156 0.00785 0.22250
v -0.00156 0.00785 0.18750
v -0.00306 0.00739 0.22250
v -0.00306 0.00739 0.18750
v -0.00444 0.00665 0.22250
v -0.00444 0.00665 0.18750
v -0.00566 0.00566 0.22250
v -0.00566 0.00566 0.18750
v -0.00665 0.00444 0.22250
v -0.00665 0.00444 0.18750
v -0.00739 0.00306 0.22250
v -0.00739 0.00306 0.18750
v -0.00785 0.00156 0.22250
v -0.00785 0.00156 0.18750
v -0.00800 -0.00000 0.22250
v -0.00800 -0.00000 0.18750
v -0.00785 -0.00156 0.22250
v -0.00785 -0.00156 0.18750
v -0.00739 -0.00306 0.22250
v -0.00739 -0.00306 0.18750
v -0.00665 -0.00444 0.22250
v -0.00665 -0.00444 0.18750
v -0.00566 -0.00566 0.22250
v -0.00566 -0.00566 0.18750
v -0.00444 -0.00665 0.22250
v -0.00444 -0.00665 0.18750
v -0.00306 -0.00739 0.22250
v -0.00306 -0.00739 0.18750
v -0.00156 -0.00785 0.22250
v -0.00156 -0.00785 0.18750
v 0.00000 -0.00800 0.22250
v 0.00000 -0.00800 0.18750
v 0.00156 -0.00785 0.22250
v 0.00156 -0.00785 0.18750
v 0.00306 -0.00739 0.22250
v 0.00306 -0.00739 0.18750
v 0.00444 -0.00665 0.22250
v 0.00444 -0.00665 0.18750
v 0.00566 -0.00566 0.22250
v 0.00566 -0.00566 0.18750
v 0.00665 -0.00444 0.22250
v 0.00665 -0.00444 0.18750
v 0.00739 -0.00306 0.22250
v 0.00739 -0.00306 0.18750
v 0.00785 -0.00156 0.22250
v 0.00785 -0.00156 0.18750
f 199 200 201
f 202 203 204
f 200 202 201
f 202 204 201
f 199 201 205
f 204 203 206
f 201 204 205
f 204 206 205
f 199 205 207
f 206 203 208
f 205 206 207
f 206 208 207
f 199 207 209
f 208 203 210
f 207 208 209
f 208 210 209
f 199 209 211
f 210 203 212
f 209 210 211
f 210 212 211
f 199 211 213
f 212 203 214
f 211 212 213
f 212 214 213
f 199 213 215
f 214 203 216
f 213 214 215
f 214 216 215
f 199 215 217
f 216 203 218
f 215 216 217
f 216 218 217
f 199 217 219
f 218 203 220
f 217 218 219
f 218 220 219
f 199 219 221
f 220 203 222
f 219 220 221
f 220 222 221
f 199 221 223
f 222 203 224
f 221 222 223
f 222 224 223
f 199 223 225
f 224 203 226
f 223 224 225
f 224 226 225
f 199 225 227
f 226 203 228
f 225 226 227
f 226 228 227
f 199 227 229
f 228 203 230
f 227 228 229
f 228 230 229
f 199 229 231
f 230 203 232
f 229 230 231
f 230 232 231
f 199 231 233
f 232 203 234
f 231 232 233
f 232 234 233
f 199 233 235
f 234 203 236
f 233 234 235
f 234 236 235
f 199 235 237
f 236 203 238
f 235 236 237
f 236 238 237
f 199 237 239
f 238 203 240
f 237 238 239
f 238 240 239
f 199 239 241
f 240 203 242
f 239 240 241
f 240 242 241
f 199 241 243
f 242 203 244
f 241 242 243
f 242 244 243
f 199 243 245
f 244 203 246
f 243 244 245
f 244 246 245
f 199 245 247
f 246 203 248
f 245 246 247
f 246 248 247
f 199 247 249
f 248 203 250
f 247 248 249
f 248 250 249
f 199 249 251
f 250 203 252
f 249 250 251
f 250 252 251
f 199 251 253
f 252 203 254
f 251 252 253
f 252 254 253
f 199 253 255
f 254 203 256
f 253 254 255
f 254 256 255
f 199 255 257
f 256 203 258
f 255 256 257
f 256 258 257
f 199 257 259
f 258 203 260
f 257 258 259
f 258 260 259
f 199 259 261
f 260 203 262
f 259 260 261
f 260 262 261
f 199 261 263
f 262 203 264
f 261 262 263
f 262 264 263
f 199 263 200
f 264 203 202
f 263 264 200
f 264 202 200
o Fresa_Mangueira_Ar
usemtl cor3
v 0.04500 -0.00000 0.16000
v 0.05300 -0.00000 0.16000
v 0.05285 0.00156 0.16000
v 0.05300 -0.00000 0.08000
v 0.04500 -0.00000 0.08000
v 0.05285 0.00156 0.08000
v 0.05239 0.00306 0.16000
v 0.05239 0.00306 0.08000
v 0.05165 0.00444 0.16000
v 0.05165 0.00444 0.08000
v 0.05066 0.00566 0.16000
v 0.05066 0.00566 0.08000
v 0.04944 0.00665 0.16000
v 0.04944 0.00665 0.08000
v 0.04806 0.00739 0.16000
v 0.04806 0.00739 0.08000
v 0.04656 0.00785 0.16000
v 0.04656 0.00785 0.08000
v 0.04500 0.00800 0.16000
v 0.04500 0.00800 0.08000
v 0.04344 0.00785 0.16000
v 0.04344 0.00785 0.08000
v 0.04194 0.00739 0.16000
v 0.04194 0.00739 0.08000
v 0.04056 0.00665 0.16000
v 0.04056 0.00665 0.08000
v 0.03934 0.00566 0.16000
v 0.03934 0.00566 0.08000
v 0.03835 0.00444 0.16000
v 0.03835 0.00444 0.08000
v 0.03761 0.00306 0.16000
v 0.03761 0.00306 0.08000
v 0.03715 0.00156 0.16000
v 0.03715 0.00156 0.08000
v 0.03700 -0.00000 0.16000
v 0.03700 -0.00000 0.08000
v 0.03715 -0.00156 0.16000
v 0.03715 -0.00156 0.08000
v 0.03761 -0.00306 0.16000
v 0.03761 -0.00306 0.08000
v 0.03835 -0.00444 0.16000
v 0.03835 -0.00444 0.08000
v 0.03934 -0.00566 0.16000
v 0.03934 -0.00566 0.08000
v 0.04056 -0.00665 0.16000
v 0.04056 -0.00665 0.08000
v 0.04194 -0.00739 0.16000
v 0.04194 -0.00739 0.08000
v 0.04344 -0.00785 0.16000
v 0.04344 -0.00785 0.08000
v 0.04500 -0.00800 0.16000
v 0.04500 -0.00800 0.08000
v 0.04656 -0.00785 0.16000
v 0.04656 -0.00785 0.08000
v 0.04806 -0.00739 0.16000
v 0.04806 -0.00739 0.08000
v 0.04944 -0.00665 0.16000
v 0.04944 -0.00665 0.08000
v 0.05066 -0.00566 0.16000
v 0.05066 -0.00566 0.08000
v 0.05165 -0.00444 0.16000
v 0.05165 -0.00444 0.08000
v 0.05239 -0.00306 0.16000
v 0.05239 -0.00306 0.08000
v 0.05285 -0.00156 0.16000
v 0.05285 -0.00156 0.08000
f 265 266 267
f 268 269 270
f 266 268 267
f 268 270 267
f 265 267 271
f 270 269 272
f 267 270 271
f 270 272 271
f 265 271 273
f 272 269 274
f 271 272 273
f 272 274 273
f 265 273 275
f 274 269 276
f 273 274 275
f 274 276 275
f 265 275 277
f 276 269 278
f 275 276 277
f 276 278 277
f 265 277 279
f 278 269 280
f 277 278 279
f 278 280 279
f 265 279 281
f 280 269 282
f 279 280 281
f 280 282 281
f 265 281 283
f 282 269 284
f 281 282 283
f 282 284 283
f 265 283 285
f 284 269 286
f 283 284 285
f 284 286 285
f 265 285 287
f 286 269 288
f 285 286 287
f 286 288 287
f 265 287 289
f 288 269 290
f 287 288 289
f 288 290 289
f 265 289 291
f 290 269 292
f 289 290 291
f 290 292 291
f 265 291 293
f 292 269 294
f 291 292 293
f 292 294 293
f 265 293 295
f 294 269 296
f 293 294 295
f 294 296 295
f 265 295 297
f 296 269 298
f 295 296 297
f 296 298 297
f 265 297 299
f 298 269 300
f 297 298 299
f 298 300 299
f 265 299 301
f 300 269 302
f 299 300 301
f 300 302 301
f 265 301 303
f 302 269 304
f 301 302 303
f 302 304 303
f 265 303 305
f 304 269 306
f 303 304 305
f 304 306 305
f 265 305 307
f 306 269 308
f 305 306 307
f 306 308 307
f 265 307 309
f 308 269 310
f 307 308 309
f 308 310 309
f 265 309 311
f 310 269 312
f 309 310 311
f 310 312 311
f 265 311 313
f 312 269 314
f 311 312 313
f 312 314 313
f 265 313 315
f 314 269 316
f 313 314 315
f 314 316 315
f 265 315 317
f 316 269 318
f 315 316 317
f 316 318 317
f 265 317 319
f 318 269 320
f 317 318 319
f 318 320 319
f 265 319 321
f 320 269 322
f 319 320 321
f 320 322 321
f 265 321 323
f 322 269 324
f 321 322 323
f 322 324 323
f 265 323 325
f 324 269 326
f 323 324 325
f 324 326 325
f 265 325 327
f 326 269 328
f 325 326 327
f 326 328 327
f 265 327 329
f 328 269 330
f 327 328 329
f 328 330 329
f 265 329 266
f 330 269 268
f 329 330 266
f 330 268 266
