# CP05 - 09_ferramenta_cola_borracha (metros, Z para cima)
mtllib 09_ferramenta_cola_borracha.mtl
o Cola_Acoplamento
usemtl cor0
v -0.00000 -0.00000 0.06000
v 0.04500 -0.00000 0.06000
v 0.04414 0.00878 0.06000
v 0.04500 -0.00000 0.03000
v -0.00000 -0.00000 0.03000
v 0.04414 0.00878 0.03000
v 0.04157 0.01722 0.06000
v 0.04157 0.01722 0.03000
v 0.03742 0.02500 0.06000
v 0.03742 0.02500 0.03000
v 0.03182 0.03182 0.06000
v 0.03182 0.03182 0.03000
v 0.02500 0.03742 0.06000
v 0.02500 0.03742 0.03000
v 0.01722 0.04157 0.06000
v 0.01722 0.04157 0.03000
v 0.00878 0.04414 0.06000
v 0.00878 0.04414 0.03000
v -0.00000 0.04500 0.06000
v -0.00000 0.04500 0.03000
v -0.00878 0.04414 0.06000
v -0.00878 0.04414 0.03000
v -0.01722 0.04157 0.06000
v -0.01722 0.04157 0.03000
v -0.02500 0.03742 0.06000
v -0.02500 0.03742 0.03000
v -0.03182 0.03182 0.06000
v -0.03182 0.03182 0.03000
v -0.03742 0.02500 0.06000
v -0.03742 0.02500 0.03000
v -0.04157 0.01722 0.06000
v -0.04157 0.01722 0.03000
v -0.04414 0.00878 0.06000
v -0.04414 0.00878 0.03000
v -0.04500 -0.00000 0.06000
v -0.04500 -0.00000 0.03000
v -0.04414 -0.00878 0.06000
v -0.04414 -0.00878 0.03000
v -0.04157 -0.01722 0.06000
v -0.04157 -0.01722 0.03000
v -0.03742 -0.02500 0.06000
v -0.03742 -0.02500 0.03000
v -0.03182 -0.03182 0.06000
v -0.03182 -0.03182 0.03000
v -0.02500 -0.03742 0.06000
v -0.02500 -0.03742 0.03000
v -0.01722 -0.04157 0.06000
v -0.01722 -0.04157 0.03000
v -0.00878 -0.04414 0.06000
v -0.00878 -0.04414 0.03000
v 0.00000 -0.04500 0.06000
v 0.00000 -0.04500 0.03000
v 0.00878 -0.04414 0.06000
v 0.00878 -0.04414 0.03000
v 0.01722 -0.04157 0.06000
v 0.01722 -0.04157 0.03000
v 0.02500 -0.03742 0.06000
v 0.02500 -0.03742 0.03000
v 0.03182 -0.03182 0.06000
v 0.03182 -0.03182 0.03000
v 0.03742 -0.02500 0.06000
v 0.03742 -0.02500 0.03000
v 0.04157 -0.01722 0.06000
v 0.04157 -0.01722 0.03000
v 0.04414 -0.00878 0.06000
v 0.04414 -0.00878 0.03000
f 1 2 3
f 4 5 6
f 2 4 3
f 4 6 3
f 1 3 7
f 6 5 8
f 3 6 7
f 6 8 7
f 1 7 9
f 8 5 10
f 7 8 9
f 8 10 9
f 1 9 11
f 10 5 12
f 9 10 11
f 10 12 11
f 1 11 13
f 12 5 14
f 11 12 13
f 12 14 13
f 1 13 15
f 14 5 16
f 13 14 15
f 14 16 15
f 1 15 17
f 16 5 18
f 15 16 17
f 16 18 17
f 1 17 19
f 18 5 20
f 17 18 19
f 18 20 19
f 1 19 21
f 20 5 22
f 19 20 21
f 20 22 21
f 1 21 23
f 22 5 24
f 21 22 23
f 22 24 23
f 1 23 25
f 24 5 26
f 23 24 25
f 24 26 25
f 1 25 27
f 26 5 28
f 25 26 27
f 26 28 27
f 1 27 29
f 28 5 30
f 27 28 29
f 28 30 29
f 1 29 31
f 30 5 32
f 29 30 31
f 30 32 31
f 1 31 33
f 32 5 34
f 31 32 33
f 32 34 33
f 1 33 35
f 34 5 36
f 33 34 35
f 34 36 35
f 1 35 37
f 36 5 38
f 35 36 37
f 36 38 37
f 1 37 39
f 38 5 40
f 37 38 39
f 38 40 39
f 1 39 41
f 40 5 42
f 39 40 41
f 40 42 41
f 1 41 43
f 42 5 44
f 41 42 43
f 42 44 43
f 1 43 45
f 44 5 46
f 43 44 45
f 44 46 45
f 1 45 47
f 46 5 48
f 45 46 47
f 46 48 47
f 1 47 49
f 48 5 50
f 47 48 49
f 48 50 49
f 1 49 51
f 50 5 52
f 49 50 51
f 50 52 51
f 1 51 53
f 52 5 54
f 51 52 53
f 52 54 53
f 1 53 55
f 54 5 56
f 53 54 55
f 54 56 55
f 1 55 57
f 56 5 58
f 55 56 57
f 56 58 57
f 1 57 59
f 58 5 60
f 57 58 59
f 58 60 59
f 1 59 61
f 60 5 62
f 59 60 61
f 60 62 61
f 1 61 63
f 62 5 64
f 61 62 63
f 62 64 63
f 1 63 65
f 64 5 66
f 63 64 65
f 64 66 65
f 1 65 2
f 66 5 4
f 65 66 2
f 66 4 2
o Cola_Cabecote
usemtl cor1
v 0.06000 -0.04500 0.06000
v -0.06000 -0.04500 0.06000
v 0.06000 0.04500 0.06000
v -0.06000 0.04500 0.06000
v 0.06000 -0.04500 0.16000
v -0.06000 -0.04500 0.16000
v 0.06000 0.04500 0.16000
v -0.06000 0.04500 0.16000
f 67 68 69
f 69 68 70
f 68 67 71
f 68 71 72
f 69 70 73
f 73 70 74
f 73 74 71
f 71 74 72
f 70 68 74
f 74 68 72
f 67 69 73
f 67 73 71
o Cola_Valvula
usemtl cor2
v 0.03000 -0.00000 0.20500
v 0.04800 -0.00000 0.20500
v 0.04765 0.00351 0.20500
v 0.04800 -0.00000 0.15500
v 0.03000 -0.00000 0.15500
v 0.04765 0.00351 0.15500
v 0.04663 0.00689 0.20500
v 0.04663 0.00689 0.15500
v 0.04497 0.01000 0.20500
v 0.04497 0.01000 0.15500
v 0.04273 0.01273 0.20500
v 0.04273 0.01273 0.15500
v 0.04000 0.01497 0.20500
v 0.04000 0.01497 0.15500
v 0.03689 0.01663 0.20500
v 0.03689 0.01663 0.15500
v 0.03351 0.01765 0.20500
v 0.03351 0.01765 0.15500
v 0.03000 0.01800 0.20500
v 0.03000 0.01800 0.15500
v 0.02649 0.01765 0.20500
v 0.02649 0.01765 0.15500
v 0.02311 0.01663 0.20500
v 0.02311 0.01663 0.15500
v 0.02000 0.01497 0.20500
v 0.02000 0.01497 0.15500
v 0.01727 0.01273 0.20500
v 0.01727 0.01273 0.15500
v 0.01503 0.01000 0.20500
v 0.01503 0.01000 0.15500
v 0.01337 0.00689 0.20500
v 0.01337 0.00689 0.15500
v 0.01235 0.00351 0.20500
v 0.01235 0.00351 0.15500
v 0.01200 -0.00000 0.20500
v 0.01200 -0.00000 0.15500
v 0.01235 -0.00351 0.20500
v 0.01235 -0.00351 0.15500
v 0.01337 -0.00689 0.20500
v 0.01337 -0.00689 0.15500
v 0.01503 -0.01000 0.20500
v 0.01503 -0.01000 0.15500
v 0.01727 -0.01273 0.20500
v 0.01727 -0.01273 0.15500
v 0.02000 -0.01497 0.20500
v 0.02000 -0.01497 0.15500
v 0.02311 -0.01663 0.20500
v 0.02311 -0.01663 0.15500
v 0.02649 -0.01765 0.20500
v 0.02649 -0.01765 0.15500
v 0.03000 -0.01800 0.20500
v 0.03000 -0.01800 0.15500
v 0.03351 -0.01765 0.20500
v 0.03351 -0.01765 0.15500
v 0.03689 -0.01663 0.20500
v 0.03689 -0.01663 0.15500
v 0.04000 -0.01497 0.20500
v 0.04000 -0.01497 0.15500
v 0.04273 -0.01273 0.20500
v 0.04273 -0.01273 0.15500
v 0.04497 -0.01000 0.20500
v 0.04497 -0.01000 0.15500
v 0.04663 -0.00689 0.20500
v 0.04663 -0.00689 0.15500
v 0.04765 -0.00351 0.20500
v 0.04765 -0.00351 0.15500
f 75 76 77
f 78 79 80
f 76 78 77
f 78 80 77
f 75 77 81
f 80 79 82
f 77 80 81
f 80 82 81
f 75 81 83
f 82 79 84
f 81 82 83
f 82 84 83
f 75 83 85
f 84 79 86
f 83 84 85
f 84 86 85
f 75 85 87
f 86 79 88
f 85 86 87
f 86 88 87
f 75 87 89
f 88 79 90
f 87 88 89
f 88 90 89
f 75 89 91
f 90 79 92
f 89 90 91
f 90 92 91
f 75 91 93
f 92 79 94
f 91 92 93
f 92 94 93
f 75 93 95
f 94 79 96
f 93 94 95
f 94 96 95
f 75 95 97
f 96 79 98
f 95 96 97
f 96 98 97
f 75 97 99
f 98 79 100
f 97 98 99
f 98 100 99
f 75 99 101
f 100 79 102
f 99 100 101
f 100 102 101
f 75 101 103
f 102 79 104
f 101 102 103
f 102 104 103
f 75 103 105
f 104 79 106
f 103 104 105
f 104 106 105
f 75 105 107
f 106 79 108
f 105 106 107
f 106 108 107
f 75 107 109
f 108 79 110
f 107 108 109
f 108 110 109
f 75 109 111
f 110 79 112
f 109 110 111
f 110 112 111
f 75 111 113
f 112 79 114
f 111 112 113
f 112 114 113
f 75 113 115
f 114 79 116
f 113 114 115
f 114 116 115
f 75 115 117
f 116 79 118
f 115 116 117
f 116 118 117
f 75 117 119
f 118 79 120
f 117 118 119
f 118 120 119
f 75 119 121
f 120 79 122
f 119 120 121
f 120 122 121
f 75 121 123
f 122 79 124
f 121 122 123
f 122 124 123
f 75 123 125
f 124 79 126
f 123 124 125
f 124 126 125
f 75 125 127
f 126 79 128
f 125 126 127
f 126 128 127
f 75 127 129
f 128 79 130
f 127 128 129
f 128 130 129
f 75 129 131
f 130 79 132
f 129 130 131
f 130 132 131
f 75 131 133
f 132 79 134
f 131 132 133
f 132 134 133
f 75 133 135
f 134 79 136
f 133 134 135
f 134 136 135
f 75 135 137
f 136 79 138
f 135 136 137
f 136 138 137
f 75 137 139
f 138 79 140
f 137 138 139
f 138 140 139
f 75 139 76
f 140 79 78
f 139 140 76
f 140 78 76
o Cola_Bico
usemtl cor3
v -0.00000 -0.00000 0.21950
v 0.00600 -0.00000 0.21950
v 0.00588 0.00117 0.21950
v 0.00600 -0.00000 0.19450
v -0.00000 -0.00000 0.19450
v 0.00588 0.00117 0.19450
v 0.00554 0.00230 0.21950
v 0.00554 0.00230 0.19450
v 0.00499 0.00333 0.21950
v 0.00499 0.00333 0.19450
v 0.00424 0.00424 0.21950
v 0.00424 0.00424 0.19450
v 0.00333 0.00499 0.21950
v 0.00333 0.00499 0.19450
v 0.00230 0.00554 0.21950
v 0.00230 0.00554 0.19450
v 0.00117 0.00588 0.21950
v 0.00117 0.00588 0.19450
v -0.00000 0.00600 0.21950
v -0.00000 0.00600 0.19450
v -0.00117 0.00588 0.21950
v -0.00117 0.00588 0.19450
v -0.00230 0.00554 0.21950
v -0.00230 0.00554 0.19450
v -0.00333 0.00499 0.21950
v -0.00333 0.00499 0.19450
v -0.00424 0.00424 0.21950
v -0.00424 0.00424 0.19450
v -0.00499 0.00333 0.21950
v -0.00499 0.00333 0.19450
v -0.00554 0.00230 0.21950
v -0.00554 0.00230 0.19450
v -0.00588 0.00117 0.21950
v -0.00588 0.00117 0.19450
v -0.00600 -0.00000 0.21950
v -0.00600 -0.00000 0.19450
v -0.00588 -0.00117 0.21950
v -0.00588 -0.00117 0.19450
v -0.00554 -0.00230 0.21950
v -0.00554 -0.00230 0.19450
v -0.00499 -0.00333 0.21950
v -0.00499 -0.00333 0.19450
v -0.00424 -0.00424 0.21950
v -0.00424 -0.00424 0.19450
v -0.00333 -0.00499 0.21950
v -0.00333 -0.00499 0.19450
v -0.00230 -0.00554 0.21950
v -0.00230 -0.00554 0.19450
v -0.00117 -0.00588 0.21950
v -0.00117 -0.00588 0.19450
v 0.00000 -0.00600 0.21950
v 0.00000 -0.00600 0.19450
v 0.00117 -0.00588 0.21950
v 0.00117 -0.00588 0.19450
v 0.00230 -0.00554 0.21950
v 0.00230 -0.00554 0.19450
v 0.00333 -0.00499 0.21950
v 0.00333 -0.00499 0.19450
v 0.00424 -0.00424 0.21950
v 0.00424 -0.00424 0.19450
v 0.00499 -0.00333 0.21950
v 0.00499 -0.00333 0.19450
v 0.00554 -0.00230 0.21950
v 0.00554 -0.00230 0.19450
v 0.00588 -0.00117 0.21950
v 0.00588 -0.00117 0.19450
f 141 142 143
f 144 145 146
f 142 144 143
f 144 146 143
f 141 143 147
f 146 145 148
f 143 146 147
f 146 148 147
f 141 147 149
f 148 145 150
f 147 148 149
f 148 150 149
f 141 149 151
f 150 145 152
f 149 150 151
f 150 152 151
f 141 151 153
f 152 145 154
f 151 152 153
f 152 154 153
f 141 153 155
f 154 145 156
f 153 154 155
f 154 156 155
f 141 155 157
f 156 145 158
f 155 156 157
f 156 158 157
f 141 157 159
f 158 145 160
f 157 158 159
f 158 160 159
f 141 159 161
f 160 145 162
f 159 160 161
f 160 162 161
f 141 161 163
f 162 145 164
f 161 162 163
f 162 164 163
f 141 163 165
f 164 145 166
f 163 164 165
f 164 166 165
f 141 165 167
f 166 145 168
f 165 166 167
f 166 168 167
f 141 167 169
f 168 145 170
f 167 168 169
f 168 170 169
f 141 169 171
f 170 145 172
f 169 170 171
f 170 172 171
f 141 171 173
f 172 145 174
f 171 172 173
f 172 174 173
f 141 173 175
f 174 145 176
f 173 174 175
f 174 176 175
f 141 175 177
f 176 145 178
f 175 176 177
f 176 178 177
f 141 177 179
f 178 145 180
f 177 178 179
f 178 180 179
f 141 179 181
f 180 145 182
f 179 180 181
f 180 182 181
f 141 181 183
f 182 145 184
f 181 182 183
f 182 184 183
f 141 183 185
f 184 145 186
f 183 184 185
f 184 186 185
f 141 185 187
f 186 145 188
f 185 186 187
f 186 188 187
f 141 187 189
f 188 145 190
f 187 188 189
f 188 190 189
f 141 189 191
f 190 145 192
f 189 190 191
f 190 192 191
f 141 191 193
f 192 145 194
f 191 192 193
f 192 194 193
f 141 193 195
f 194 145 196
f 193 194 195
f 194 196 195
f 141 195 197
f 196 145 198
f 195 196 197
f 196 198 197
f 141 197 199
f 198 145 200
f 197 198 199
f 198 200 199
f 141 199 201
f 200 145 202
f 199 200 201
f 200 202 201
f 141 201 203
f 202 145 204
f 201 202 203
f 202 204 203
f 141 203 205
f 204 145 206
f 203 204 205
f 204 206 205
f 141 205 142
f 206 145 144
f 205 206 142
f 206 144 142
o Cola_Rolete
usemtl cor4
v -0.05000 -0.01000 0.20000
v -0.02800 -0.01000 0.20000
v -0.02842 -0.01000 0.20429
v -0.02800 0.01000 0.20000
v -0.05000 0.01000 0.20000
v -0.02842 0.01000 0.20429
v -0.02967 -0.01000 0.20842
v -0.02967 0.01000 0.20842
v -0.03171 -0.01000 0.21222
v -0.03171 0.01000 0.21222
v -0.03444 -0.01000 0.21556
v -0.03444 0.01000 0.21556
v -0.03778 -0.01000 0.21829
v -0.03778 0.01000 0.21829
v -0.04158 -0.01000 0.22033
v -0.04158 0.01000 0.22033
v -0.04571 -0.01000 0.22158
v -0.04571 0.01000 0.22158
v -0.05000 -0.01000 0.22200
v -0.05000 0.01000 0.22200
v -0.05429 -0.01000 0.22158
v -0.05429 0.01000 0.22158
v -0.05842 -0.01000 0.22033
v -0.05842 0.01000 0.22033
v -0.06222 -0.01000 0.21829
v -0.06222 0.01000 0.21829
v -0.06556 -0.01000 0.21556
v -0.06556 0.01000 0.21556
v -0.06829 -0.01000 0.21222
v -0.06829 0.01000 0.21222
v -0.07033 -0.01000 0.20842
v -0.07033 0.01000 0.20842
v -0.07158 -0.01000 0.20429
v -0.07158 0.01000 0.20429
v -0.07200 -0.01000 0.20000
v -0.07200 0.01000 0.20000
v -0.07158 -0.01000 0.19571
v -0.07158 0.01000 0.19571
v -0.07033 -0.01000 0.19158
v -0.07033 0.01000 0.19158
v -0.06829 -0.01000 0.18778
v -0.06829 0.01000 0.18778
v -0.06556 -0.01000 0.18444
v -0.06556 0.01000 0.18444
v -0.06222 -0.01000 0.18171
v -0.06222 0.01000 0.18171
v -0.05842 -0.01000 0.17967
v -0.05842 0.01000 0.17967
v -0.05429 -0.01000 0.17842
v -0.05429 0.01000 0.17842
v -0.05000 -0.01000 0.17800
v -0.05000 0.01000 0.17800
v -0.04571 -0.01000 0.17842
v -0.04571 0.01000 0.17842
v -0.04158 -0.01000 0.17967
v -0.04158 0.01000 0.17967
v -0.03778 -0.01000 0.18171
v -0.03778 0.01000 0.18171
v -0.03444 -0.01000 0.18444
v -0.03444 0.01000 0.18444
v -0.03171 -0.01000 0.18778
v -0.03171 0.01000 0.18778
v -0.02967 -0.01000 0.19158
v -0.02967 0.01000 0.19158
v -0.02842 -0.01000 0.19571
v -0.02842 0.01000 0.19571
f 207 208 209
f 210 211 212
f 208 210 209
f 210 212 209
f 207 209 213
f 212 211 214
f 209 212 213
f 212 214 213
f 207 213 215
f 214 211 216
f 213 214 215
f 214 216 215
f 207 215 217
f 216 211 218
f 215 216 217
f 216 218 217
f 207 217 219
f 218 211 220
f 217 218 219
f 218 220 219
f 207 219 221
f 220 211 222
f 219 220 221
f 220 222 221
f 207 221 223
f 222 211 224
f 221 222 223
f 222 224 223
f 207 223 225
f 224 211 226
f 223 224 225
f 224 226 225
f 207 225 227
f 226 211 228
f 225 226 227
f 226 228 227
f 207 227 229
f 228 211 230
f 227 228 229
f 228 230 229
f 207 229 231
f 230 211 232
f 229 230 231
f 230 232 231
f 207 231 233
f 232 211 234
f 231 232 233
f 232 234 233
f 207 233 235
f 234 211 236
f 233 234 235
f 234 236 235
f 207 235 237
f 236 211 238
f 235 236 237
f 236 238 237
f 207 237 239
f 238 211 240
f 237 238 239
f 238 240 239
f 207 239 241
f 240 211 242
f 239 240 241
f 240 242 241
f 207 241 243
f 242 211 244
f 241 242 243
f 242 244 243
f 207 243 245
f 244 211 246
f 243 244 245
f 244 246 245
f 207 245 247
f 246 211 248
f 245 246 247
f 246 248 247
f 207 247 249
f 248 211 250
f 247 248 249
f 248 250 249
f 207 249 251
f 250 211 252
f 249 250 251
f 250 252 251
f 207 251 253
f 252 211 254
f 251 252 253
f 252 254 253
f 207 253 255
f 254 211 256
f 253 254 255
f 254 256 255
f 207 255 257
f 256 211 258
f 255 256 257
f 256 258 257
f 207 257 259
f 258 211 260
f 257 258 259
f 258 260 259
f 207 259 261
f 260 211 262
f 259 260 261
f 260 262 261
f 207 261 263
f 262 211 264
f 261 262 263
f 262 264 263
f 207 263 265
f 264 211 266
f 263 264 265
f 264 266 265
f 207 265 267
f 266 211 268
f 265 266 267
f 266 268 267
f 207 267 269
f 268 211 270
f 267 268 269
f 268 270 269
f 207 269 271
f 270 211 272
f 269 270 271
f 270 272 271
f 207 271 208
f 272 211 210
f 271 272 208
f 272 210 208
o Cola_Faca
usemtl cor0
v -0.04500 0.03000 0.15500
v -0.05500 0.03000 0.15500
v -0.04500 0.04000 0.15500
v -0.05500 0.04000 0.15500
v -0.04500 0.03000 0.20500
v -0.05500 0.03000 0.20500
v -0.04500 0.04000 0.20500
v -0.05500 0.04000 0.20500
f 273 274 275
f 275 274 276
f 274 273 277
f 274 277 278
f 275 276 279
f 279 276 280
f 279 280 277
f 277 280 278
f 276 274 280
f 280 274 278
f 273 275 279
f 273 279 277
o Cola_Guia_Perfil
usemtl cor4
v -0.05000 -0.04500 0.18000
v -0.04300 -0.04500 0.18000
v -0.04313 -0.04363 0.18000
v -0.04300 -0.04500 0.06000
v -0.05000 -0.04500 0.06000
v -0.04313 -0.04363 0.06000
v -0.04353 -0.04232 0.18000
v -0.04353 -0.04232 0.06000
v -0.04418 -0.04111 0.18000
v -0.04418 -0.04111 0.06000
v -0.04505 -0.04005 0.18000
v -0.04505 -0.04005 0.06000
v -0.04611 -0.03918 0.18000
v -0.04611 -0.03918 0.06000
v -0.04732 -0.03853 0.18000
v -0.04732 -0.03853 0.06000
v -0.04863 -0.03813 0.18000
v -0.04863 -0.03813 0.06000
v -0.05000 -0.03800 0.18000
v -0.05000 -0.03800 0.06000
v -0.05137 -0.03813 0.18000
v -0.05137 -0.03813 0.06000
v -0.05268 -0.03853 0.18000
v -0.05268 -0.03853 0.06000
v -0.05389 -0.03918 0.18000
v -0.05389 -0.03918 0.06000
v -0.05495 -0.04005 0.18000
v -0.05495 -0.04005 0.06000
v -0.05582 -0.04111 0.18000
v -0.05582 -0.04111 0.06000
v -0.05647 -0.04232 0.18000
v -0.05647 -0.04232 0.06000
v -0.05687 -0.04363 0.18000
v -0.05687 -0.04363 0.06000
v -0.05700 -0.04500 0.18000
v -0.05700 -0.04500 0.06000
v -0.05687 -0.04637 0.18000
v -0.05687 -0.04637 0.06000
v -0.05647 -0.04768 0.18000
v -0.05647 -0.04768 0.06000
v -0.05582 -0.04889 0.18000
v -0.05582 -0.04889 0.06000
v -0.05495 -0.04995 0.18000
v -0.05495 -0.04995 0.06000
v -0.05389 -0.05082 0.18000
v -0.05389 -0.05082 0.06000
v -0.05268 -0.05147 0.18000
v -0.05268 -0.05147 0.06000
v -0.05137 -0.05187 0.18000
v -0.05137 -0.05187 0.06000
v -0.05000 -0.05200 0.18000
v -0.05000 -0.05200 0.06000
v -0.04863 -0.05187 0.18000
v -0.04863 -0.05187 0.06000
v -0.04732 -0.05147 0.18000
v -0.04732 -0.05147 0.06000
v -0.04611 -0.05082 0.18000
v -0.04611 -0.05082 0.06000
v -0.04505 -0.04995 0.18000
v -0.04505 -0.04995 0.06000
v -0.04418 -0.04889 0.18000
v -0.04418 -0.04889 0.06000
v -0.04353 -0.04768 0.18000
v -0.04353 -0.04768 0.06000
v -0.04313 -0.04637 0.18000
v -0.04313 -0.04637 0.06000
f 281 282 283
f 284 285 286
f 282 284 283
f 284 286 283
f 281 283 287
f 286 285 288
f 283 286 287
f 286 288 287
f 281 287 289
f 288 285 290
f 287 288 289
f 288 290 289
f 281 289 291
f 290 285 292
f 289 290 291
f 290 292 291
f 281 291 293
f 292 285 294
f 291 292 293
f 292 294 293
f 281 293 295
f 294 285 296
f 293 294 295
f 294 296 295
f 281 295 297
f 296 285 298
f 295 296 297
f 296 298 297
f 281 297 299
f 298 285 300
f 297 298 299
f 298 300 299
f 281 299 301
f 300 285 302
f 299 300 301
f 300 302 301
f 281 301 303
f 302 285 304
f 301 302 303
f 302 304 303
f 281 303 305
f 304 285 306
f 303 304 305
f 304 306 305
f 281 305 307
f 306 285 308
f 305 306 307
f 306 308 307
f 281 307 309
f 308 285 310
f 307 308 309
f 308 310 309
f 281 309 311
f 310 285 312
f 309 310 311
f 310 312 311
f 281 311 313
f 312 285 314
f 311 312 313
f 312 314 313
f 281 313 315
f 314 285 316
f 313 314 315
f 314 316 315
f 281 315 317
f 316 285 318
f 315 316 317
f 316 318 317
f 281 317 319
f 318 285 320
f 317 318 319
f 318 320 319
f 281 319 321
f 320 285 322
f 319 320 321
f 320 322 321
f 281 321 323
f 322 285 324
f 321 322 323
f 322 324 323
f 281 323 325
f 324 285 326
f 323 324 325
f 324 326 325
f 281 325 327
f 326 285 328
f 325 326 327
f 326 328 327
f 281 327 329
f 328 285 330
f 327 328 329
f 328 330 329
f 281 329 331
f 330 285 332
f 329 330 331
f 330 332 331
f 281 331 333
f 332 285 334
f 331 332 333
f 332 334 333
f 281 333 335
f 334 285 336
f 333 334 335
f 334 336 335
f 281 335 337
f 336 285 338
f 335 336 337
f 336 338 337
f 281 337 339
f 338 285 340
f 337 338 339
f 338 340 339
f 281 339 341
f 340 285 342
f 339 340 341
f 340 342 341
f 281 341 343
f 342 285 344
f 341 342 343
f 342 344 343
f 281 343 345
f 344 285 346
f 343 344 345
f 344 346 345
f 281 345 282
f 346 285 284
f 345 346 282
f 346 284 282
