# CP05 - 11_esteira_saida (metros, Z para cima)
mtllib 11_esteira_saida.mtl
o Esteira_Correia
usemtl cor0
v 2.60000 0.77000 0.78000
v -0.60000 0.77000 0.78000
v 2.60000 1.33000 0.78000
v -0.60000 1.33000 0.78000
v 2.60000 0.77000 0.80000
v -0.60000 0.77000 0.80000
v 2.60000 1.33000 0.80000
v -0.60000 1.33000 0.80000
f 1 2 3
f 3 2 4
f 2 1 5
f 2 5 6
f 3 4 7
f 7 4 8
f 7 8 5
f 5 8 6
f 4 2 8
f 8 2 6
f 1 3 7
f 1 7 5
o Esteira_Trilho
usemtl cor1
v 2.60000 1.33500 0.69000
v -0.60000 1.33500 0.69000
v 2.60000 1.38500 0.69000
v -0.60000 1.38500 0.69000
v 2.60000 1.33500 0.81000
v -0.60000 1.33500 0.81000
v 2.60000 1.38500 0.81000
v -0.60000 1.38500 0.81000
f 9 10 11
f 11 10 12
f 10 9 13
f 10 13 14
f 11 12 15
f 15 12 16
f 15 16 13
f 13 16 14
f 12 10 16
f 16 10 14
f 9 11 15
f 9 15 13
o Esteira_Trilho
usemtl cor1
v 2.60000 0.71500 0.69000
v -0.60000 0.71500 0.69000
v 2.60000 0.76500 0.69000
v -0.60000 0.76500 0.69000
v 2.60000 0.71500 0.81000
v -0.60000 0.71500 0.81000
v 2.60000 0.76500 0.81000
v -0.60000 0.76500 0.81000
f 17 18 19
f 19 18 20
f 18 17 21
f 18 21 22
f 19 20 23
f 23 20 24
f 23 24 21
f 21 24 22
f 20 18 24
f 24 18 22
f 17 19 23
f 17 23 21
o Esteira_Pe_1
usemtl cor2
v -0.42500 1.33500 0.00000
v -0.47500 1.33500 0.00000
v -0.42500 1.38500 0.00000
v -0.47500 1.38500 0.00000
v -0.42500 1.33500 0.69000
v -0.47500 1.33500 0.69000
v -0.42500 1.38500 0.69000
v -0.47500 1.38500 0.69000
f 25 26 27
f 27 26 28
f 26 25 29
f 26 29 30
f 27 28 31
f 31 28 32
f 31 32 29
f 29 32 30
f 28 26 32
f 32 26 30
f 25 27 31
f 25 31 29
o Esteira_Pe_0
usemtl cor2
v -0.42500 0.71500 0.00000
v -0.47500 0.71500 0.00000
v -0.42500 0.76500 0.00000
v -0.47500 0.76500 0.00000
v -0.42500 0.71500 0.69000
v -0.47500 0.71500 0.69000
v -0.42500 0.76500 0.69000
v -0.47500 0.76500 0.69000
f 33 34 35
f 35 34 36
f 34 33 37
f 34 37 38
f 35 36 39
f 39 36 40
f 39 40 37
f 37 40 38
f 36 34 40
f 40 34 38
f 33 35 39
f 33 39 37
o Esteira_Pe_3
usemtl cor2
v 1.02500 1.33500 0.00000
v 0.97500 1.33500 0.00000
v 1.02500 1.38500 0.00000
v 0.97500 1.38500 0.00000
v 1.02500 1.33500 0.69000
v 0.97500 1.33500 0.69000
v 1.02500 1.38500 0.69000
v 0.97500 1.38500 0.69000
f 41 42 43
f 43 42 44
f 42 41 45
f 42 45 46
f 43 44 47
f 47 44 48
f 47 48 45
f 45 48 46
f 44 42 48
f 48 42 46
f 41 43 47
f 41 47 45
o Esteira_Pe_2
usemtl cor2
v 1.02500 0.71500 0.00000
v 0.97500 0.71500 0.00000
v 1.02500 0.76500 0.00000
v 0.97500 0.76500 0.00000
v 1.02500 0.71500 0.69000
v 0.97500 0.71500 0.69000
v 1.02500 0.76500 0.69000
v 0.97500 0.76500 0.69000
f 49 50 51
f 51 50 52
f 50 49 53
f 50 53 54
f 51 52 55
f 55 52 56
f 55 56 53
f 53 56 54
f 52 50 56
f 56 50 54
f 49 51 55
f 49 55 53
o Esteira_Pe_5
usemtl cor2
v 2.47500 1.33500 0.00000
v 2.42500 1.33500 0.00000
v 2.47500 1.38500 0.00000
v 2.42500 1.38500 0.00000
v 2.47500 1.33500 0.69000
v 2.42500 1.33500 0.69000
v 2.47500 1.38500 0.69000
v 2.42500 1.38500 0.69000
f 57 58 59
f 59 58 60
f 58 57 61
f 58 61 62
f 59 60 63
f 63 60 64
f 63 64 61
f 61 64 62
f 60 58 64
f 64 58 62
f 57 59 63
f 57 63 61
o Esteira_Pe_4
usemtl cor2
v 2.47500 0.71500 0.00000
v 2.42500 0.71500 0.00000
v 2.47500 0.76500 0.00000
v 2.42500 0.76500 0.00000
v 2.47500 0.71500 0.69000
v 2.42500 0.71500 0.69000
v 2.47500 0.76500 0.69000
v 2.42500 0.76500 0.69000
f 65 66 67
f 67 66 68
f 66 65 69
f 66 69 70
f 67 68 71
f 71 68 72
f 71 72 69
f 69 72 70
f 68 66 72
f 72 66 70
f 65 67 71
f 65 71 69
o Esteira_Rolo
usemtl cor3
v -0.60000 0.76000 0.76000
v -0.56000 0.76000 0.76000
v -0.56077 0.76000 0.76780
v -0.56000 1.34000 0.76000
v -0.60000 1.34000 0.76000
v -0.56077 1.34000 0.76780
v -0.56304 0.76000 0.77531
v -0.56304 1.34000 0.77531
v -0.56674 0.76000 0.78222
v -0.56674 1.34000 0.78222
v -0.57172 0.76000 0.78828
v -0.57172 1.34000 0.78828
v -0.57778 0.76000 0.79326
v -0.57778 1.34000 0.79326
v -0.58469 0.76000 0.79696
v -0.58469 1.34000 0.79696
v -0.59220 0.76000 0.79923
v -0.59220 1.34000 0.79923
v -0.60000 0.76000 0.80000
v -0.60000 1.34000 0.80000
v -0.60780 0.76000 0.79923
v -0.60780 1.34000 0.79923
v -0.61531 0.76000 0.79696
v -0.61531 1.34000 0.79696
v -0.62222 0.76000 0.79326
v -0.62222 1.34000 0.79326
v -0.62828 0.76000 0.78828
v -0.62828 1.34000 0.78828
v -0.63326 0.76000 0.78222
v -0.63326 1.34000 0.78222
v -0.63696 0.76000 0.77531
v -0.63696 1.34000 0.77531
v -0.63923 0.76000 0.76780
v -0.63923 1.34000 0.76780
v -0.64000 0.76000 0.76000
v -0.64000 1.34000 0.76000
v -0.63923 0.76000 0.75220
v -0.63923 1.34000 0.75220
v -0.63696 0.76000 0.74469
v -0.63696 1.34000 0.74469
v -0.63326 0.76000 0.73778
v -0.63326 1.34000 0.73778
v -0.62828 0.76000 0.73172
v -0.62828 1.34000 0.73172
v -0.62222 0.76000 0.72674
v -0.62222 1.34000 0.72674
v -0.61531 0.76000 0.72304
v -0.61531 1.34000 0.72304
v -0.60780 0.76000 0.72077
v -0.60780 1.34000 0.72077
v -0.60000 0.76000 0.72000
v -0.60000 1.34000 0.72000
v -0.59220 0.76000 0.72077
v -0.59220 1.34000 0.72077
v -0.58469 0.76000 0.72304
v -0.58469 1.34000 0.72304
v -0.57778 0.76000 0.72674
v -0.57778 1.34000 0.72674
v -0.57172 0.76000 0.73172
v -0.57172 1.34000 0.73172
v -0.56674 0.76000 0.73778
v -0.56674 1.34000 0.73778
v -0.56304 0.76000 0.74469
v -0.56304 1.34000 0.74469
v -0.56077 0.76000 0.75220
v -0.56077 1.34000 0.75220
f 73 74 75
f 76 77 78
f 74 76 75
f 76 78 75
f 73 75 79
f 78 77 80
f 75 78 79
f 78 80 79
f 73 79 81
f 80 77 82
f 79 80 81
f 80 82 81
f 73 81 83
f 82 77 84
f 81 82 83
f 82 84 83
f 73 83 85
f 84 77 86
f 83 84 85
f 84 86 85
f 73 85 87
f 86 77 88
f 85 86 87
f 86 88 87
f 73 87 89
f 88 77 90
f 87 88 89
f 88 90 89
f 73 89 91
f 90 77 92
f 89 90 91
f 90 92 91
f 73 91 93
f 92 77 94
f 91 92 93
f 92 94 93
f 73 93 95
f 94 77 96
f 93 94 95
f 94 96 95
f 73 95 97
f 96 77 98
f 95 96 97
f 96 98 97
f 73 97 99
f 98 77 100
f 97 98 99
f 98 100 99
f 73 99 101
f 100 77 102
f 99 100 101
f 100 102 101
f 73 101 103
f 102 77 104
f 101 102 103
f 102 104 103
f 73 103 105
f 104 77 106
f 103 104 105
f 104 106 105
f 73 105 107
f 106 77 108
f 105 106 107
f 106 108 107
f 73 107 109
f 108 77 110
f 107 108 109
f 108 110 109
f 73 109 111
f 110 77 112
f 109 110 111
f 110 112 111
f 73 111 113
f 112 77 114
f 111 112 113
f 112 114 113
f 73 113 115
f 114 77 116
f 113 114 115
f 114 116 115
f 73 115 117
f 116 77 118
f 115 116 117
f 116 118 117
f 73 117 119
f 118 77 120
f 117 118 119
f 118 120 119
f 73 119 121
f 120 77 122
f 119 120 121
f 120 122 121
f 73 121 123
f 122 77 124
f 121 122 123
f 122 124 123
f 73 123 125
f 124 77 126
f 123 124 125
f 124 126 125
f 73 125 127
f 126 77 128
f 125 126 127
f 126 128 127
f 73 127 129
f 128 77 130
f 127 128 129
f 128 130 129
f 73 129 131
f 130 77 132
f 129 130 131
f 130 132 131
f 73 131 133
f 132 77 134
f 131 132 133
f 132 134 133
f 73 133 135
f 134 77 136
f 133 134 135
f 134 136 135
f 73 135 137
f 136 77 138
f 135 136 137
f 136 138 137
f 73 137 74
f 138 77 76
f 137 138 74
f 138 76 74
o Esteira_Rolo
usemtl cor3
v 2.60000 0.76000 0.76000
v 2.64000 0.76000 0.76000
v 2.63923 0.76000 0.76780
v 2.64000 1.34000 0.76000
v 2.60000 1.34000 0.76000
v 2.63923 1.34000 0.76780
v 2.63696 0.76000 0.77531
v 2.63696 1.34000 0.77531
v 2.63326 0.76000 0.78222
v 2.63326 1.34000 0.78222
v 2.62828 0.76000 0.78828
v 2.62828 1.34000 0.78828
v 2.62222 0.76000 0.79326
v 2.62222 1.34000 0.79326
v 2.61531 0.76000 0.79696
v 2.61531 1.34000 0.79696
v 2.60780 0.76000 0.79923
v 2.60780 1.34000 0.79923
v 2.60000 0.76000 0.80000
v 2.60000 1.34000 0.80000
v 2.59220 0.76000 0.79923
v 2.59220 1.34000 0.79923
v 2.58469 0.76000 0.79696
v 2.58469 1.34000 0.79696
v 2.57778 0.76000 0.79326
v 2.57778 1.34000 0.79326
v 2.57172 0.76000 0.78828
v 2.57172 1.34000 0.78828
v 2.56674 0.76000 0.78222
v 2.56674 1.34000 0.78222
v 2.56304 0.76000 0.77531
v 2.56304 1.34000 0.77531
v 2.56077 0.76000 0.76780
v 2.56077 1.34000 0.76780
v 2.56000 0.76000 0.76000
v 2.56000 1.34000 0.76000
v 2.56077 0.76000 0.75220
v 2.56077 1.34000 0.75220
v 2.56304 0.76000 0.74469
v 2.56304 1.34000 0.74469
v 2.56674 0.76000 0.73778
v 2.56674 1.34000 0.73778
v 2.57172 0.76000 0.73172
v 2.57172 1.34000 0.73172
v 2.57778 0.76000 0.72674
v 2.57778 1.34000 0.72674
v 2.58469 0.76000 0.72304
v 2.58469 1.34000 0.72304
v 2.59220 0.76000 0.72077
v 2.59220 1.34000 0.72077
v 2.60000 0.76000 0.72000
v 2.60000 1.34000 0.72000
v 2.60780 0.76000 0.72077
v 2.60780 1.34000 0.72077
v 2.61531 0.76000 0.72304
v 2.61531 1.34000 0.72304
v 2.62222 0.76000 0.72674
v 2.62222 1.34000 0.72674
v 2.62828 0.76000 0.73172
v 2.62828 1.34000 0.73172
v 2.63326 0.76000 0.73778
v 2.63326 1.34000 0.73778
v 2.63696 0.76000 0.74469
v 2.63696 1.34000 0.74469
v 2.63923 0.76000 0.75220
v 2.63923 1.34000 0.75220
f 139 140 141
f 142 143 144
f 140 142 141
f 142 144 141
f 139 141 145
f 144 143 146
f 141 144 145
f 144 146 145
f 139 145 147
f 146 143 148
f 145 146 147
f 146 148 147
f 139 147 149
f 148 143 150
f 147 148 149
f 148 150 149
f 139 149 151
f 150 143 152
f 149 150 151
f 150 152 151
f 139 151 153
f 152 143 154
f 151 152 153
f 152 154 153
f 139 153 155
f 154 143 156
f 153 154 155
f 154 156 155
f 139 155 157
f 156 143 158
f 155 156 157
f 156 158 157
f 139 157 159
f 158 143 160
f 157 158 159
f 158 160 159
f 139 159 161
f 160 143 162
f 159 160 161
f 160 162 161
f 139 161 163
f 162 143 164
f 161 162 163
f 162 164 163
f 139 163 165
f 164 143 166
f 163 164 165
f 164 166 165
f 139 165 167
f 166 143 168
f 165 166 167
f 166 168 167
f 139 167 169
f 168 143 170
f 167 168 169
f 168 170 169
f 139 169 171
f 170 143 172
f 169 170 171
f 170 172 171
f 139 171 173
f 172 143 174
f 171 172 173
f 172 174 173
f 139 173 175
f 174 143 176
f 173 174 175
f 174 176 175
f 139 175 177
f 176 143 178
f 175 176 177
f 176 178 177
f 139 177 179
f 178 143 180
f 177 178 179
f 178 180 179
f 139 179 181
f 180 143 182
f 179 180 181
f 180 182 181
f 139 181 183
f 182 143 184
f 181 182 183
f 182 184 183
f 139 183 185
f 184 143 186
f 183 184 185
f 184 186 185
f 139 185 187
f 186 143 188
f 185 186 187
f 186 188 187
f 139 187 189
f 188 143 190
f 187 188 189
f 188 190 189
f 139 189 191
f 190 143 192
f 189 190 191
f 190 192 191
f 139 191 193
f 192 143 194
f 191 192 193
f 192 194 193
f 139 193 195
f 194 143 196
f 193 194 195
f 194 196 195
f 139 195 197
f 196 143 198
f 195 196 197
f 196 198 197
f 139 197 199
f 198 143 200
f 197 198 199
f 198 200 199
f 139 199 201
f 200 143 202
f 199 200 201
f 200 202 201
f 139 201 203
f 202 143 204
f 201 202 203
f 202 204 203
f 139 203 140
f 204 143 142
f 203 204 140
f 204 142 140
o Motor_Esteira
usemtl cor4
v 2.52500 1.40000 0.56000
v 2.27500 1.40000 0.56000
v 2.52500 1.60000 0.56000
v 2.27500 1.60000 0.56000
v 2.52500 1.40000 0.76000
v 2.27500 1.40000 0.76000
v 2.52500 1.60000 0.76000
v 2.27500 1.60000 0.76000
f 205 206 207
f 207 206 208
f 206 205 209
f 206 209 210
f 207 208 211
f 211 208 212
f 211 212 209
f 209 212 210
f 208 206 212
f 212 206 210
f 205 207 211
f 205 211 209
o Sensor_Fim_Esteira_Corpo
usemtl cor5
v 2.37000 0.67000 0.83000
v 2.33000 0.67000 0.83000
v 2.37000 0.71000 0.83000
v 2.33000 0.71000 0.83000
v 2.37000 0.67000 0.89000
v 2.33000 0.67000 0.89000
v 2.37000 0.71000 0.89000
v 2.33000 0.71000 0.89000
f 213 214 215
f 215 214 216
f 214 213 217
f 214 217 218
f 215 216 219
f 219 216 220
f 219 220 217
f 217 220 218
f 216 214 220
f 220 214 218
f 213 215 219
f 213 219 217
o Calha_Gabarito_Esteira
usemtl cor1
v 0.50000 0.34803 1.01061
v -0.50000 0.34803 1.01061
v 0.50000 0.84327 0.77138
v -0.50000 0.84327 0.77138
v 0.50000 0.35673 1.02862
v -0.50000 0.35673 1.02862
v 0.50000 0.85197 0.78939
v -0.50000 0.85197 0.78939
f 221 222 223
f 223 222 224
f 222 221 225
f 222 225 226
f 223 224 227
f 227 224 228
f 227 228 225
f 225 228 226
f 224 222 228
f 228 222 226
f 221 223 227
f 221 227 225
