# CP05 - 13_cortina_luz_e_intertravamento (metros, Z para cima)
mtllib 13_cortina_luz_e_intertravamento.mtl
o Intertravamento_Porta
usemtl cor0
v 1.48000 -1.61000 1.04000
v 1.42000 -1.61000 1.04000
v 1.48000 -1.57000 1.04000
v 1.42000 -1.57000 1.04000
v 1.48000 -1.61000 1.16000
v 1.42000 -1.61000 1.16000
v 1.48000 -1.57000 1.16000
v 1.42000 -1.57000 1.16000
f 1 2 3
f 3 2 4
f 2 1 5
f 2 5 6
f 3 4 7
f 7 4 8
f 7 8 5
f 5 8 6
f 4 2 8
f 8 2 6
f 1 3 7
f 1 7 5
o Cortina_Saida_A
usemtl cor0
v 1.52000 0.45000 -0.00000
v 1.48000 0.45000 -0.00000
v 1.52000 0.49000 -0.00000
v 1.48000 0.49000 -0.00000
v 1.52000 0.45000 1.70000
v 1.48000 0.45000 1.70000
v 1.52000 0.49000 1.70000
v 1.48000 0.49000 1.70000
f 9 10 11
f 11 10 12
f 10 9 13
f 10 13 14
f 11 12 15
f 15 12 16
f 15 16 13
f 13 16 14
f 12 10 16
f 16 10 14
f 9 11 15
f 9 15 13
o Cortina_Saida_A_topo
usemtl cor1
v 1.52500 0.44500 1.69500
v 1.47500 0.44500 1.69500
v 1.52500 0.49500 1.69500
v 1.47500 0.49500 1.69500
v 1.52500 0.44500 1.74500
v 1.47500 0.44500 1.74500
v 1.52500 0.49500 1.74500
v 1.47500 0.49500 1.74500
f 17 18 19
f 19 18 20
f 18 17 21
f 18 21 22
f 19 20 23
f 23 20 24
f 23 24 21
f 21 24 22
f 20 18 24
f 24 18 22
f 17 19 23
f 17 23 21
o Cortina_Saida_B
usemtl cor0
v 1.52000 1.41000 -0.00000
v 1.48000 1.41000 -0.00000
v 1.52000 1.45000 -0.00000
v 1.48000 1.45000 -0.00000
v 1.52000 1.41000 1.70000
v 1.48000 1.41000 1.70000
v 1.52000 1.45000 1.70000
v 1.48000 1.45000 1.70000
f 25 26 27
f 27 26 28
f 26 25 29
f 26 29 30
f 27 28 31
f 31 28 32
f 31 32 29
f 29 32 30
f 28 26 32
f 32 26 30
f 25 27 31
f 25 31 29
o Cortina_Saida_B_topo
usemtl cor1
v 1.52500 1.40500 1.69500
v 1.47500 1.40500 1.69500
v 1.52500 1.45500 1.69500
v 1.47500 1.45500 1.69500
v 1.52500 1.40500 1.74500
v 1.47500 1.40500 1.74500
v 1.52500 1.45500 1.74500
v 1.47500 1.45500 1.74500
f 33 34 35
f 35 34 36
f 34 33 37
f 34 37 38
f 35 36 39
f 39 36 40
f 39 40 37
f 37 40 38
f 36 34 40
f 40 34 38
f 33 35 39
f 33 39 37
