# CP05 - 14_botoes_emergencia (metros, Z para cima)
mtllib 14_botoes_emergencia.mtl
o Emergencia_1
usemtl cor0
v -1.35500 -1.66500 1.05500
v -1.44500 -1.66500 1.05500
v -1.35500 -1.59500 1.05500
v -1.44500 -1.59500 1.05500
v -1.35500 -1.66500 1.14500
v -1.44500 -1.66500 1.14500
v -1.35500 -1.59500 1.14500
v -1.44500 -1.59500 1.14500
f 1 2 3
f 3 2 4
f 2 1 5
f 2 5 6
f 3 4 7
f 7 4 8
f 7 8 5
f 5 8 6
f 4 2 8
f 8 2 6
f 1 3 7
f 1 7 5
o Emergencia_2
usemtl cor0
v 1.44500 -1.66500 1.05500
v 1.35500 -1.66500 1.05500
v 1.44500 -1.59500 1.05500
v 1.35500 -1.59500 1.05500
v 1.44500 -1.66500 1.14500
v 1.35500 -1.66500 1.14500
v 1.44500 -1.59500 1.14500
v 1.35500 -1.59500 1.14500
f 9 10 11
f 11 10 12
f 10 9 13
f 10 13 14
f 11 12 15
f 15 12 16
f 15 16 13
f 13 16 14
f 12 10 16
f 16 10 14
f 9 11 15
f 9 15 13
o Emergencia_1_Botao
usemtl cor1
v -1.40000 -1.69000 1.10000
v -1.37500 -1.69000 1.10000
v -1.37548 -1.69000 1.10488
v -1.37500 -1.66000 1.10000
v -1.40000 -1.66000 1.10000
v -1.37548 -1.66000 1.10488
v -1.37690 -1.69000 1.10957
v -1.37690 -1.66000 1.10957
v -1.37921 -1.69000 1.11389
v -1.37921 -1.66000 1.11389
v -1.38232 -1.69000 1.11768
v -1.38232 -1.66000 1.11768
v -1.38611 -1.69000 1.12079
v -1.38611 -1.66000 1.12079
v -1.39043 -1.69000 1.12310
v -1.39043 -1.66000 1.12310
v -1.39512 -1.69000 1.12452
v -1.39512 -1.66000 1.12452
v -1.40000 -1.69000 1.12500
v -1.40000 -1.66000 1.12500
v -1.40488 -1.69000 1.12452
v -1.40488 -1.66000 1.12452
v -1.40957 -1.69000 1.12310
v -1.40957 -1.66000 1.12310
v -1.41389 -1.69000 1.12079
v -1.41389 -1.66000 1.12079
v -1.41768 -1.69000 1.11768
v -1.41768 -1.66000 1.11768
v -1.42079 -1.69000 1.11389
v -1.42079 -1.66000 1.11389
v -1.42310 -1.69000 1.10957
v -1.42310 -1.66000 1.10957
v -1.42452 -1.69000 1.10488
v -1.42452 -1.66000 1.10488
v -1.42500 -1.69000 1.10000
v -1.42500 -1.66000 1.10000
v -1.42452 -1.69000 1.09512
v -1.42452 -1.66000 1.09512
v -1.42310 -1.69000 1.09043
v -1.42310 -1.66000 1.09043
v -1.42079 -1.69000 1.08611
v -1.42079 -1.66000 1.08611
v -1.41768 -1.69000 1.08232
v -1.41768 -1.66000 1.08232
v -1.41389 -1.69000 1.07921
v -1.41389 -1.66000 1.07921
v -1.40957 -1.69000 1.07690
v -1.40957 -1.66000 1.07690
v -1.40488 -1.69000 1.07548
v -1.40488 -1.66000 1.07548
v -1.40000 -1.69000 1.07500
v -1.40000 -1.66000 1.07500
v -1.39512 -1.69000 1.07548
v -1.39512 -1.66000 1.07548
v -1.39043 -1.69000 1.07690
v -1.39043 -1.66000 1.07690
v -1.38611 -1.69000 1.07921
v -1.38611 -1.66000 1.07921
v -1.38232 -1.69000 1.08232
v -1.38232 -1.66000 1.08232
v -1.37921 -1.69000 1.08611
v -1.37921 -1.66000 1.08611
v -1.37690 -1.69000 1.09043
v -1.37690 -1.66000 1.09043
v -1.37548 -1.69000 1.09512
v -1.37548 -1.66000 1.09512
f 17 18 19
f 20 21 22
f 18 20 19
f 20 22 19
f 17 19 23
f 22 21 24
f 19 22 23
f 22 24 23
f 17 23 25
f 24 21 26
f 23 24 25
f 24 26 25
f 17 25 27
f 26 21 28
f 25 26 27
f 26 28 27
f 17 27 29
f 28 21 30
f 27 28 29
f 28 30 29
f 17 29 31
f 30 21 32
f 29 30 31
f 30 32 31
f 17 31 33
f 32 21 34
f 31 32 33
f 32 34 33
f 17 33 35
f 34 21 36
f 33 34 35
f 34 36 35
f 17 35 37
f 36 21 38
f 35 36 37
f 36 38 37
f 17 37 39
f 38 21 40
f 37 38 39
f 38 40 39
f 17 39 41
f 40 21 42
f 39 40 41
f 40 42 41
f 17 41 43
f 42 21 44
f 41 42 43
f 42 44 43
f 17 43 45
f 44 21 46
f 43 44 45
f 44 46 45
f 17 45 47
f 46 21 48
f 45 46 47
f 46 48 47
f 17 47 49
f 48 21 50
f 47 48 49
f 48 50 49
f 17 49 51
f 50 21 52
f 49 50 51
f 50 52 51
f 17 51 53
f 52 21 54
f 51 52 53
f 52 54 53
f 17 53 55
f 54 21 56
f 53 54 55
f 54 56 55
f 17 55 57
f 56 21 58
f 55 56 57
f 56 58 57
f 17 57 59
f 58 21 60
f 57 58 59
f 58 60 59
f 17 59 61
f 60 21 62
f 59 60 61
f 60 62 61
f 17 61 63
f 62 21 64
f 61 62 63
f 62 64 63
f 17 63 65
f 64 21 66
f 63 64 65
f 64 66 65
f 17 65 67
f 66 21 68
f 65 66 67
f 66 68 67
f 17 67 69
f 68 21 70
f 67 68 69
f 68 70 69
f 17 69 71
f 70 21 72
f 69 70 71
f 70 72 71
f 17 71 73
f 72 21 74
f 71 72 73
f 72 74 73
f 17 73 75
f 74 21 76
f 73 74 75
f 74 76 75
f 17 75 77
f 76 21 78
f 75 76 77
f 76 78 77
f 17 77 79
f 78 21 80
f 77 78 79
f 78 80 79
f 17 79 81
f 80 21 82
f 79 80 81
f 80 82 81
f 17 81 18
f 82 21 20
f 81 82 18
f 82 20 18
o Emergencia_2_Botao
usemtl cor1
v 1.40000 -1.69000 1.10000
v 1.42500 -1.69000 1.10000
v 1.42452 -1.69000 1.10488
v 1.42500 -1.66000 1.10000
v 1.40000 -1.66000 1.10000
v 1.42452 -1.66000 1.10488
v 1.42310 -1.69000 1.10957
v 1.42310 -1.66000 1.10957
v 1.42079 -1.69000 1.11389
v 1.42079 -1.66000 1.11389
v 1.41768 -1.69000 1.11768
v 1.41768 -1.66000 1.11768
v 1.41389 -1.69000 1.12079
v 1.41389 -1.66000 1.12079
v 1.40957 -1.69000 1.12310
v 1.40957 -1.66000 1.12310
v 1.40488 -1.69000 1.12452
v 1.40488 -1.66000 1.12452
v 1.40000 -1.69000 1.12500
v 1.40000 -1.66000 1.12500
v 1.39512 -1.69000 1.12452
v 1.39512 -1.66000 1.12452
v 1.39043 -1.69000 1.12310
v 1.39043 -1.66000 1.12310
v 1.38611 -1.69000 1.12079
v 1.38611 -1.66000 1.12079
v 1.38232 -1.69000 1.11768
v 1.38232 -1.66000 1.11768
v 1.37921 -1.69000 1.11389
v 1.37921 -1.66000 1.11389
v 1.37690 -1.69000 1.10957
v 1.37690 -1.66000 1.10957
v 1.37548 -1.69000 1.10488
v 1.37548 -1.66000 1.10488
v 1.37500 -1.69000 1.10000
v 1.37500 -1.66000 1.10000
v 1.37548 -1.69000 1.09512
v 1.37548 -1.66000 1.09512
v 1.37690 -1.69000 1.09043
v 1.37690 -1.66000 1.09043
v 1.37921 -1.69000 1.08611
v 1.37921 -1.66000 1.08611
v 1.38232 -1.69000 1.08232
v 1.38232 -1.66000 1.08232
v 1.38611 -1.69000 1.07921
v 1.38611 -1.66000 1.07921
v 1.39043 -1.69000 1.07690
v 1.39043 -1.66000 1.07690
v 1.39512 -1.69000 1.07548
v 1.39512 -1.66000 1.07548
v 1.40000 -1.69000 1.07500
v 1.40000 -1.66000 1.07500
v 1.40488 -1.69000 1.07548
v 1.40488 -1.66000 1.07548
v 1.40957 -1.69000 1.07690
v 1.40957 -1.66000 1.07690
v 1.41389 -1.69000 1.07921
v 1.41389 -1.66000 1.07921
v 1.41768 -1.69000 1.08232
v 1.41768 -1.66000 1.08232
v 1.42079 -1.69000 1.08611
v 1.42079 -1.66000 1.08611
v 1.42310 -1.69000 1.09043
v 1.42310 -1.66000 1.09043
v 1.42452 -1.69000 1.09512
v 1.42452 -1.66000 1.09512
f 83 84 85
f 86 87 88
f 84 86 85
f 86 88 85
f 83 85 89
f 88 87 90
f 85 88 89
f 88 90 89
f 83 89 91
f 90 87 92
f 89 90 91
f 90 92 91
f 83 91 93
f 92 87 94
f 91 92 93
f 92 94 93
f 83 93 95
f 94 87 96
f 93 94 95
f 94 96 95
f 83 95 97
f 96 87 98
f 95 96 97
f 96 98 97
f 83 97 99
f 98 87 100
f 97 98 99
f 98 100 99
f 83 99 101
f 100 87 102
f 99 100 101
f 100 102 101
f 83 101 103
f 102 87 104
f 101 102 103
f 102 104 103
f 83 103 105
f 104 87 106
f 103 104 105
f 104 106 105
f 83 105 107
f 106 87 108
f 105 106 107
f 106 108 107
f 83 107 109
f 108 87 110
f 107 108 109
f 108 110 109
f 83 109 111
f 110 87 112
f 109 110 111
f 110 112 111
f 83 111 113
f 112 87 114
f 111 112 113
f 112 114 113
f 83 113 115
f 114 87 116
f 113 114 115
f 114 116 115
f 83 115 117
f 116 87 118
f 115 116 117
f 116 118 117
f 83 117 119
f 118 87 120
f 117 118 119
f 118 120 119
f 83 119 121
f 120 87 122
f 119 120 121
f 120 122 121
f 83 121 123
f 122 87 124
f 121 122 123
f 122 124 123
f 83 123 125
f 124 87 126
f 123 124 125
f 124 126 125
f 83 125 127
f 126 87 128
f 125 126 127
f 126 128 127
f 83 127 129
f 128 87 130
f 127 128 129
f 128 130 129
f 83 129 131
f 130 87 132
f 129 130 131
f 130 132 131
f 83 131 133
f 132 87 134
f 131 132 133
f 132 134 133
f 83 133 135
f 134 87 136
f 133 134 135
f 134 136 135
f 83 135 137
f 136 87 138
f 135 136 137
f 136 138 137
f 83 137 139
f 138 87 140
f 137 138 139
f 138 140 139
f 83 139 141
f 140 87 142
f 139 140 141
f 140 142 141
f 83 141 143
f 142 87 144
f 141 142 143
f 142 144 143
f 83 143 145
f 144 87 146
f 143 144 145
f 144 146 145
f 83 145 147
f 146 87 148
f 145 146 147
f 146 148 147
f 83 147 84
f 148 87 86
f 147 148 84
f 148 86 84
