# CP05 - 16_tambor_cola_bomba_mangueira (metros, Z para cima)
mtllib 16_tambor_cola_bomba_mangueira.mtl
o Base_Tambor_Cola
usemtl cor0
v -0.50000 -2.85000 -0.00000
v -1.30000 -2.85000 -0.00000
v -0.50000 -2.05000 -0.00000
v -1.30000 -2.05000 -0.00000
v -0.50000 -2.85000 0.10000
v -1.30000 -2.85000 0.10000
v -0.50000 -2.05000 0.10000
v -1.30000 -2.05000 0.10000
f 1 2 3
f 3 2 4
f 2 1 5
f 2 5 6
f 3 4 7
f 7 4 8
f 7 8 5
f 5 8 6
f 4 2 8
f 8 2 6
f 1 3 7
f 1 7 5
o Tambor_Cola
usemtl cor1
v -0.90000 -2.45000 0.98000
v -0.61000 -2.45000 0.98000
v -0.61557 -2.39342 0.98000
v -0.61000 -2.45000 0.10000
v -0.90000 -2.45000 0.10000
v -0.61557 -2.39342 0.10000
v -0.63207 -2.33902 0.98000
v -0.63207 -2.33902 0.10000
v -0.65887 -2.28888 0.98000
v -0.65887 -2.28888 0.10000
v -0.69494 -2.24494 0.98000
v -0.69494 -2.24494 0.10000
v -0.73888 -2.20887 0.98000
v -0.73888 -2.20887 0.10000
v -0.78902 -2.18207 0.98000
v -0.78902 -2.18207 0.10000
v -0.84342 -2.16557 0.98000
v -0.84342 -2.16557 0.10000
v -0.90000 -2.16000 0.98000
v -0.90000 -2.16000 0.10000
v -0.95658 -2.16557 0.98000
v -0.95658 -2.16557 0.10000
v -1.01098 -2.18207 0.98000
v -1.01098 -2.18207 0.10000
v -1.06112 -2.20887 0.98000
v -1.06112 -2.20887 0.10000
v -1.10506 -2.24494 0.98000
v -1.10506 -2.24494 0.10000
v -1.14113 -2.28888 0.98000
v -1.14113 -2.28888 0.10000
v -1.16793 -2.33902 0.98000
v -1.16793 -2.33902 0.10000
v -1.18443 -2.39342 0.98000
v -1.18443 -2.39342 0.10000
v -1.19000 -2.45000 0.98000
v -1.19000 -2.45000 0.10000
v -1.18443 -2.50658 0.98000
v -1.18443 -2.50658 0.10000
v -1.16793 -2.56098 0.98000
v -1.16793 -2.56098 0.10000
v -1.14113 -2.61112 0.98000
v -1.14113 -2.61112 0.10000
v -1.10506 -2.65506 0.98000
v -1.10506 -2.65506 0.10000
v -1.06112 -2.69113 0.98000
v -1.06112 -2.69113 0.10000
v -1.01098 -2.71793 0.98000
v -1.01098 -2.71793 0.10000
v -0.95658 -2.73443 0.98000
v -0.95658 -2.73443 0.10000
v -0.90000 -2.74000 0.98000
v -0.90000 -2.74000 0.10000
v -0.84342 -2.73443 0.98000
v -0.84342 -2.73443 0.10000
v -0.78902 -2.71793 0.98000
v -0.78902 -2.71793 0.10000
v -0.73888 -2.69113 0.98000
v -0.73888 -2.69113 0.10000
v -0.69494 -2.65506 0.98000
v -0.69494 -2.65506 0.10000
v -0.65887 -2.61112 0.98000
v -0.65887 -2.61112 0.10000
v -0.63207 -2.56098 0.98000
v -0.63207 -2.56098 0.10000
v -0.61557 -2.50658 0.98000
v -0.61557 -2.50658 0.10000
f 9 10 11
f 12 13 14
f 10 12 11
f 12 14 11
f 9 11 15
f 14 13 16
f 11 14 15
f 14 16 15
f 9 15 17
f 16 13 18
f 15 16 17
f 16 18 17
f 9 17 19
f 18 13 20
f 17 18 19
f 18 20 19
f 9 19 21
f 20 13 22
f 19 20 21
f 20 22 21
f 9 21 23
f 22 13 24
f 21 22 23
f 22 24 23
f 9 23 25
f 24 13 26
f 23 24 25
f 24 26 25
f 9 25 27
f 26 13 28
f 25 26 27
f 26 28 27
f 9 27 29
f 28 13 30
f 27 28 29
f 28 30 29
f 9 29 31
f 30 13 32
f 29 30 31
f 30 32 31
f 9 31 33
f 32 13 34
f 31 32 33
f 32 34 33
f 9 33 35
f 34 13 36
f 33 34 35
f 34 36 35
f 9 35 37
f 36 13 38
f 35 36 37
f 36 38 37
f 9 37 39
f 38 13 40
f 37 38 39
f 38 40 39
f 9 39 41
f 40 13 42
f 39 40 41
f 40 42 41
f 9 41 43
f 42 13 44
f 41 42 43
f 42 44 43
f 9 43 45
f 44 13 46
f 43 44 45
f 44 46 45
f 9 45 47
f 46 13 48
f 45 46 47
f 46 48 47
f 9 47 49
f 48 13 50
f 47 48 49
f 48 50 49
f 9 49 51
f 50 13 52
f 49 50 51
f 50 52 51
f 9 51 53
f 52 13 54
f 51 52 53
f 52 54 53
f 9 53 55
f 54 13 56
f 53 54 55
f 54 56 55
f 9 55 57
f 56 13 58
f 55 56 57
f 56 58 57
f 9 57 59
f 58 13 60
f 57 58 59
f 58 60 59
f 9 59 61
f 60 13 62
f 59 60 61
f 60 62 61
f 9 61 63
f 62 13 64
f 61 62 63
f 62 64 63
f 9 63 65
f 64 13 66
f 63 64 65
f 64 66 65
f 9 65 67
f 66 13 68
f 65 66 67
f 66 68 67
f 9 67 69
f 68 13 70
f 67 68 69
f 68 70 69
f 9 69 71
f 70 13 72
f 69 70 71
f 70 72 71
f 9 71 73
f 72 13 74
f 71 72 73
f 72 74 73
f 9 73 10
f 74 13 12
f 73 74 10
f 74 12 10
o Bomba_Cola
usemtl cor2
v -0.90000 -2.45000 1.52500
v -0.83000 -2.45000 1.52500
v -0.83135 -2.43634 1.52500
v -0.83000 -2.45000 0.97500
v -0.90000 -2.45000 0.97500
v -0.83135 -2.43634 0.97500
v -0.83533 -2.42321 1.52500
v -0.83533 -2.42321 0.97500
v -0.84180 -2.41111 1.52500
v -0.84180 -2.41111 0.97500
v -0.85050 -2.40050 1.52500
v -0.85050 -2.40050 0.97500
v -0.86111 -2.39180 1.52500
v -0.86111 -2.39180 0.97500
v -0.87321 -2.38533 1.52500
v -0.87321 -2.38533 0.97500
v -0.88634 -2.38135 1.52500
v -0.88634 -2.38135 0.97500
v -0.90000 -2.38000 1.52500
v -0.90000 -2.38000 0.97500
v -0.91366 -2.38135 1.52500
v -0.91366 -2.38135 0.97500
v -0.92679 -2.38533 1.52500
v -0.92679 -2.38533 0.97500
v -0.93889 -2.39180 1.52500
v -0.93889 -2.39180 0.97500
v -0.94950 -2.40050 1.52500
v -0.94950 -2.40050 0.97500
v -0.95820 -2.41111 1.52500
v -0.95820 -2.41111 0.97500
v -0.96467 -2.42321 1.52500
v -0.96467 -2.42321 0.97500
v -0.96865 -2.43634 1.52500
v -0.96865 -2.43634 0.97500
v -0.97000 -2.45000 1.52500
v -0.97000 -2.45000 0.97500
v -0.96865 -2.46366 1.52500
v -0.96865 -2.46366 0.97500
v -0.96467 -2.47679 1.52500
v -0.96467 -2.47679 0.97500
v -0.95820 -2.48889 1.52500
v -0.95820 -2.48889 0.97500
v -0.94950 -2.49950 1.52500
v -0.94950 -2.49950 0.97500
v -0.93889 -2.50820 1.52500
v -0.93889 -2.50820 0.97500
v -0.92679 -2.51467 1.52500
v -0.92679 -2.51467 0.97500
v -0.91366 -2.51865 1.52500
v -0.91366 -2.51865 0.97500
v -0.90000 -2.52000 1.52500
v -0.90000 -2.52000 0.97500
v -0.88634 -2.51865 1.52500
v -0.88634 -2.51865 0.97500
v -0.87321 -2.51467 1.52500
v -0.87321 -2.51467 0.97500
v -0.86111 -2.50820 1.52500
v -0.86111 -2.50820 0.97500
v -0.85050 -2.49950 1.52500
v -0.85050 -2.49950 0.97500
v -0.84180 -2.48889 1.52500
v -0.84180 -2.48889 0.97500
v -0.83533 -2.47679 1.52500
v -0.83533 -2.47679 0.97500
v -0.83135 -2.46366 1.52500
v -0.83135 -2.46366 0.97500
f 75 76 77
f 78 79 80
f 76 78 77
f 78 80 77
f 75 77 81
f 80 79 82
f 77 80 81
f 80 82 81
f 75 81 83
f 82 79 84
f 81 82 83
f 82 84 83
f 75 83 85
f 84 79 86
f 83 84 85
f 84 86 85
f 75 85 87
f 86 79 88
f 85 86 87
f 86 88 87
f 75 87 89
f 88 79 90
f 87 88 89
f 88 90 89
f 75 89 91
f 90 79 92
f 89 90 91
f 90 92 91
f 75 91 93
f 92 79 94
f 91 92 93
f 92 94 93
f 75 93 95
f 94 79 96
f 93 94 95
f 94 96 95
f 75 95 97
f 96 79 98
f 95 96 97
f 96 98 97
f 75 97 99
f 98 79 100
f 97 98 99
f 98 100 99
f 75 99 101
f 100 79 102
f 99 100 101
f 100 102 101
f 75 101 103
f 102 79 104
f 101 102 103
f 102 104 103
f 75 103 105
f 104 79 106
f 103 104 105
f 104 106 105
f 75 105 107
f 106 79 108
f 105 106 107
f 106 108 107
f 75 107 109
f 108 79 110
f 107 108 109
f 108 110 109
f 75 109 111
f 110 79 112
f 109 110 111
f 110 112 111
f 75 111 113
f 112 79 114
f 111 112 113
f 112 114 113
f 75 113 115
f 114 79 116
f 113 114 115
f 114 116 115
f 75 115 117
f 116 79 118
f 115 116 117
f 116 118 117
f 75 117 119
f 118 79 120
f 117 118 119
f 118 120 119
f 75 119 121
f 120 79 122
f 119 120 121
f 120 122 121
f 75 121 123
f 122 79 124
f 121 122 123
f 122 124 123
f 75 123 125
f 124 79 126
f 123 124 125
f 124 126 125
f 75 125 127
f 126 79 128
f 125 126 127
f 126 128 127
f 75 127 129
f 128 79 130
f 127 128 129
f 128 130 129
f 75 129 131
f 130 79 132
f 129 130 131
f 130 132 131
f 75 131 133
f 132 79 134
f 131 132 133
f 132 134 133
f 75 133 135
f 134 79 136
f 133 134 135
f 134 136 135
f 75 135 137
f 136 79 138
f 135 136 137
f 136 138 137
f 75 137 139
f 138 79 140
f 137 138 139
f 138 140 139
f 75 139 76
f 140 79 78
f 139 140 76
f 140 78 76
o Controlador_Dosagem
usemtl cor0
v -0.20000 -2.40000 0.80000
v -0.50000 -2.40000 0.80000
v -0.20000 -2.20000 0.80000
v -0.50000 -2.20000 0.80000
v -0.20000 -2.40000 1.20000
v -0.50000 -2.40000 1.20000
v -0.20000 -2.20000 1.20000
v -0.50000 -2.20000 1.20000
f 141 142 143
f 143 142 144
f 142 141 145
f 142 145 146
f 143 144 147
f 147 144 148
f 147 148 145
f 145 148 146
f 144 142 148
f 148 142 146
f 141 143 147
f 141 147 145
o Mangueira_Cola_1
usemtl cor3
v -0.20000 -1.60000 2.25000
v -0.21389 -1.58856 2.25000
v -0.21488 -1.59030 2.25290
v -0.91389 -2.43856 1.50000
v -0.90000 -2.45000 1.50000
v -0.91488 -2.44030 1.50290
v -0.21530 -1.59242 2.25569
v -0.91530 -2.44242 1.50569
v -0.21513 -1.59483 2.25827
v -0.91513 -2.44483 1.50827
v -0.21438 -1.59744 2.26052
v -0.91438 -2.44744 1.51052
v -0.21308 -1.60015 2.26237
v -0.91308 -2.45015 1.51237
v -0.21127 -1.60285 2.26374
v -0.91127 -2.45285 1.51374
v -0.20903 -1.60544 2.26459
v -0.90903 -2.45544 1.51459
v -0.20644 -1.60782 2.26488
v -0.90644 -2.45782 1.51488
v -0.20361 -1.60990 2.26459
v -0.90361 -2.45990 1.51459
v -0.20063 -1.61161 2.26374
v -0.90063 -2.46161 1.51374
v -0.19764 -1.61286 2.26237
v -0.89764 -2.46286 1.51237
v -0.19473 -1.61362 2.26052
v -0.89473 -2.46362 1.51052
v -0.19203 -1.61386 2.25827
v -0.89203 -2.46386 1.50827
v -0.18963 -1.61357 2.25569
v -0.88963 -2.46357 1.50569
v -0.18763 -1.61275 2.25290
v -0.88763 -2.46275 1.50290
v -0.18611 -1.61144 2.25000
v -0.88611 -2.46144 1.50000
v -0.18512 -1.60970 2.24710
v -0.88512 -2.45970 1.49710
v -0.18470 -1.60758 2.24431
v -0.88470 -2.45758 1.49431
v -0.18487 -1.60517 2.24173
v -0.88487 -2.45517 1.49173
v -0.18562 -1.60256 2.23948
v -0.88562 -2.45256 1.48948
v -0.18692 -1.59985 2.23763
v -0.88692 -2.44985 1.48763
v -0.18873 -1.59715 2.23626
v -0.88873 -2.44715 1.48626
v -0.19097 -1.59456 2.23541
v -0.89097 -2.44456 1.48541
v -0.19356 -1.59218 2.23512
v -0.89356 -2.44218 1.48512
v -0.19639 -1.59010 2.23541
v -0.89639 -2.44010 1.48541
v -0.19937 -1.58839 2.23626
v -0.89937 -2.43839 1.48626
v -0.20236 -1.58714 2.23763
v -0.90236 -2.43714 1.48763
v -0.20527 -1.58638 2.23948
v -0.90527 -2.43638 1.48948
v -0.20797 -1.58614 2.24173
v -0.90797 -2.43614 1.49173
v -0.21037 -1.58643 2.24431
v -0.91037 -2.43643 1.49431
v -0.21237 -1.58725 2.24710
v -0.91237 -2.43725 1.49710
f 149 150 151
f 152 153 154
f 150 152 151
f 152 154 151
f 149 151 155
f 154 153 156
f 151 154 155
f 154 156 155
f 149 155 157
f 156 153 158
f 155 156 157
f 156 158 157
f 149 157 159
f 158 153 160
f 157 158 159
f 158 160 159
f 149 159 161
f 160 153 162
f 159 160 161
f 160 162 161
f 149 161 163
f 162 153 164
f 161 162 163
f 162 164 163
f 149 163 165
f 164 153 166
f 163 164 165
f 164 166 165
f 149 165 167
f 166 153 168
f 165 166 167
f 166 168 167
f 149 167 169
f 168 153 170
f 167 168 169
f 168 170 169
f 149 169 171
f 170 153 172
f 169 170 171
f 170 172 171
f 149 171 173
f 172 153 174
f 171 172 173
f 172 174 173
f 149 173 175
f 174 153 176
f 173 174 175
f 174 176 175
f 149 175 177
f 176 153 178
f 175 176 177
f 176 178 177
f 149 177 179
f 178 153 180
f 177 178 179
f 178 180 179
f 149 179 181
f 180 153 182
f 179 180 181
f 180 182 181
f 149 181 183
f 182 153 184
f 181 182 183
f 182 184 183
f 149 183 185
f 184 153 186
f 183 184 185
f 184 186 185
f 149 185 187
f 186 153 188
f 185 186 187
f 186 188 187
f 149 187 189
f 188 153 190
f 187 188 189
f 188 190 189
f 149 189 191
f 190 153 192
f 189 190 191
f 190 192 191
f 149 191 193
f 192 153 194
f 191 192 193
f 192 194 193
f 149 193 195
f 194 153 196
f 193 194 195
f 194 196 195
f 149 195 197
f 196 153 198
f 195 196 197
f 196 198 197
f 149 197 199
f 198 153 200
f 197 198 199
f 198 200 199
f 149 199 201
f 200 153 202
f 199 200 201
f 200 202 201
f 149 201 203
f 202 153 204
f 201 202 203
f 202 204 203
f 149 203 205
f 204 153 206
f 203 204 205
f 204 206 205
f 149 205 207
f 206 153 208
f 205 206 207
f 206 208 207
f 149 207 209
f 208 153 210
f 207 208 209
f 208 210 209
f 149 209 211
f 210 153 212
f 209 210 211
f 210 212 211
f 149 211 213
f 212 153 214
f 211 212 213
f 212 214 213
f 149 213 150
f 214 153 152
f 213 214 150
f 214 152 150
o Mangueira_Cola_2
usemtl cor3
v -0.20000 -0.86000 2.25000
v -0.21800 -0.86000 2.25000
v -0.21765 -0.86000 2.25351
v -0.21800 -1.60000 2.25000
v -0.20000 -1.60000 2.25000
v -0.21765 -1.60000 2.25351
v -0.21663 -0.86000 2.25689
v -0.21663 -1.60000 2.25689
v -0.21497 -0.86000 2.26000
v -0.21497 -1.60000 2.26000
v -0.21273 -0.86000 2.26273
v -0.21273 -1.60000 2.26273
v -0.21000 -0.86000 2.26497
v -0.21000 -1.60000 2.26497
v -0.20689 -0.86000 2.26663
v -0.20689 -1.60000 2.26663
v -0.20351 -0.86000 2.26765
v -0.20351 -1.60000 2.26765
v -0.20000 -0.86000 2.26800
v -0.20000 -1.60000 2.26800
v -0.19649 -0.86000 2.26765
v -0.19649 -1.60000 2.26765
v -0.19311 -0.86000 2.26663
v -0.19311 -1.60000 2.26663
v -0.19000 -0.86000 2.26497
v -0.19000 -1.60000 2.26497
v -0.18727 -0.86000 2.26273
v -0.18727 -1.60000 2.26273
v -0.18503 -0.86000 2.26000
v -0.18503 -1.60000 2.26000
v -0.18337 -0.86000 2.25689
v -0.18337 -1.60000 2.25689
v -0.18235 -0.86000 2.25351
v -0.18235 -1.60000 2.25351
v -0.18200 -0.86000 2.25000
v -0.18200 -1.60000 2.25000
v -0.18235 -0.86000 2.24649
v -0.18235 -1.60000 2.24649
v -0.18337 -0.86000 2.24311
v -0.18337 -1.60000 2.24311
v -0.18503 -0.86000 2.24000
v -0.18503 -1.60000 2.24000
v -0.18727 -0.86000 2.23727
v -0.18727 -1.60000 2.23727
v -0.19000 -0.86000 2.23503
v -0.19000 -1.60000 2.23503
v -0.19311 -0.86000 2.23337
v -0.19311 -1.60000 2.23337
v -0.19649 -0.86000 2.23235
v -0.19649 -1.60000 2.23235
v -0.20000 -0.86000 2.23200
v -0.20000 -1.60000 2.23200
v -0.20351 -0.86000 2.23235
v -0.20351 -1.60000 2.23235
v -0.20689 -0.86000 2.23337
v -0.20689 -1.60000 2.23337
v -0.21000 -0.86000 2.23503
v -0.21000 -1.60000 2.23503
v -0.21273 -0.86000 2.23727
v -0.21273 -1.60000 2.23727
v -0.21497 -0.86000 2.24000
v -0.21497 -1.60000 2.24000
v -0.21663 -0.86000 2.24311
v -0.21663 -1.60000 2.24311
v -0.21765 -0.86000 2.24649
v -0.21765 -1.60000 2.24649
f 215 216 217
f 218 219 220
f 216 218 217
f 218 220 217
f 215 217 221
f 220 219 222
f 217 220 221
f 220 222 221
f 215 221 223
f 222 219 224
f 221 222 223
f 222 224 223
f 215 223 225
f 224 219 226
f 223 224 225
f 224 226 225
f 215 225 227
f 226 219 228
f 225 226 227
f 226 228 227
f 215 227 229
f 228 219 230
f 227 228 229
f 228 230 229
f 215 229 231
f 230 219 232
f 229 230 231
f 230 232 231
f 215 231 233
f 232 219 234
f 231 232 233
f 232 234 233
f 215 233 235
f 234 219 236
f 233 234 235
f 234 236 235
f 215 235 237
f 236 219 238
f 235 236 237
f 236 238 237
f 215 237 239
f 238 219 240
f 237 238 239
f 238 240 239
f 215 239 241
f 240 219 242
f 239 240 241
f 240 242 241
f 215 241 243
f 242 219 244
f 241 242 243
f 242 244 243
f 215 243 245
f 244 219 246
f 243 244 245
f 244 246 245
f 215 245 247
f 246 219 248
f 245 246 247
f 246 248 247
f 215 247 249
f 248 219 250
f 247 248 249
f 248 250 249
f 215 249 251
f 250 219 252
f 249 250 251
f 250 252 251
f 215 251 253
f 252 219 254
f 251 252 253
f 252 254 253
f 215 253 255
f 254 219 256
f 253 254 255
f 254 256 255
f 215 255 257
f 256 219 258
f 255 256 257
f 256 258 257
f 215 257 259
f 258 219 260
f 257 258 259
f 258 260 259
f 215 259 261
f 260 219 262
f 259 260 261
f 260 262 261
f 215 261 263
f 262 219 264
f 261 262 263
f 262 264 263
f 215 263 265
f 264 219 266
f 263 264 265
f 264 266 265
f 215 265 267
f 266 219 268
f 265 266 267
f 266 268 267
f 215 267 269
f 268 219 270
f 267 268 269
f 268 270 269
f 215 269 271
f 270 219 272
f 269 270 271
f 270 272 271
f 215 271 273
f 272 219 274
f 271 272 273
f 272 274 273
f 215 273 275
f 274 219 276
f 273 274 275
f 274 276 275
f 215 275 277
f 276 219 278
f 275 276 277
f 276 278 277
f 215 277 279
f 278 219 280
f 277 278 279
f 278 280 279
f 215 279 216
f 280 219 218
f 279 280 216
f 280 218 216
o Mangueira_Cola_3
usemtl cor3
v -0.20000 -0.86000 0.60000
v -0.20000 -0.84200 0.60000
v -0.19649 -0.84235 0.60000
v -0.20000 -0.84200 2.25000
v -0.20000 -0.86000 2.25000
v -0.19649 -0.84235 2.25000
v -0.19311 -0.84337 0.60000
v -0.19311 -0.84337 2.25000
v -0.19000 -0.84503 0.60000
v -0.19000 -0.84503 2.25000
v -0.18727 -0.84727 0.60000
v -0.18727 -0.84727 2.25000
v -0.18503 -0.85000 0.60000
v -0.18503 -0.85000 2.25000
v -0.18337 -0.85311 0.60000
v -0.18337 -0.85311 2.25000
v -0.18235 -0.85649 0.60000
v -0.18235 -0.85649 2.25000
v -0.18200 -0.86000 0.60000
v -0.18200 -0.86000 2.25000
v -0.18235 -0.86351 0.60000
v -0.18235 -0.86351 2.25000
v -0.18337 -0.86689 0.60000
v -0.18337 -0.86689 2.25000
v -0.18503 -0.87000 0.60000
v -0.18503 -0.87000 2.25000
v -0.18727 -0.87273 0.60000
v -0.18727 -0.87273 2.25000
v -0.19000 -0.87497 0.60000
v -0.19000 -0.87497 2.25000
v -0.19311 -0.87663 0.60000
v -0.19311 -0.87663 2.25000
v -0.19649 -0.87765 0.60000
v -0.19649 -0.87765 2.25000
v -0.20000 -0.87800 0.60000
v -0.20000 -0.87800 2.25000
v -0.20351 -0.87765 0.60000
v -0.20351 -0.87765 2.25000
v -0.20689 -0.87663 0.60000
v -0.20689 -0.87663 2.25000
v -0.21000 -0.87497 0.60000
v -0.21000 -0.87497 2.25000
v -0.21273 -0.87273 0.60000
v -0.21273 -0.87273 2.25000
v -0.21497 -0.87000 0.60000
v -0.21497 -0.87000 2.25000
v -0.21663 -0.86689 0.60000
v -0.21663 -0.86689 2.25000
v -0.21765 -0.86351 0.60000
v -0.21765 -0.86351 2.25000
v -0.21800 -0.86000 0.60000
v -0.21800 -0.86000 2.25000
v -0.21765 -0.85649 0.60000
v -0.21765 -0.85649 2.25000
v -0.21663 -0.85311 0.60000
v -0.21663 -0.85311 2.25000
v -0.21497 -0.85000 0.60000
v -0.21497 -0.85000 2.25000
v -0.21273 -0.84727 0.60000
v -0.21273 -0.84727 2.25000
v -0.21000 -0.84503 0.60000
v -0.21000 -0.84503 2.25000
v -0.20689 -0.84337 0.60000
v -0.20689 -0.84337 2.25000
v -0.20351 -0.84235 0.60000
v -0.20351 -0.84235 2.25000
f 281 282 283
f 284 285 286
f 282 284 283
f 284 286 283
f 281 283 287
f 286 285 288
f 283 286 287
f 286 288 287
f 281 287 289
f 288 285 290
f 287 288 289
f 288 290 289
f 281 289 291
f 290 285 292
f 289 290 291
f 290 292 291
f 281 291 293
f 292 285 294
f 291 292 293
f 292 294 293
f 281 293 295
f 294 285 296
f 293 294 295
f 294 296 295
f 281 295 297
f 296 285 298
f 295 296 297
f 296 298 297
f 281 297 299
f 298 285 300
f 297 298 299
f 298 300 299
f 281 299 301
f 300 285 302
f 299 300 301
f 300 302 301
f 281 301 303
f 302 285 304
f 301 302 303
f 302 304 303
f 281 303 305
f 304 285 306
f 303 304 305
f 304 306 305
f 281 305 307
f 306 285 308
f 305 306 307
f 306 308 307
f 281 307 309
f 308 285 310
f 307 308 309
f 308 310 309
f 281 309 311
f 310 285 312
f 309 310 311
f 310 312 311
f 281 311 313
f 312 285 314
f 311 312 313
f 312 314 313
f 281 313 315
f 314 285 316
f 313 314 315
f 314 316 315
f 281 315 317
f 316 285 318
f 315 316 317
f 316 318 317
f 281 317 319
f 318 285 320
f 317 318 319
f 318 320 319
f 281 319 321
f 320 285 322
f 319 320 321
f 320 322 321
f 281 321 323
f 322 285 324
f 321 322 323
f 322 324 323
f 281 323 325
f 324 285 326
f 323 324 325
f 324 326 325
f 281 325 327
f 326 285 328
f 325 326 327
f 326 328 327
f 281 327 329
f 328 285 330
f 327 328 329
f 328 330 329
f 281 329 331
f 330 285 332
f 329 330 331
f 330 332 331
f 281 331 333
f 332 285 334
f 331 332 333
f 332 334 333
f 281 333 335
f 334 285 336
f 333 334 335
f 334 336 335
f 281 335 337
f 336 285 338
f 335 336 337
f 336 338 337
f 281 337 339
f 338 285 340
f 337 338 339
f 338 340 339
f 281 339 341
f 340 285 342
f 339 340 341
f 340 342 341
f 281 341 343
f 342 285 344
f 341 342 343
f 342 344 343
f 281 343 345
f 344 285 346
f 343 344 345
f 344 346 345
f 281 345 282
f 346 285 284
f 345 346 282
f 346 284 282
