# CP05 - 17_rolos_borracha_emenda (metros, Z para cima)
mtllib 17_rolos_borracha_emenda.mtl
o Suporte_Rolos_Base
usemtl cor0
v 1.60000 -2.70000 0.00000
v 0.20000 -2.70000 0.00000
v 1.60000 -2.20000 0.00000
v 0.20000 -2.20000 0.00000
v 1.60000 -2.70000 0.06000
v 0.20000 -2.70000 0.06000
v 1.60000 -2.20000 0.06000
v 0.20000 -2.20000 0.06000
f 1 2 3
f 3 2 4
f 2 1 5
f 2 5 6
f 3 4 7
f 7 4 8
f 7 8 5
f 5 8 6
f 4 2 8
f 8 2 6
f 1 3 7
f 1 7 5
o Suporte_Rolos_Coluna
usemtl cor1
v 0.94000 -2.49000 0.03000
v 0.86000 -2.49000 0.03000
v 0.94000 -2.41000 0.03000
v 0.86000 -2.41000 0.03000
v 0.94000 -2.49000 1.03000
v 0.86000 -2.49000 1.03000
v 0.94000 -2.41000 1.03000
v 0.86000 -2.41000 1.03000
f 9 10 11
f 11 10 12
f 10 9 13
f 10 13 14
f 11 12 15
f 15 12 16
f 15 16 13
f 13 16 14
f 12 10 16
f 16 10 14
f 9 11 15
f 9 15 13
o Rolo_Perfil_A
usemtl cor2
v 0.50000 -2.49500 0.90000
v 0.84000 -2.49500 0.90000
v 0.83347 -2.49500 0.96633
v 0.84000 -2.40500 0.90000
v 0.50000 -2.40500 0.90000
v 0.83347 -2.40500 0.96633
v 0.81412 -2.49500 1.03011
v 0.81412 -2.40500 1.03011
v 0.78270 -2.49500 1.08889
v 0.78270 -2.40500 1.08889
v 0.74042 -2.49500 1.14042
v 0.74042 -2.40500 1.14042
v 0.68889 -2.49500 1.18270
v 0.68889 -2.40500 1.18270
v 0.63011 -2.49500 1.21412
v 0.63011 -2.40500 1.21412
v 0.56633 -2.49500 1.23347
v 0.56633 -2.40500 1.23347
v 0.50000 -2.49500 1.24000
v 0.50000 -2.40500 1.24000
v 0.43367 -2.49500 1.23347
v 0.43367 -2.40500 1.23347
v 0.36989 -2.49500 1.21412
v 0.36989 -2.40500 1.21412
v 0.31111 -2.49500 1.18270
v 0.31111 -2.40500 1.18270
v 0.25958 -2.49500 1.14042
v 0.25958 -2.40500 1.14042
v 0.21730 -2.49500 1.08889
v 0.21730 -2.40500 1.08889
v 0.18588 -2.49500 1.03011
v 0.18588 -2.40500 1.03011
v 0.16653 -2.49500 0.96633
v 0.16653 -2.40500 0.96633
v 0.16000 -2.49500 0.90000
v 0.16000 -2.40500 0.90000
v 0.16653 -2.49500 0.83367
v 0.16653 -2.40500 0.83367
v 0.18588 -2.49500 0.76989
v 0.18588 -2.40500 0.76989
v 0.21730 -2.49500 0.71111
v 0.21730 -2.40500 0.71111
v 0.25958 -2.49500 0.65958
v 0.25958 -2.40500 0.65958
v 0.31111 -2.49500 0.61730
v 0.31111 -2.40500 0.61730
v 0.36989 -2.49500 0.58588
v 0.36989 -2.40500 0.58588
v 0.43367 -2.49500 0.56653
v 0.43367 -2.40500 0.56653
v 0.50000 -2.49500 0.56000
v 0.50000 -2.40500 0.56000
v 0.56633 -2.49500 0.56653
v 0.56633 -2.40500 0.56653
v 0.63011 -2.49500 0.58588
v 0.63011 -2.40500 0.58588
v 0.68889 -2.49500 0.61730
v 0.68889 -2.40500 0.61730
v 0.74042 -2.49500 0.65958
v 0.74042 -2.40500 0.65958
v 0.78270 -2.49500 0.71111
v 0.78270 -2.40500 0.71111
v 0.81412 -2.49500 0.76989
v 0.81412 -2.40500 0.76989
v 0.83347 -2.49500 0.83367
v 0.83347 -2.40500 0.83367
f 17 18 19
f 20 21 22
f 18 20 19
f 20 22 19
f 17 19 23
f 22 21 24
f 19 22 23
f 22 24 23
f 17 23 25
f 24 21 26
f 23 24 25
f 24 26 25
f 17 25 27
f 26 21 28
f 25 26 27
f 26 28 27
f 17 27 29
f 28 21 30
f 27 28 29
f 28 30 29
f 17 29 31
f 30 21 32
f 29 30 31
f 30 32 31
f 17 31 33
f 32 21 34
f 31 32 33
f 32 34 33
f 17 33 35
f 34 21 36
f 33 34 35
f 34 36 35
f 17 35 37
f 36 21 38
f 35 36 37
f 36 38 37
f 17 37 39
f 38 21 40
f 37 38 39
f 38 40 39
f 17 39 41
f 40 21 42
f 39 40 41
f 40 42 41
f 17 41 43
f 42 21 44
f 41 42 43
f 42 44 43
f 17 43 45
f 44 21 46
f 43 44 45
f 44 46 45
f 17 45 47
f 46 21 48
f 45 46 47
f 46 48 47
f 17 47 49
f 48 21 50
f 47 48 49
f 48 50 49
f 17 49 51
f 50 21 52
f 49 50 51
f 50 52 51
f 17 51 53
f 52 21 54
f 51 52 53
f 52 54 53
f 17 53 55
f 54 21 56
f 53 54 55
f 54 56 55
f 17 55 57
f 56 21 58
f 55 56 57
f 56 58 57
f 17 57 59
f 58 21 60
f 57 58 59
f 58 60 59
f 17 59 61
f 60 21 62
f 59 60 61
f 60 62 61
f 17 61 63
f 62 21 64
f 61 62 63
f 62 64 63
f 17 63 65
f 64 21 66
f 63 64 65
f 64 66 65
f 17 65 67
f 66 21 68
f 65 66 67
f 66 68 67
f 17 67 69
f 68 21 70
f 67 68 69
f 68 70 69
f 17 69 71
f 70 21 72
f 69 70 71
f 70 72 71
f 17 71 73
f 72 21 74
f 71 72 73
f 72 74 73
f 17 73 75
f 74 21 76
f 73 74 75
f 74 76 75
f 17 75 77
f 76 21 78
f 75 76 77
f 76 78 77
f 17 77 79
f 78 21 80
f 77 78 79
f 78 80 79
f 17 79 81
f 80 21 82
f 79 80 81
f 80 82 81
f 17 81 18
f 82 21 20
f 81 82 18
f 82 20 18
o Rolo_Perfil_A_Cubo
usemtl cor3
v 0.50000 -2.51000 0.90000
v 0.56000 -2.51000 0.90000
v 0.55885 -2.51000 0.91171
v 0.56000 -2.39000 0.90000
v 0.50000 -2.39000 0.90000
v 0.55885 -2.39000 0.91171
v 0.55543 -2.51000 0.92296
v 0.55543 -2.39000 0.92296
v 0.54989 -2.51000 0.93333
v 0.54989 -2.39000 0.93333
v 0.54243 -2.51000 0.94243
v 0.54243 -2.39000 0.94243
v 0.53333 -2.51000 0.94989
v 0.53333 -2.39000 0.94989
v 0.52296 -2.51000 0.95543
v 0.52296 -2.39000 0.95543
v 0.51171 -2.51000 0.95885
v 0.51171 -2.39000 0.95885
v 0.50000 -2.51000 0.96000
v 0.50000 -2.39000 0.96000
v 0.48829 -2.51000 0.95885
v 0.48829 -2.39000 0.95885
v 0.47704 -2.51000 0.95543
v 0.47704 -2.39000 0.95543
v 0.46667 -2.51000 0.94989
v 0.46667 -2.39000 0.94989
v 0.45757 -2.51000 0.94243
v 0.45757 -2.39000 0.94243
v 0.45011 -2.51000 0.93333
v 0.45011 -2.39000 0.93333
v 0.44457 -2.51000 0.92296
v 0.44457 -2.39000 0.92296
v 0.44115 -2.51000 0.91171
v 0.44115 -2.39000 0.91171
v 0.44000 -2.51000 0.90000
v 0.44000 -2.39000 0.90000
v 0.44115 -2.51000 0.88829
v 0.44115 -2.39000 0.88829
v 0.44457 -2.51000 0.87704
v 0.44457 -2.39000 0.87704
v 0.45011 -2.51000 0.86667
v 0.45011 -2.39000 0.86667
v 0.45757 -2.51000 0.85757
v 0.45757 -2.39000 0.85757
v 0.46667 -2.51000 0.85011
v 0.46667 -2.39000 0.85011
v 0.47704 -2.51000 0.84457
v 0.47704 -2.39000 0.84457
v 0.48829 -2.51000 0.84115
v 0.48829 -2.39000 0.84115
v 0.50000 -2.51000 0.84000
v 0.50000 -2.39000 0.84000
v 0.51171 -2.51000 0.84115
v 0.51171 -2.39000 0.84115
v 0.52296 -2.51000 0.84457
v 0.52296 -2.39000 0.84457
v 0.53333 -2.51000 0.85011
v 0.53333 -2.39000 0.85011
v 0.54243 -2.51000 0.85757
v 0.54243 -2.39000 0.85757
v 0.54989 -2.51000 0.86667
v 0.54989 -2.39000 0.86667
v 0.55543 -2.51000 0.87704
v 0.55543 -2.39000 0.87704
v 0.55885 -2.51000 0.88829
v 0.55885 -2.39000 0.88829
f 83 84 85
f 86 87 88
f 84 86 85
f 86 88 85
f 83 85 89
f 88 87 90
f 85 88 89
f 88 90 89
f 83 89 91
f 90 87 92
f 89 90 91
f 90 92 91
f 83 91 93
f 92 87 94
f 91 92 93
f 92 94 93
f 83 93 95
f 94 87 96
f 93 94 95
f 94 96 95
f 83 95 97
f 96 87 98
f 95 96 97
f 96 98 97
f 83 97 99
f 98 87 100
f 97 98 99
f 98 100 99
f 83 99 101
f 100 87 102
f 99 100 101
f 100 102 101
f 83 101 103
f 102 87 104
f 101 102 103
f 102 104 103
f 83 103 105
f 104 87 106
f 103 104 105
f 104 106 105
f 83 105 107
f 106 87 108
f 105 106 107
f 106 108 107
f 83 107 109
f 108 87 110
f 107 108 109
f 108 110 109
f 83 109 111
f 110 87 112
f 109 110 111
f 110 112 111
f 83 111 113
f 112 87 114
f 111 112 113
f 112 114 113
f 83 113 115
f 114 87 116
f 113 114 115
f 114 116 115
f 83 115 117
f 116 87 118
f 115 116 117
f 116 118 117
f 83 117 119
f 118 87 120
f 117 118 119
f 118 120 119
f 83 119 121
f 120 87 122
f 119 120 121
f 120 122 121
f 83 121 123
f 122 87 124
f 121 122 123
f 122 124 123
f 83 123 125
f 124 87 126
f 123 124 125
f 124 126 125
f 83 125 127
f 126 87 128
f 125 126 127
f 126 128 127
f 83 127 129
f 128 87 130
f 127 128 129
f 128 130 129
f 83 129 131
f 130 87 132
f 129 130 131
f 130 132 131
f 83 131 133
f 132 87 134
f 131 132 133
f 132 134 133
f 83 133 135
f 134 87 136
f 133 134 135
f 134 136 135
f 83 135 137
f 136 87 138
f 135 136 137
f 136 138 137
f 83 137 139
f 138 87 140
f 137 138 139
f 138 140 139
f 83 139 141
f 140 87 142
f 139 140 141
f 140 142 141
f 83 141 143
f 142 87 144
f 141 142 143
f 142 144 143
f 83 143 145
f 144 87 146
f 143 144 145
f 144 146 145
f 83 145 147
f 146 87 148
f 145 146 147
f 146 148 147
f 83 147 84
f 148 87 86
f 147 148 84
f 148 86 84
o Rolo_Perfil_A_Braco
usemtl cor1
v 0.90000 -2.45000 0.90000
v 0.90000 -2.43000 0.90000
v 0.90000 -2.43038 0.90390
v 0.50000 -2.43000 0.90000
v 0.50000 -2.45000 0.90000
v 0.50000 -2.43038 0.90390
v 0.90000 -2.43152 0.90765
v 0.50000 -2.43152 0.90765
v 0.90000 -2.43337 0.91111
v 0.50000 -2.43337 0.91111
v 0.90000 -2.43586 0.91414
v 0.50000 -2.43586 0.91414
v 0.90000 -2.43889 0.91663
v 0.50000 -2.43889 0.91663
v 0.90000 -2.44235 0.91848
v 0.50000 -2.44235 0.91848
v 0.90000 -2.44610 0.91962
v 0.50000 -2.44610 0.91962
v 0.90000 -2.45000 0.92000
v 0.50000 -2.45000 0.92000
v 0.90000 -2.45390 0.91962
v 0.50000 -2.45390 0.91962
v 0.90000 -2.45765 0.91848
v 0.50000 -2.45765 0.91848
v 0.90000 -2.46111 0.91663
v 0.50000 -2.46111 0.91663
v 0.90000 -2.46414 0.91414
v 0.50000 -2.46414 0.91414
v 0.90000 -2.46663 0.91111
v 0.50000 -2.46663 0.91111
v 0.90000 -2.46848 0.90765
v 0.50000 -2.46848 0.90765
v 0.90000 -2.46962 0.90390
v 0.50000 -2.46962 0.90390
v 0.90000 -2.47000 0.90000
v 0.50000 -2.47000 0.90000
v 0.90000 -2.46962 0.89610
v 0.50000 -2.46962 0.89610
v 0.90000 -2.46848 0.89235
v 0.50000 -2.46848 0.89235
v 0.90000 -2.46663 0.88889
v 0.50000 -2.46663 0.88889
v 0.90000 -2.46414 0.88586
v 0.50000 -2.46414 0.88586
v 0.90000 -2.46111 0.88337
v 0.50000 -2.46111 0.88337
v 0.90000 -2.45765 0.88152
v 0.50000 -2.45765 0.88152
v 0.90000 -2.45390 0.88038
v 0.50000 -2.45390 0.88038
v 0.90000 -2.45000 0.88000
v 0.50000 -2.45000 0.88000
v 0.90000 -2.44610 0.88038
v 0.50000 -2.44610 0.88038
v 0.90000 -2.44235 0.88152
v 0.50000 -2.44235 0.88152
v 0.90000 -2.43889 0.88337
v 0.50000 -2.43889 0.88337
v 0.90000 -2.43586 0.88586
v 0.50000 -2.43586 0.88586
v 0.90000 -2.43337 0.88889
v 0.50000 -2.43337 0.88889
v 0.90000 -2.43152 0.89235
v 0.50000 -2.43152 0.89235
v 0.90000 -2.43038 0.89610
v 0.50000 -2.43038 0.89610
f 149 150 151
f 152 153 154
f 150 152 151
f 152 154 151
f 149 151 155
f 154 153 156
f 151 154 155
f 154 156 155
f 149 155 157
f 156 153 158
f 155 156 157
f 156 158 157
f 149 157 159
f 158 153 160
f 157 158 159
f 158 160 159
f 149 159 161
f 160 153 162
f 159 160 161
f 160 162 161
f 149 161 163
f 162 153 164
f 161 162 163
f 162 164 163
f 149 163 165
f 164 153 166
f 163 164 165
f 164 166 165
f 149 165 167
f 166 153 168
f 165 166 167
f 166 168 167
f 149 167 169
f 168 153 170
f 167 168 169
f 168 170 169
f 149 169 171
f 170 153 172
f 169 170 171
f 170 172 171
f 149 171 173
f 172 153 174
f 171 172 173
f 172 174 173
f 149 173 175
f 174 153 176
f 173 174 175
f 174 176 175
f 149 175 177
f 176 153 178
f 175 176 177
f 176 178 177
f 149 177 179
f 178 153 180
f 177 178 179
f 178 180 179
f 149 179 181
f 180 153 182
f 179 180 181
f 180 182 181
f 149 181 183
f 182 153 184
f 181 182 183
f 182 184 183
f 149 183 185
f 184 153 186
f 183 184 185
f 184 186 185
f 149 185 187
f 186 153 188
f 185 186 187
f 186 188 187
f 149 187 189
f 188 153 190
f 187 188 189
f 188 190 189
f 149 189 191
f 190 153 192
f 189 190 191
f 190 192 191
f 149 191 193
f 192 153 194
f 191 192 193
f 192 194 193
f 149 193 195
f 194 153 196
f 193 194 195
f 194 196 195
f 149 195 197
f 196 153 198
f 195 196 197
f 196 198 197
f 149 197 199
f 198 153 200
f 197 198 199
f 198 200 199
f 149 199 201
f 200 153 202
f 199 200 201
f 200 202 201
f 149 201 203
f 202 153 204
f 201 202 203
f 202 204 203
f 149 203 205
f 204 153 206
f 203 204 205
f 204 206 205
f 149 205 207
f 206 153 208
f 205 206 207
f 206 208 207
f 149 207 209
f 208 153 210
f 207 208 209
f 208 210 209
f 149 209 211
f 210 153 212
f 209 210 211
f 210 212 211
f 149 211 213
f 212 153 214
f 211 212 213
f 212 214 213
f 149 213 150
f 214 153 152
f 213 214 150
f 214 152 150
o Rolo_Perfil_B
usemtl cor2
v 1.30000 -2.49500 0.90000
v 1.64000 -2.49500 0.90000
v 1.63347 -2.49500 0.96633
v 1.64000 -2.40500 0.90000
v 1.30000 -2.40500 0.90000
v 1.63347 -2.40500 0.96633
v 1.61412 -2.49500 1.03011
v 1.61412 -2.40500 1.03011
v 1.58270 -2.49500 1.08889
v 1.58270 -2.40500 1.08889
v 1.54042 -2.49500 1.14042
v 1.54042 -2.40500 1.14042
v 1.48889 -2.49500 1.18270
v 1.48889 -2.40500 1.18270
v 1.43011 -2.49500 1.21412
v 1.43011 -2.40500 1.21412
v 1.36633 -2.49500 1.23347
v 1.36633 -2.40500 1.23347
v 1.30000 -2.49500 1.24000
v 1.30000 -2.40500 1.24000
v 1.23367 -2.49500 1.23347
v 1.23367 -2.40500 1.23347
v 1.16989 -2.49500 1.21412
v 1.16989 -2.40500 1.21412
v 1.11111 -2.49500 1.18270
v 1.11111 -2.40500 1.18270
v 1.05958 -2.49500 1.14042
v 1.05958 -2.40500 1.14042
v 1.01730 -2.49500 1.08889
v 1.01730 -2.40500 1.08889
v 0.98588 -2.49500 1.03011
v 0.98588 -2.40500 1.03011
v 0.96653 -2.49500 0.96633
v 0.96653 -2.40500 0.96633
v 0.96000 -2.49500 0.90000
v 0.96000 -2.40500 0.90000
v 0.96653 -2.49500 0.83367
v 0.96653 -2.40500 0.83367
v 0.98588 -2.49500 0.76989
v 0.98588 -2.40500 0.76989
v 1.01730 -2.49500 0.71111
v 1.01730 -2.40500 0.71111
v 1.05958 -2.49500 0.65958
v 1.05958 -2.40500 0.65958
v 1.11111 -2.49500 0.61730
v 1.11111 -2.40500 0.61730
v 1.16989 -2.49500 0.58588
v 1.16989 -2.40500 0.58588
v 1.23367 -2.49500 0.56653
v 1.23367 -2.40500 0.56653
v 1.30000 -2.49500 0.56000
v 1.30000 -2.40500 0.56000
v 1.36633 -2.49500 0.56653
v 1.36633 -2.40500 0.56653
v 1.43011 -2.49500 0.58588
v 1.43011 -2.40500 0.58588
v 1.48889 -2.49500 0.61730
v 1.48889 -2.40500 0.61730
v 1.54042 -2.49500 0.65958
v 1.54042 -2.40500 0.65958
v 1.58270 -2.49500 0.71111
v 1.58270 -2.40500 0.71111
v 1.61412 -2.49500 0.76989
v 1.61412 -2.40500 0.76989
v 1.63347 -2.49500 0.83367
v 1.63347 -2.40500 0.83367
f 215 216 217
f 218 219 220
f 216 218 217
f 218 220 217
f 215 217 221
f 220 219 222
f 217 220 221
f 220 222 221
f 215 221 223
f 222 219 224
f 221 222 223
f 222 224 223
f 215 223 225
f 224 219 226
f 223 224 225
f 224 226 225
f 215 225 227
f 226 219 228
f 225 226 227
f 226 228 227
f 215 227 229
f 228 219 230
f 227 228 229
f 228 230 229
f 215 229 231
f 230 219 232
f 229 230 231
f 230 232 231
f 215 231 233
f 232 219 234
f 231 232 233
f 232 234 233
f 215 233 235
f 234 219 236
f 233 234 235
f 234 236 235
f 215 235 237
f 236 219 238
f 235 236 237
f 236 238 237
f 215 237 239
f 238 219 240
f 237 238 239
f 238 240 239
f 215 239 241
f 240 219 242
f 239 240 241
f 240 242 241
f 215 241 243
f 242 219 244
f 241 242 243
f 242 244 243
f 215 243 245
f 244 219 246
f 243 244 245
f 244 246 245
f 215 245 247
f 246 219 248
f 245 246 247
f 246 248 247
f 215 247 249
f 248 219 250
f 247 248 249
f 248 250 249
f 215 249 251
f 250 219 252
f 249 250 251
f 250 252 251
f 215 251 253
f 252 219 254
f 251 252 253
f 252 254 253
f 215 253 255
f 254 219 256
f 253 254 255
f 254 256 255
f 215 255 257
f 256 219 258
f 255 256 257
f 256 258 257
f 215 257 259
f 258 219 260
f 257 258 259
f 258 260 259
f 215 259 261
f 260 219 262
f 259 260 261
f 260 262 261
f 215 261 263
f 262 219 264
f 261 262 263
f 262 264 263
f 215 263 265
f 264 219 266
f 263 264 265
f 264 266 265
f 215 265 267
f 266 219 268
f 265 266 267
f 266 268 267
f 215 267 269
f 268 219 270
f 267 268 269
f 268 270 269
f 215 269 271
f 270 219 272
f 269 270 271
f 270 272 271
f 215 271 273
f 272 219 274
f 271 272 273
f 272 274 273
f 215 273 275
f 274 219 276
f 273 274 275
f 274 276 275
f 215 275 277
f 276 219 278
f 275 276 277
f 276 278 277
f 215 277 279
f 278 219 280
f 277 278 279
f 278 280 279
f 215 279 216
f 280 219 218
f 279 280 216
f 280 218 216
o Rolo_Perfil_B_Cubo
usemtl cor3
v 1.30000 -2.51000 0.90000
v 1.36000 -2.51000 0.90000
v 1.35885 -2.51000 0.91171
v 1.36000 -2.39000 0.90000
v 1.30000 -2.39000 0.90000
v 1.35885 -2.39000 0.91171
v 1.35543 -2.51000 0.92296
v 1.35543 -2.39000 0.92296
v 1.34989 -2.51000 0.93333
v 1.34989 -2.39000 0.93333
v 1.34243 -2.51000 0.94243
v 1.34243 -2.39000 0.94243
v 1.33333 -2.51000 0.94989
v 1.33333 -2.39000 0.94989
v 1.32296 -2.51000 0.95543
v 1.32296 -2.39000 0.95543
v 1.31171 -2.51000 0.95885
v 1.31171 -2.39000 0.95885
v 1.30000 -2.51000 0.96000
v 1.30000 -2.39000 0.96000
v 1.28829 -2.51000 0.95885
v 1.28829 -2.39000 0.95885
v 1.27704 -2.51000 0.95543
v 1.27704 -2.39000 0.95543
v 1.26667 -2.51000 0.94989
v 1.26667 -2.39000 0.94989
v 1.25757 -2.51000 0.94243
v 1.25757 -2.39000 0.94243
v 1.25011 -2.51000 0.93333
v 1.25011 -2.39000 0.93333
v 1.24457 -2.51000 0.92296
v 1.24457 -2.39000 0.92296
v 1.24115 -2.51000 0.91171
v 1.24115 -2.39000 0.91171
v 1.24000 -2.51000 0.90000
v 1.24000 -2.39000 0.90000
v 1.24115 -2.51000 0.88829
v 1.24115 -2.39000 0.88829
v 1.24457 -2.51000 0.87704
v 1.24457 -2.39000 0.87704
v 1.25011 -2.51000 0.86667
v 1.25011 -2.39000 0.86667
v 1.25757 -2.51000 0.85757
v 1.25757 -2.39000 0.85757
v 1.26667 -2.51000 0.85011
v 1.26667 -2.39000 0.85011
v 1.27704 -2.51000 0.84457
v 1.27704 -2.39000 0.84457
v 1.28829 -2.51000 0.84115
v 1.28829 -2.39000 0.84115
v 1.30000 -2.51000 0.84000
v 1.30000 -2.39000 0.84000
v 1.31171 -2.51000 0.84115
v 1.31171 -2.39000 0.84115
v 1.32296 -2.51000 0.84457
v 1.32296 -2.39000 0.84457
v 1.33333 -2.51000 0.85011
v 1.33333 -2.39000 0.85011
v 1.34243 -2.51000 0.85757
v 1.34243 -2.39000 0.85757
v 1.34989 -2.51000 0.86667
v 1.34989 -2.39000 0.86667
v 1.35543 -2.51000 0.87704
v 1.35543 -2.39000 0.87704
v 1.35885 -2.51000 0.88829
v 1.35885 -2.39000 0.88829
f 281 282 283
f 284 285 286
f 282 284 283
f 284 286 283
f 281 283 287
f 286 285 288
f 283 286 287
f 286 288 287
f 281 287 289
f 288 285 290
f 287 288 289
f 288 290 289
f 281 289 291
f 290 285 292
f 289 290 291
f 290 292 291
f 281 291 293
f 292 285 294
f 291 292 293
f 292 294 293
f 281 293 295
f 294 285 296
f 293 294 295
f 294 296 295
f 281 295 297
f 296 285 298
f 295 296 297
f 296 298 297
f 281 297 299
f 298 285 300
f 297 298 299
f 298 300 299
f 281 299 301
f 300 285 302
f 299 300 301
f 300 302 301
f 281 301 303
f 302 285 304
f 301 302 303
f 302 304 303
f 281 303 305
f 304 285 306
f 303 304 305
f 304 306 305
f 281 305 307
f 306 285 308
f 305 306 307
f 306 308 307
f 281 307 309
f 308 285 310
f 307 308 309
f 308 310 309
f 281 309 311
f 310 285 312
f 309 310 311
f 310 312 311
f 281 311 313
f 312 285 314
f 311 312 313
f 312 314 313
f 281 313 315
f 314 285 316
f 313 314 315
f 314 316 315
f 281 315 317
f 316 285 318
f 315 316 317
f 316 318 317
f 281 317 319
f 318 285 320
f 317 318 319
f 318 320 319
f 281 319 321
f 320 285 322
f 319 320 321
f 320 322 321
f 281 321 323
f 322 285 324
f 321 322 323
f 322 324 323
f 281 323 325
f 324 285 326
f 323 324 325
f 324 326 325
f 281 325 327
f 326 285 328
f 325 326 327
f 326 328 327
f 281 327 329
f 328 285 330
f 327 328 329
f 328 330 329
f 281 329 331
f 330 285 332
f 329 330 331
f 330 332 331
f 281 331 333
f 332 285 334
f 331 332 333
f 332 334 333
f 281 333 335
f 334 285 336
f 333 334 335
f 334 336 335
f 281 335 337
f 336 285 338
f 335 336 337
f 336 338 337
f 281 337 339
f 338 285 340
f 337 338 339
f 338 340 339
f 281 339 341
f 340 285 342
f 339 340 341
f 340 342 341
f 281 341 343
f 342 285 344
f 341 342 343
f 342 344 343
f 281 343 345
f 344 285 346
f 343 344 345
f 344 346 345
f 281 345 282
f 346 285 284
f 345 346 282
f 346 284 282
o Rolo_Perfil_B_Braco
usemtl cor1
v 0.90000 -2.45000 0.90000
v 0.90000 -2.47000 0.90000
v 0.90000 -2.46962 0.90390
v 1.30000 -2.47000 0.90000
v 1.30000 -2.45000 0.90000
v 1.30000 -2.46962 0.90390
v 0.90000 -2.46848 0.90765
v 1.30000 -2.46848 0.90765
v 0.90000 -2.46663 0.91111
v 1.30000 -2.46663 0.91111
v 0.90000 -2.46414 0.91414
v 1.30000 -2.46414 0.91414
v 0.90000 -2.46111 0.91663
v 1.30000 -2.46111 0.91663
v 0.90000 -2.45765 0.91848
v 1.30000 -2.45765 0.91848
v 0.90000 -2.45390 0.91962
v 1.30000 -2.45390 0.91962
v 0.90000 -2.45000 0.92000
v 1.30000 -2.45000 0.92000
v 0.90000 -2.44610 0.91962
v 1.30000 -2.44610 0.91962
v 0.90000 -2.44235 0.91848
v 1.30000 -2.44235 0.91848
v 0.90000 -2.43889 0.91663
v 1.30000 -2.43889 0.91663
v 0.90000 -2.43586 0.91414
v 1.30000 -2.43586 0.91414
v 0.90000 -2.43337 0.91111
v 1.30000 -2.43337 0.91111
v 0.90000 -2.43152 0.90765
v 1.30000 -2.43152 0.90765
v 0.90000 -2.43038 0.90390
v 1.30000 -2.43038 0.90390
v 0.90000 -2.43000 0.90000
v 1.30000 -2.43000 0.90000
v 0.90000 -2.43038 0.89610
v 1.30000 -2.43038 0.89610
v 0.90000 -2.43152 0.89235
v 1.30000 -2.43152 0.89235
v 0.90000 -2.43337 0.88889
v 1.30000 -2.43337 0.88889
v 0.90000 -2.43586 0.88586
v 1.30000 -2.43586 0.88586
v 0.90000 -2.43889 0.88337
v 1.30000 -2.43889 0.88337
v 0.90000 -2.44235 0.88152
v 1.30000 -2.44235 0.88152
v 0.90000 -2.44610 0.88038
v 1.30000 -2.44610 0.88038
v 0.90000 -2.45000 0.88000
v 1.30000 -2.45000 0.88000
v 0.90000 -2.45390 0.88038
v 1.30000 -2.45390 0.88038
v 0.90000 -2.45765 0.88152
v 1.30000 -2.45765 0.88152
v 0.90000 -2.46111 0.88337
v 1.30000 -2.46111 0.88337
v 0.90000 -2.46414 0.88586
v 1.30000 -2.46414 0.88586
v 0.90000 -2.46663 0.88889
v 1.30000 -2.46663 0.88889
v 0.90000 -2.46848 0.89235
v 1.30000 -2.46848 0.89235
v 0.90000 -2.46962 0.89610
v 1.30000 -2.46962 0.89610
f 347 348 349
f 350 351 352
f 348 350 349
f 350 352 349
f 347 349 353
f 352 351 354
f 349 352 353
f 352 354 353
f 347 353 355
f 354 351 356
f 353 354 355
f 354 356 355
f 347 355 357
f 356 351 358
f 355 356 357
f 356 358 357
f 347 357 359
f 358 351 360
f 357 358 359
f 358 360 359
f 347 359 361
f 360 351 362
f 359 360 361
f 360 362 361
f 347 361 363
f 362 351 364
f 361 362 363
f 362 364 363
f 347 363 365
f 364 351 366
f 363 364 365
f 364 366 365
f 347 365 367
f 366 351 368
f 365 366 367
f 366 368 367
f 347 367 369
f 368 351 370
f 367 368 369
f 368 370 369
f 347 369 371
f 370 351 372
f 369 370 371
f 370 372 371
f 347 371 373
f 372 351 374
f 371 372 373
f 372 374 373
f 347 373 375
f 374 351 376
f 373 374 375
f 374 376 375
f 347 375 377
f 376 351 378
f 375 376 377
f 376 378 377
f 347 377 379
f 378 351 380
f 377 378 379
f 378 380 379
f 347 379 381
f 380 351 382
f 379 380 381
f 380 382 381
f 347 381 383
f 382 351 384
f 381 382 383
f 382 384 383
f 347 383 385
f 384 351 386
f 383 384 385
f 384 386 385
f 347 385 387
f 386 351 388
f 385 386 387
f 386 388 387
f 347 387 389
f 388 351 390
f 387 388 389
f 388 390 389
f 347 389 391
f 390 351 392
f 389 390 391
f 390 392 391
f 347 391 393
f 392 351 394
f 391 392 393
f 392 394 393
f 347 393 395
f 394 351 396
f 393 394 395
f 394 396 395
f 347 395 397
f 396 351 398
f 395 396 397
f 396 398 397
f 347 397 399
f 398 351 400
f 397 398 399
f 398 400 399
f 347 399 401
f 400 351 402
f 399 400 401
f 400 402 401
f 347 401 403
f 402 351 404
f 401 402 403
f 402 404 403
f 347 403 405
f 404 351 406
f 403 404 405
f 404 406 405
f 347 405 407
f 406 351 408
f 405 406 407
f 406 408 407
f 347 407 409
f 408 351 410
f 407 408 409
f 408 410 409
f 347 409 411
f 410 351 412
f 409 410 411
f 410 412 411
f 347 411 348
f 412 351 350
f 411 412 348
f 412 350 348
o Emendadora_Perfil
usemtl cor4
v 1.00000 -2.52500 1.07500
v 0.80000 -2.52500 1.07500
v 1.00000 -2.37500 1.07500
v 0.80000 -2.37500 1.07500
v 1.00000 -2.52500 1.22500
v 0.80000 -2.52500 1.22500
v 1.00000 -2.37500 1.22500
v 0.80000 -2.37500 1.22500
f 413 414 415
f 415 414 416
f 414 413 417
f 414 417 418
f 415 416 419
f 419 416 420
f 419 420 417
f 417 420 418
f 416 414 420
f 420 414 418
f 413 415 419
f 413 419 417
o Buffer_Dancarino
usemtl cor5
v 0.95000 -2.25000 1.25000
v 0.85000 -2.25000 1.25000
v 0.95000 -2.15000 1.25000
v 0.85000 -2.15000 1.25000
v 0.95000 -2.25000 1.65000
v 0.85000 -2.25000 1.65000
v 0.95000 -2.15000 1.65000
v 0.85000 -2.15000 1.65000
f 421 422 423
f 423 422 424
f 422 421 425
f 422 425 426
f 423 424 427
f 427 424 428
f 427 428 425
f 425 428 426
f 424 422 428
f 428 422 426
f 421 423 427
f 421 427 425
o Perfil_Alimentacao_1
usemtl cor2
v 0.20000 -1.60000 2.25000
v 0.19349 -1.60759 2.25000
v 0.19443 -1.60814 2.25164
v 0.89349 -2.20759 1.65000
v 0.90000 -2.20000 1.65000
v 0.89443 -2.20814 1.65164
v 0.19557 -1.60837 2.25321
v 0.89557 -2.20837 1.65321
v 0.19689 -1.60829 2.25466
v 0.89689 -2.20829 1.65466
v 0.19833 -1.60788 2.25593
v 0.89833 -2.20788 1.65593
v 0.19983 -1.60717 2.25697
v 0.89983 -2.20717 1.65697
v 0.20134 -1.60619 2.25774
v 0.90134 -2.20619 1.65774
v 0.20279 -1.60496 2.25822
v 0.90279 -2.20496 1.65822
v 0.20414 -1.60355 2.25838
v 0.90414 -2.20355 1.65838
v 0.20533 -1.60200 2.25822
v 0.90533 -2.20200 1.65822
v 0.20632 -1.60037 2.25774
v 0.90632 -2.20037 1.65774
v 0.20706 -1.59873 2.25697
v 0.90706 -2.19873 1.65697
v 0.20753 -1.59714 2.25593
v 0.90753 -2.19714 1.65593
v 0.20771 -1.59566 2.25466
v 0.90771 -2.19566 1.65466
v 0.20760 -1.59434 2.25321
v 0.90760 -2.19434 1.65321
v 0.20719 -1.59325 2.25164
v 0.90719 -2.19325 1.65164
v 0.20651 -1.59241 2.25000
v 0.90651 -2.19241 1.65000
v 0.20557 -1.59186 2.24836
v 0.90557 -2.19186 1.64836
v 0.20443 -1.59163 2.24679
v 0.90443 -2.19163 1.64679
v 0.20311 -1.59171 2.24534
v 0.90311 -2.19171 1.64534
v 0.20167 -1.59212 2.24407
v 0.90167 -2.19212 1.64407
v 0.20017 -1.59283 2.24303
v 0.90017 -2.19283 1.64303
v 0.19866 -1.59381 2.24226
v 0.89866 -2.19381 1.64226
v 0.19721 -1.59504 2.24178
v 0.89721 -2.19504 1.64178
v 0.19586 -1.59645 2.24162
v 0.89586 -2.19645 1.64162
v 0.19467 -1.59800 2.24178
v 0.89467 -2.19800 1.64178
v 0.19368 -1.59963 2.24226
v 0.89368 -2.19963 1.64226
v 0.19294 -1.60127 2.24303
v 0.89294 -2.20127 1.64303
v 0.19247 -1.60286 2.24407
v 0.89247 -2.20286 1.64407
v 0.19229 -1.60434 2.24534
v 0.89229 -2.20434 1.64534
v 0.19240 -1.60566 2.24679
v 0.89240 -2.20566 1.64679
v 0.19281 -1.60675 2.24836
v 0.89281 -2.20675 1.64836
f 429 430 431
f 432 433 434
f 430 432 431
f 432 434 431
f 429 431 435
f 434 433 436
f 431 434 435
f 434 436 435
f 429 435 437
f 436 433 438
f 435 436 437
f 436 438 437
f 429 437 439
f 438 433 440
f 437 438 439
f 438 440 439
f 429 439 441
f 440 433 442
f 439 440 441
f 440 442 441
f 429 441 443
f 442 433 444
f 441 442 443
f 442 444 443
f 429 443 445
f 444 433 446
f 443 444 445
f 444 446 445
f 429 445 447
f 446 433 448
f 445 446 447
f 446 448 447
f 429 447 449
f 448 433 450
f 447 448 449
f 448 450 449
f 429 449 451
f 450 433 452
f 449 450 451
f 450 452 451
f 429 451 453
f 452 433 454
f 451 452 453
f 452 454 453
f 429 453 455
f 454 433 456
f 453 454 455
f 454 456 455
f 429 455 457
f 456 433 458
f 455 456 457
f 456 458 457
f 429 457 459
f 458 433 460
f 457 458 459
f 458 460 459
f 429 459 461
f 460 433 462
f 459 460 461
f 460 462 461
f 429 461 463
f 462 433 464
f 461 462 463
f 462 464 463
f 429 463 465
f 464 433 466
f 463 464 465
f 464 466 465
f 429 465 467
f 466 433 468
f 465 466 467
f 466 468 467
f 429 467 469
f 468 433 470
f 467 468 469
f 468 470 469
f 429 469 471
f 470 433 472
f 469 470 471
f 470 472 471
f 429 471 473
f 472 433 474
f 471 472 473
f 472 474 473
f 429 473 475
f 474 433 476
f 473 474 475
f 474 476 475
f 429 475 477
f 476 433 478
f 475 476 477
f 476 478 477
f 429 477 479
f 478 433 480
f 477 478 479
f 478 480 479
f 429 479 481
f 480 433 482
f 479 480 481
f 480 482 481
f 429 481 483
f 482 433 484
f 481 482 483
f 482 484 483
f 429 483 485
f 484 433 486
f 483 484 485
f 484 486 485
f 429 485 487
f 486 433 488
f 485 486 487
f 486 488 487
f 429 487 489
f 488 433 490
f 487 488 489
f 488 490 489
f 429 489 491
f 490 433 492
f 489 490 491
f 490 492 491
f 429 491 493
f 492 433 494
f 491 492 493
f 492 494 493
f 429 493 430
f 494 433 432
f 493 494 430
f 494 432 430
o Perfil_Alimentacao_2
usemtl cor2
v 0.20000 -0.86000 2.25000
v 0.19000 -0.86000 2.25000
v 0.19019 -0.86000 2.25195
v 0.19000 -1.60000 2.25000
v 0.20000 -1.60000 2.25000
v 0.19019 -1.60000 2.25195
v 0.19076 -0.86000 2.25383
v 0.19076 -1.60000 2.25383
v 0.19169 -0.86000 2.25556
v 0.19169 -1.60000 2.25556
v 0.19293 -0.86000 2.25707
v 0.19293 -1.60000 2.25707
v 0.19444 -0.86000 2.25831
v 0.19444 -1.60000 2.25831
v 0.19617 -0.86000 2.25924
v 0.19617 -1.60000 2.25924
v 0.19805 -0.86000 2.25981
v 0.19805 -1.60000 2.25981
v 0.20000 -0.86000 2.26000
v 0.20000 -1.60000 2.26000
v 0.20195 -0.86000 2.25981
v 0.20195 -1.60000 2.25981
v 0.20383 -0.86000 2.25924
v 0.20383 -1.60000 2.25924
v 0.20556 -0.86000 2.25831
v 0.20556 -1.60000 2.25831
v 0.20707 -0.86000 2.25707
v 0.20707 -1.60000 2.25707
v 0.20831 -0.86000 2.25556
v 0.20831 -1.60000 2.25556
v 0.20924 -0.86000 2.25383
v 0.20924 -1.60000 2.25383
v 0.20981 -0.86000 2.25195
v 0.20981 -1.60000 2.25195
v 0.21000 -0.86000 2.25000
v 0.21000 -1.60000 2.25000
v 0.20981 -0.86000 2.24805
v 0.20981 -1.60000 2.24805
v 0.20924 -0.86000 2.24617
v 0.20924 -1.60000 2.24617
v 0.20831 -0.86000 2.24444
v 0.20831 -1.60000 2.24444
v 0.20707 -0.86000 2.24293
v 0.20707 -1.60000 2.24293
v 0.20556 -0.86000 2.24169
v 0.20556 -1.60000 2.24169
v 0.20383 -0.86000 2.24076
v 0.20383 -1.60000 2.24076
v 0.20195 -0.86000 2.24019
v 0.20195 -1.60000 2.24019
v 0.20000 -0.86000 2.24000
v 0.20000 -1.60000 2.24000
v 0.19805 -0.86000 2.24019
v 0.19805 -1.60000 2.24019
v 0.19617 -0.86000 2.24076
v 0.19617 -1.60000 2.24076
v 0.19444 -0.86000 2.24169
v 0.19444 -1.60000 2.24169
v 0.19293 -0.86000 2.24293
v 0.19293 -1.60000 2.24293
v 0.19169 -0.86000 2.24444
v 0.19169 -1.60000 2.24444
v 0.19076 -0.86000 2.24617
v 0.19076 -1.60000 2.24617
v 0.19019 -0.86000 2.24805
v 0.19019 -1.60000 2.24805
f 495 496 497
f 498 499 500
f 496 498 497
f 498 500 497
f 495 497 501
f 500 499 502
f 497 500 501
f 500 502 501
f 495 501 503
f 502 499 504
f 501 502 503
f 502 504 503
f 495 503 505
f 504 499 506
f 503 504 505
f 504 506 505
f 495 505 507
f 506 499 508
f 505 506 507
f 506 508 507
f 495 507 509
f 508 499 510
f 507 508 509
f 508 510 509
f 495 509 511
f 510 499 512
f 509 510 511
f 510 512 511
f 495 511 513
f 512 499 514
f 511 512 513
f 512 514 513
f 495 513 515
f 514 499 516
f 513 514 515
f 514 516 515
f 495 515 517
f 516 499 518
f 515 516 517
f 516 518 517
f 495 517 519
f 518 499 520
f 517 518 519
f 518 520 519
f 495 519 521
f 520 499 522
f 519 520 521
f 520 522 521
f 495 521 523
f 522 499 524
f 521 522 523
f 522 524 523
f 495 523 525
f 524 499 526
f 523 524 525
f 524 526 525
f 495 525 527
f 526 499 528
f 525 526 527
f 526 528 527
f 495 527 529
f 528 499 530
f 527 528 529
f 528 530 529
f 495 529 531
f 530 499 532
f 529 530 531
f 530 532 531
f 495 531 533
f 532 499 534
f 531 532 533
f 532 534 533
f 495 533 535
f 534 499 536
f 533 534 535
f 534 536 535
f 495 535 537
f 536 499 538
f 535 536 537
f 536 538 537
f 495 537 539
f 538 499 540
f 537 538 539
f 538 540 539
f 495 539 541
f 540 499 542
f 539 540 541
f 540 542 541
f 495 541 543
f 542 499 544
f 541 542 543
f 542 544 543
f 495 543 545
f 544 499 546
f 543 544 545
f 544 546 545
f 495 545 547
f 546 499 548
f 545 546 547
f 546 548 547
f 495 547 549
f 548 499 550
f 547 548 549
f 548 550 549
f 495 549 551
f 550 499 552
f 549 550 551
f 550 552 551
f 495 551 553
f 552 499 554
f 551 552 553
f 552 554 553
f 495 553 555
f 554 499 556
f 553 554 555
f 554 556 555
f 495 555 557
f 556 499 558
f 555 556 557
f 556 558 557
f 495 557 559
f 558 499 560
f 557 558 559
f 558 560 559
f 495 559 496
f 560 499 498
f 559 560 496
f 560 498 496
o Perfil_Alimentacao_3
usemtl cor2
v 0.20000 -0.86000 0.60000
v 0.20000 -0.85000 0.60000
v 0.20195 -0.85019 0.60000
v 0.20000 -0.85000 2.25000
v 0.20000 -0.86000 2.25000
v 0.20195 -0.85019 2.25000
v 0.20383 -0.85076 0.60000
v 0.20383 -0.85076 2.25000
v 0.20556 -0.85169 0.60000
v 0.20556 -0.85169 2.25000
v 0.20707 -0.85293 0.60000
v 0.20707 -0.85293 2.25000
v 0.20831 -0.85444 0.60000
v 0.20831 -0.85444 2.25000
v 0.20924 -0.85617 0.60000
v 0.20924 -0.85617 2.25000
v 0.20981 -0.85805 0.60000
v 0.20981 -0.85805 2.25000
v 0.21000 -0.86000 0.60000
v 0.21000 -0.86000 2.25000
v 0.20981 -0.86195 0.60000
v 0.20981 -0.86195 2.25000
v 0.20924 -0.86383 0.60000
v 0.20924 -0.86383 2.25000
v 0.20831 -0.86556 0.60000
v 0.20831 -0.86556 2.25000
v 0.20707 -0.86707 0.60000
v 0.20707 -0.86707 2.25000
v 0.20556 -0.86831 0.60000
v 0.20556 -0.86831 2.25000
v 0.20383 -0.86924 0.60000
v 0.20383 -0.86924 2.25000
v 0.20195 -0.86981 0.60000
v 0.20195 -0.86981 2.25000
v 0.20000 -0.87000 0.60000
v 0.20000 -0.87000 2.25000
v 0.19805 -0.86981 0.60000
v 0.19805 -0.86981 2.25000
v 0.19617 -0.86924 0.60000
v 0.19617 -0.86924 2.25000
v 0.19444 -0.86831 0.60000
v 0.19444 -0.86831 2.25000
v 0.19293 -0.86707 0.60000
v 0.19293 -0.86707 2.25000
v 0.19169 -0.86556 0.60000
v 0.19169 -0.86556 2.25000
v 0.19076 -0.86383 0.60000
v 0.19076 -0.86383 2.25000
v 0.19019 -0.86195 0.60000
v 0.19019 -0.86195 2.25000
v 0.19000 -0.86000 0.60000
v 0.19000 -0.86000 2.25000
v 0.19019 -0.85805 0.60000
v 0.19019 -0.85805 2.25000
v 0.19076 -0.85617 0.60000
v 0.19076 -0.85617 2.25000
v 0.19169 -0.85444 0.60000
v 0.19169 -0.85444 2.25000
v 0.19293 -0.85293 0.60000
v 0.19293 -0.85293 2.25000
v 0.19444 -0.85169 0.60000
v 0.19444 -0.85169 2.25000
v 0.19617 -0.85076 0.60000
v 0.19617 -0.85076 2.25000
v 0.19805 -0.85019 0.60000
v 0.19805 -0.85019 2.25000
f 561 562 563
f 564 565 566
f 562 564 563
f 564 566 563
f 561 563 567
f 566 565 568
f 563 566 567
f 566 568 567
f 561 567 569
f 568 565 570
f 567 568 569
f 568 570 569
f 561 569 571
f 570 565 572
f 569 570 571
f 570 572 571
f 561 571 573
f 572 565 574
f 571 572 573
f 572 574 573
f 561 573 575
f 574 565 576
f 573 574 575
f 574 576 575
f 561 575 577
f 576 565 578
f 575 576 577
f 576 578 577
f 561 577 579
f 578 565 580
f 577 578 579
f 578 580 579
f 561 579 581
f 580 565 582
f 579 580 581
f 580 582 581
f 561 581 583
f 582 565 584
f 581 582 583
f 582 584 583
f 561 583 585
f 584 565 586
f 583 584 585
f 584 586 585
f 561 585 587
f 586 565 588
f 585 586 587
f 586 588 587
f 561 587 589
f 588 565 590
f 587 588 589
f 588 590 589
f 561 589 591
f 590 565 592
f 589 590 591
f 590 592 591
f 561 591 593
f 592 565 594
f 591 592 593
f 592 594 593
f 561 593 595
f 594 565 596
f 593 594 595
f 594 596 595
f 561 595 597
f 596 565 598
f 595 596 597
f 596 598 597
f 561 597 599
f 598 565 600
f 597 598 599
f 598 600 599
f 561 599 601
f 600 565 602
f 599 600 601
f 600 602 601
f 561 601 603
f 602 565 604
f 601 602 603
f 602 604 603
f 561 603 605
f 604 565 606
f 603 604 605
f 604 606 605
f 561 605 607
f 606 565 608
f 605 606 607
f 606 608 607
f 561 607 609
f 608 565 610
f 607 608 609
f 608 610 609
f 561 609 611
f 610 565 612
f 609 610 611
f 610 612 611
f 561 611 613
f 612 565 614
f 611 612 613
f 612 614 613
f 561 613 615
f 614 565 616
f 613 614 615
f 614 616 615
f 561 615 617
f 616 565 618
f 615 616 617
f 616 618 617
f 561 617 619
f 618 565 620
f 617 618 619
f 618 620 619
f 561 619 621
f 620 565 622
f 619 620 621
f 620 622 621
f 561 621 623
f 622 565 624
f 621 622 623
f 622 624 623
f 561 623 625
f 624 565 626
f 623 624 625
f 624 626 625
f 561 625 562
f 626 565 564
f 625 626 562
f 626 564 562
