# CP05 - 18_painel_eletrico_ihm (metros, Z para cima)
mtllib 18_painel_eletrico_ihm.mtl
o Painel_Eletrico_CLP
usemtl cor0
v -1.90000 -0.00000 0.00000
v -2.30000 -0.00000 0.00000
v -1.90000 0.80000 0.00000
v -2.30000 0.80000 0.00000
v -1.90000 -0.00000 1.90000
v -2.30000 -0.00000 1.90000
v -1.90000 0.80000 1.90000
v -2.30000 0.80000 1.90000
f 1 2 3
f 3 2 4
f 2 1 5
f 2 5 6
f 3 4 7
f 7 4 8
f 7 8 5
f 5 8 6
f 4 2 8
f 8 2 6
f 1 3 7
f 1 7 5
o IHM_Pedestal
usemtl cor1
v 2.03000 -2.13000 -0.00000
v 1.97000 -2.13000 -0.00000
v 2.03000 -2.07000 -0.00000
v 1.97000 -2.07000 -0.00000
v 2.03000 -2.13000 1.20000
v 1.97000 -2.13000 1.20000
v 2.03000 -2.07000 1.20000
v 1.97000 -2.07000 1.20000
f 9 10 11
f 11 10 12
f 10 9 13
f 10 13 14
f 11 12 15
f 15 12 16
f 15 16 13
f 13 16 14
f 12 10 16
f 16 10 14
f 9 11 15
f 9 15 13
o IHM
usemtl cor2
v 2.20000 -2.17299 1.16557
v 1.80000 -2.17299 1.16557
v 2.20000 -2.11567 1.14783
v 1.80000 -2.11567 1.14783
v 2.20000 -2.08433 1.45217
v 1.80000 -2.08433 1.45217
v 2.20000 -2.02701 1.43443
v 1.80000 -2.02701 1.43443
f 17 18 19
f 19 18 20
f 18 17 21
f 18 21 22
f 19 20 23
f 23 20 24
f 23 24 21
f 21 24 22
f 20 18 24
f 24 18 22
f 17 19 23
f 17 23 21
o IHM_Tela
usemtl cor3
v 2.17000 -2.10490 1.20565
v 1.83000 -2.10490 1.20565
v 2.17000 -2.10012 1.20417
v 1.83000 -2.10012 1.20417
v 2.17000 -2.03988 1.41583
v 1.83000 -2.03988 1.41583
v 2.17000 -2.03510 1.41435
v 1.83000 -2.03510 1.41435
f 25 26 27
f 27 26 28
f 26 25 29
f 26 29 30
f 27 28 31
f 31 28 32
f 31 32 29
f 29 32 30
f 28 26 32
f 32 26 30
f 25 27 31
f 25 31 29
