# CP05 - 19_torre_sinalizacao (metros, Z para cima)
mtllib 19_torre_sinalizacao.mtl
o Torre_Sinal_Haste
usemtl cor0
v 1.66500 -1.66500 1.80000
v 1.63500 -1.66500 1.80000
v 1.66500 -1.63500 1.80000
v 1.63500 -1.63500 1.80000
v 1.66500 -1.66500 2.20000
v 1.63500 -1.66500 2.20000
v 1.66500 -1.63500 2.20000
v 1.63500 -1.63500 2.20000
f 1 2 3
f 3 2 4
f 2 1 5
f 2 5 6
f 3 4 7
f 7 4 8
f 7 8 5
f 5 8 6
f 4 2 8
f 8 2 6
f 1 3 7
f 1 7 5
o Torre_Sinal_Vermelho
usemtl cor1
v 1.65000 -1.65000 2.27500
v 1.69000 -1.65000 2.27500
v 1.68923 -1.64220 2.27500
v 1.69000 -1.65000 2.20500
v 1.65000 -1.65000 2.20500
v 1.68923 -1.64220 2.20500
v 1.68696 -1.63469 2.27500
v 1.68696 -1.63469 2.20500
v 1.68326 -1.62778 2.27500
v 1.68326 -1.62778 2.20500
v 1.67828 -1.62172 2.27500
v 1.67828 -1.62172 2.20500
v 1.67222 -1.61674 2.27500
v 1.67222 -1.61674 2.20500
v 1.66531 -1.61304 2.27500
v 1.66531 -1.61304 2.20500
v 1.65780 -1.61077 2.27500
v 1.65780 -1.61077 2.20500
v 1.65000 -1.61000 2.27500
v 1.65000 -1.61000 2.20500
v 1.64220 -1.61077 2.27500
v 1.64220 -1.61077 2.20500
v 1.63469 -1.61304 2.27500
v 1.63469 -1.61304 2.20500
v 1.62778 -1.61674 2.27500
v 1.62778 -1.61674 2.20500
v 1.62172 -1.62172 2.27500
v 1.62172 -1.62172 2.20500
v 1.61674 -1.62778 2.27500
v 1.61674 -1.62778 2.20500
v 1.61304 -1.63469 2.27500
v 1.61304 -1.63469 2.20500
v 1.61077 -1.64220 2.27500
v 1.61077 -1.64220 2.20500
v 1.61000 -1.65000 2.27500
v 1.61000 -1.65000 2.20500
v 1.61077 -1.65780 2.27500
v 1.61077 -1.65780 2.20500
v 1.61304 -1.66531 2.27500
v 1.61304 -1.66531 2.20500
v 1.61674 -1.67222 2.27500
v 1.61674 -1.67222 2.20500
v 1.62172 -1.67828 2.27500
v 1.62172 -1.67828 2.20500
v 1.62778 -1.68326 2.27500
v 1.62778 -1.68326 2.20500
v 1.63469 -1.68696 2.27500
v 1.63469 -1.68696 2.20500
v 1.64220 -1.68923 2.27500
v 1.64220 -1.68923 2.20500
v 1.65000 -1.69000 2.27500
v 1.65000 -1.69000 2.20500
v 1.65780 -1.68923 2.27500
v 1.65780 -1.68923 2.20500
v 1.66531 -1.68696 2.27500
v 1.66531 -1.68696 2.20500
v 1.67222 -1.68326 2.27500
v 1.67222 -1.68326 2.20500
v 1.67828 -1.67828 2.27500
v 1.67828 -1.67828 2.20500
v 1.68326 -1.67222 2.27500
v 1.68326 -1.67222 2.20500
v 1.68696 -1.66531 2.27500
v 1.68696 -1.66531 2.20500
v 1.68923 -1.65780 2.27500
v 1.68923 -1.65780 2.20500
f 9 10 11
f 12 13 14
f 10 12 11
f 12 14 11
f 9 11 15
f 14 13 16
f 11 14 15
f 14 16 15
f 9 15 17
f 16 13 18
f 15 16 17
f 16 18 17
f 9 17 19
f 18 13 20
f 17 18 19
f 18 20 19
f 9 19 21
f 20 13 22
f 19 20 21
f 20 22 21
f 9 21 23
f 22 13 24
f 21 22 23
f 22 24 23
f 9 23 25
f 24 13 26
f 23 24 25
f 24 26 25
f 9 25 27
f 26 13 28
f 25 26 27
f 26 28 27
f 9 27 29
f 28 13 30
f 27 28 29
f 28 30 29
f 9 29 31
f 30 13 32
f 29 30 31
f 30 32 31
f 9 31 33
f 32 13 34
f 31 32 33
f 32 34 33
f 9 33 35
f 34 13 36
f 33 34 35
f 34 36 35
f 9 35 37
f 36 13 38
f 35 36 37
f 36 38 37
f 9 37 39
f 38 13 40
f 37 38 39
f 38 40 39
f 9 39 41
f 40 13 42
f 39 40 41
f 40 42 41
f 9 41 43
f 42 13 44
f 41 42 43
f 42 44 43
f 9 43 45
f 44 13 46
f 43 44 45
f 44 46 45
f 9 45 47
f 46 13 48
f 45 46 47
f 46 48 47
f 9 47 49
f 48 13 50
f 47 48 49
f 48 50 49
f 9 49 51
f 50 13 52
f 49 50 51
f 50 52 51
f 9 51 53
f 52 13 54
f 51 52 53
f 52 54 53
f 9 53 55
f 54 13 56
f 53 54 55
f 54 56 55
f 9 55 57
f 56 13 58
f 55 56 57
f 56 58 57
f 9 57 59
f 58 13 60
f 57 58 59
f 58 60 59
f 9 59 61
f 60 13 62
f 59 60 61
f 60 62 61
f 9 61 63
f 62 13 64
f 61 62 63
f 62 64 63
f 9 63 65
f 64 13 66
f 63 64 65
f 64 66 65
f 9 65 67
f 66 13 68
f 65 66 67
f 66 68 67
f 9 67 69
f 68 13 70
f 67 68 69
f 68 70 69
f 9 69 71
f 70 13 72
f 69 70 71
f 70 72 71
f 9 71 73
f 72 13 74
f 71 72 73
f 72 74 73
f 9 73 10
f 74 13 12
f 73 74 10
f 74 12 10
o Torre_Sinal_Amarelo
usemtl cor1
v 1.65000 -1.65000 2.34500
v 1.69000 -1.65000 2.34500
v 1.68923 -1.64220 2.34500
v 1.69000 -1.65000 2.27500
v 1.65000 -1.65000 2.27500
v 1.68923 -1.64220 2.27500
v 1.68696 -1.63469 2.34500
v 1.68696 -1.63469 2.27500
v 1.68326 -1.62778 2.34500
v 1.68326 -1.62778 2.27500
v 1.67828 -1.62172 2.34500
v 1.67828 -1.62172 2.27500
v 1.67222 -1.61674 2.34500
v 1.67222 -1.61674 2.27500
v 1.66531 -1.61304 2.34500
v 1.66531 -1.61304 2.27500
v 1.65780 -1.61077 2.34500
v 1.65780 -1.61077 2.27500
v 1.65000 -1.61000 2.34500
v 1.65000 -1.61000 2.27500
v 1.64220 -1.61077 2.34500
v 1.64220 -1.61077 2.27500
v 1.63469 -1.61304 2.34500
v 1.63469 -1.61304 2.27500
v 1.62778 -1.61674 2.34500
v 1.62778 -1.61674 2.27500
v 1.62172 -1.62172 2.34500
v 1.62172 -1.62172 2.27500
v 1.61674 -1.62778 2.34500
v 1.61674 -1.62778 2.27500
v 1.61304 -1.63469 2.34500
v 1.61304 -1.63469 2.27500
v 1.61077 -1.64220 2.34500
v 1.61077 -1.64220 2.27500
v 1.61000 -1.65000 2.34500
v 1.61000 -1.65000 2.27500
v 1.61077 -1.65780 2.34500
v 1.61077 -1.65780 2.27500
v 1.61304 -1.66531 2.34500
v 1.61304 -1.66531 2.27500
v 1.61674 -1.67222 2.34500
v 1.61674 -1.67222 2.27500
v 1.62172 -1.67828 2.34500
v 1.62172 -1.67828 2.27500
v 1.62778 -1.68326 2.34500
v 1.62778 -1.68326 2.27500
v 1.63469 -1.68696 2.34500
v 1.63469 -1.68696 2.27500
v 1.64220 -1.68923 2.34500
v 1.64220 -1.68923 2.27500
v 1.65000 -1.69000 2.34500
v 1.65000 -1.69000 2.27500
v 1.65780 -1.68923 2.34500
v 1.65780 -1.68923 2.27500
v 1.66531 -1.68696 2.34500
v 1.66531 -1.68696 2.27500
v 1.67222 -1.68326 2.34500
v 1.67222 -1.68326 2.27500
v 1.67828 -1.67828 2.34500
v 1.67828 -1.67828 2.27500
v 1.68326 -1.67222 2.34500
v 1.68326 -1.67222 2.27500
v 1.68696 -1.66531 2.34500
v 1.68696 -1.66531 2.27500
v 1.68923 -1.65780 2.34500
v 1.68923 -1.65780 2.27500
f 75 76 77
f 78 79 80
f 76 78 77
f 78 80 77
f 75 77 81
f 80 79 82
f 77 80 81
f 80 82 81
f 75 81 83
f 82 79 84
f 81 82 83
f 82 84 83
f 75 83 85
f 84 79 86
f 83 84 85
f 84 86 85
f 75 85 87
f 86 79 88
f 85 86 87
f 86 88 87
f 75 87 89
f 88 79 90
f 87 88 89
f 88 90 89
f 75 89 91
f 90 79 92
f 89 90 91
f 90 92 91
f 75 91 93
f 92 79 94
f 91 92 93
f 92 94 93
f 75 93 95
f 94 79 96
f 93 94 95
f 94 96 95
f 75 95 97
f 96 79 98
f 95 96 97
f 96 98 97
f 75 97 99
f 98 79 100
f 97 98 99
f 98 100 99
f 75 99 101
f 100 79 102
f 99 100 101
f 100 102 101
f 75 101 103
f 102 79 104
f 101 102 103
f 102 104 103
f 75 103 105
f 104 79 106
f 103 104 105
f 104 106 105
f 75 105 107
f 106 79 108
f 105 106 107
f 106 108 107
f 75 107 109
f 108 79 110
f 107 108 109
f 108 110 109
f 75 109 111
f 110 79 112
f 109 110 111
f 110 112 111
f 75 111 113
f 112 79 114
f 111 112 113
f 112 114 113
f 75 113 115
f 114 79 116
f 113 114 115
f 114 116 115
f 75 115 117
f 116 79 118
f 115 116 117
f 116 118 117
f 75 117 119
f 118 79 120
f 117 118 119
f 118 120 119
f 75 119 121
f 120 79 122
f 119 120 121
f 120 122 121
f 75 121 123
f 122 79 124
f 121 122 123
f 122 124 123
f 75 123 125
f 124 79 126
f 123 124 125
f 124 126 125
f 75 125 127
f 126 79 128
f 125 126 127
f 126 128 127
f 75 127 129
f 128 79 130
f 127 128 129
f 128 130 129
f 75 129 131
f 130 79 132
f 129 130 131
f 130 132 131
f 75 131 133
f 132 79 134
f 131 132 133
f 132 134 133
f 75 133 135
f 134 79 136
f 133 134 135
f 134 136 135
f 75 135 137
f 136 79 138
f 135 136 137
f 136 138 137
f 75 137 139
f 138 79 140
f 137 138 139
f 138 140 139
f 75 139 76
f 140 79 78
f 139 140 76
f 140 78 76
o Torre_Sinal_Verde
usemtl cor2
v 1.65000 -1.65000 2.41500
v 1.69000 -1.65000 2.41500
v 1.68923 -1.64220 2.41500
v 1.69000 -1.65000 2.34500
v 1.65000 -1.65000 2.34500
v 1.68923 -1.64220 2.34500
v 1.68696 -1.63469 2.41500
v 1.68696 -1.63469 2.34500
v 1.68326 -1.62778 2.41500
v 1.68326 -1.62778 2.34500
v 1.67828 -1.62172 2.41500
v 1.67828 -1.62172 2.34500
v 1.67222 -1.61674 2.41500
v 1.67222 -1.61674 2.34500
v 1.66531 -1.61304 2.41500
v 1.66531 -1.61304 2.34500
v 1.65780 -1.61077 2.41500
v 1.65780 -1.61077 2.34500
v 1.65000 -1.61000 2.41500
v 1.65000 -1.61000 2.34500
v 1.64220 -1.61077 2.41500
v 1.64220 -1.61077 2.34500
v 1.63469 -1.61304 2.41500
v 1.63469 -1.61304 2.34500
v 1.62778 -1.61674 2.41500
v 1.62778 -1.61674 2.34500
v 1.62172 -1.62172 2.41500
v 1.62172 -1.62172 2.34500
v 1.61674 -1.62778 2.41500
v 1.61674 -1.62778 2.34500
v 1.61304 -1.63469 2.41500
v 1.61304 -1.63469 2.34500
v 1.61077 -1.64220 2.41500
v 1.61077 -1.64220 2.34500
v 1.61000 -1.65000 2.41500
v 1.61000 -1.65000 2.34500
v 1.61077 -1.65780 2.41500
v 1.61077 -1.65780 2.34500
v 1.61304 -1.66531 2.41500
v 1.61304 -1.66531 2.34500
v 1.61674 -1.67222 2.41500
v 1.61674 -1.67222 2.34500
v 1.62172 -1.67828 2.41500
v 1.62172 -1.67828 2.34500
v 1.62778 -1.68326 2.41500
v 1.62778 -1.68326 2.34500
v 1.63469 -1.68696 2.41500
v 1.63469 -1.68696 2.34500
v 1.64220 -1.68923 2.41500
v 1.64220 -1.68923 2.34500
v 1.65000 -1.69000 2.41500
v 1.65000 -1.69000 2.34500
v 1.65780 -1.68923 2.41500
v 1.65780 -1.68923 2.34500
v 1.66531 -1.68696 2.41500
v 1.66531 -1.68696 2.34500
v 1.67222 -1.68326 2.41500
v 1.67222 -1.68326 2.34500
v 1.67828 -1.67828 2.41500
v 1.67828 -1.67828 2.34500
v 1.68326 -1.67222 2.41500
v 1.68326 -1.67222 2.34500
v 1.68696 -1.66531 2.41500
v 1.68696 -1.66531 2.34500
v 1.68923 -1.65780 2.41500
v 1.68923 -1.65780 2.34500
f 141 142 143
f 144 145 146
f 142 144 143
f 144 146 143
f 141 143 147
f 146 145 148
f 143 146 147
f 146 148 147
f 141 147 149
f 148 145 150
f 147 148 149
f 148 150 149
f 141 149 151
f 150 145 152
f 149 150 151
f 150 152 151
f 141 151 153
f 152 145 154
f 151 152 153
f 152 154 153
f 141 153 155
f 154 145 156
f 153 154 155
f 154 156 155
f 141 155 157
f 156 145 158
f 155 156 157
f 156 158 157
f 141 157 159
f 158 145 160
f 157 158 159
f 158 160 159
f 141 159 161
f 160 145 162
f 159 160 161
f 160 162 161
f 141 161 163
f 162 145 164
f 161 162 163
f 162 164 163
f 141 163 165
f 164 145 166
f 163 164 165
f 164 166 165
f 141 165 167
f 166 145 168
f 165 166 167
f 166 168 167
f 141 167 169
f 168 145 170
f 167 168 169
f 168 170 169
f 141 169 171
f 170 145 172
f 169 170 171
f 170 172 171
f 141 171 173
f 172 145 174
f 171 172 173
f 172 174 173
f 141 173 175
f 174 145 176
f 173 174 175
f 174 176 175
f 141 175 177
f 176 145 178
f 175 176 177
f 176 178 177
f 141 177 179
f 178 145 180
f 177 178 179
f 178 180 179
f 141 179 181
f 180 145 182
f 179 180 181
f 180 182 181
f 141 181 183
f 182 145 184
f 181 182 183
f 182 184 183
f 141 183 185
f 184 145 186
f 183 184 185
f 184 186 185
f 141 185 187
f 186 145 188
f 185 186 187
f 186 188 187
f 141 187 189
f 188 145 190
f 187 188 189
f 188 190 189
f 141 189 191
f 190 145 192
f 189 190 191
f 190 192 191
f 141 191 193
f 192 145 194
f 191 192 193
f 192 194 193
f 141 193 195
f 194 145 196
f 193 194 195
f 194 196 195
f 141 195 197
f 196 145 198
f 195 196 197
f 196 198 197
f 141 197 199
f 198 145 200
f 197 198 199
f 198 200 199
f 141 199 201
f 200 145 202
f 199 200 201
f 200 202 201
f 141 201 203
f 202 145 204
f 201 202 203
f 202 204 203
f 141 203 205
f 204 145 206
f 203 204 205
f 204 206 205
f 141 205 142
f 206 145 144
f 205 206 142
f 206 144 142
